<svg width="189" height="20" viewBox="0 0 189 20" fill="none" xmlns="http://www.w3.org/2000/svg">
<path d="M15.0854 18.3566C14.6843 18.6007 14.2222 18.8361 13.6991 19.0628C13.1759 19.2895 12.6005 19.4639 11.9727 19.5859C11.3449 19.7254 10.6649 19.7952 9.93246 19.7952C8.51998 19.7952 7.23828 19.5511 6.08737 19.0628C4.93646 18.5571 3.95121 17.877 3.13162 17.0225C2.31204 16.1506 1.67555 15.1567 1.22216 14.0406C0.786207 12.9072 0.568231 11.7039 0.568231 10.431C0.568231 9.0708 0.803645 7.80654 1.27447 6.63819C1.7453 5.46984 2.40794 4.44972 3.26241 3.57781C4.11687 2.70591 5.11084 2.02583 6.24431 1.53756C7.37779 1.0493 8.60717 0.805165 9.93246 0.805165C10.909 0.805165 11.8245 0.935951 12.679 1.19752C13.5334 1.45909 14.3094 1.79913 15.0069 2.21765L14.4576 3.39472C13.8473 3.01108 13.1585 2.68847 12.3912 2.4269C11.624 2.16533 10.8131 2.03455 9.95862 2.03455C8.86002 2.03455 7.82246 2.25252 6.84593 2.68847C5.8694 3.10699 5.00621 3.69988 4.25638 4.46716C3.52398 5.21699 2.94852 6.09761 2.53001 7.10902C2.1115 8.12042 1.90224 9.2103 1.90224 10.3787C1.90224 11.4947 2.08534 12.5497 2.45154 13.5437C2.83518 14.5376 3.37576 15.4095 4.07328 16.1594C4.78824 16.9092 5.6427 17.5021 6.63667 17.938C7.63064 18.3566 8.73795 18.5658 9.95862 18.5658C10.8654 18.5658 11.6937 18.4437 12.4435 18.1996C13.2108 17.938 13.8909 17.6154 14.4838 17.2318L15.0854 18.3566ZM25.9774 10.3263C25.9774 9.01848 26.2215 7.79782 26.7098 6.66435C27.198 5.51344 27.8781 4.50203 28.75 3.63013C29.6219 2.74079 30.6246 2.05199 31.7581 1.56372C32.909 1.05802 34.1384 0.805165 35.4462 0.805165C36.7541 0.805165 37.9835 1.05802 39.1344 1.56372C40.2853 2.05199 41.2967 2.74079 42.1686 3.63013C43.0405 4.50203 43.7206 5.51344 44.2088 6.66435C44.7145 7.79782 44.9674 9.01848 44.9674 10.3263C44.9674 11.6342 44.7145 12.8636 44.2088 14.0145C43.7206 15.148 43.0405 16.1506 42.1686 17.0225C41.2967 17.8944 40.2853 18.5745 39.1344 19.0628C37.9835 19.5511 36.7541 19.7952 35.4462 19.7952C34.1384 19.7952 32.909 19.5598 31.7581 19.089C30.6246 18.6181 29.6219 17.9555 28.75 17.101C27.8781 16.2466 27.198 15.2439 26.7098 14.093C26.2215 12.942 25.9774 11.6865 25.9774 10.3263ZM27.2852 10.3525C27.2852 11.486 27.4945 12.5497 27.913 13.5437C28.3315 14.5376 28.9157 15.4095 29.6655 16.1594C30.4153 16.9092 31.2785 17.5021 32.2551 17.938C33.249 18.3566 34.304 18.5658 35.4201 18.5658C36.571 18.5658 37.6434 18.3566 38.6374 17.938C39.6314 17.5021 40.5033 16.9092 41.2531 16.1594C42.0029 15.4095 42.5871 14.5376 43.0056 13.5437C43.4416 12.5497 43.6595 11.4772 43.6595 10.3263C43.6595 9.19286 43.4416 8.12914 43.0056 7.13518C42.5871 6.12377 42.0029 5.24315 41.2531 4.49331C40.5033 3.72604 39.6314 3.12443 38.6374 2.68847C37.6434 2.25252 36.5797 2.03455 35.4462 2.03455C34.2953 2.03455 33.2229 2.26124 32.2289 2.71463C31.2349 3.15058 30.363 3.7522 29.6132 4.51947C28.8808 5.28674 28.3053 6.17608 27.8868 7.18749C27.4858 8.18146 27.2852 9.23646 27.2852 10.3525ZM57.0338 19.5859V0.59591H57.0599L66.2149 13.596L65.6656 13.5175L74.7944 0.59591H74.8206V19.5859H73.565V3.55166L73.6697 4.17943L65.9272 15.0869H65.8749L58.08 4.17943L58.2893 3.60397V19.5859H57.0338ZM92.3523 1.01442C93.5033 1.01442 94.5059 1.21496 95.3604 1.61603C96.2323 1.99967 96.9037 2.58385 97.3745 3.36856C97.8628 4.13583 98.1069 5.10364 98.1069 6.27199C98.1069 6.96951 97.9935 7.6496 97.7669 8.31224C97.5576 8.95745 97.2088 9.54162 96.7206 10.0648C96.2497 10.5879 95.6394 11.0064 94.8896 11.3203C94.1572 11.6342 93.2678 11.7911 92.2216 11.7911H89.3443V19.5859H88.0626V1.01442H92.3523ZM92.2216 10.5618C93.1283 10.5618 93.8782 10.4222 94.4711 10.1432C95.0814 9.84679 95.5522 9.48059 95.8835 9.04464C96.2323 8.59125 96.4764 8.12042 96.6159 7.63216C96.7729 7.14389 96.8514 6.69051 96.8514 6.27199C96.8514 5.6791 96.7554 5.13852 96.5636 4.65025C96.3718 4.16199 96.0841 3.74348 95.7004 3.39472C95.3342 3.02852 94.8809 2.74951 94.3403 2.55769C93.7997 2.34843 93.1806 2.2438 92.4831 2.2438H89.3443V10.5618H92.2216ZM106.588 19.5859L114.435 0.203553H114.54L122.387 19.5859H120.948L114.121 2.2438L115.01 1.74682L107.87 19.5859H106.588ZM110.381 12.2358H118.62L118.986 13.439H110.067L110.381 12.2358ZM143.288 3.10699C142.747 2.84542 142.084 2.60128 141.3 2.37459C140.515 2.1479 139.73 2.03455 138.946 2.03455C137.725 2.03455 136.748 2.33971 136.016 2.95004C135.284 3.56038 134.917 4.32765 134.917 5.25187C134.917 5.94939 135.127 6.53356 135.545 7.00439C135.964 7.45778 136.513 7.85014 137.193 8.18146C137.873 8.49534 138.597 8.80051 139.364 9.09695C139.974 9.32365 140.576 9.5765 141.169 9.85551C141.779 10.1345 142.329 10.4746 142.817 10.8756C143.305 11.2767 143.689 11.7737 143.968 12.3666C144.264 12.9595 144.412 13.6919 144.412 14.5638C144.412 15.5926 144.168 16.5081 143.68 17.3103C143.192 18.095 142.512 18.7053 141.64 19.1413C140.768 19.5772 139.757 19.7952 138.606 19.7952C137.681 19.7952 136.836 19.6818 136.068 19.4552C135.319 19.2285 134.656 18.9669 134.08 18.6704C133.522 18.3566 133.078 18.095 132.746 17.8857L133.348 16.8394C133.732 17.1185 134.194 17.3975 134.734 17.6765C135.292 17.9555 135.894 18.1909 136.539 18.3827C137.184 18.5745 137.83 18.6704 138.475 18.6704C139.225 18.6704 139.948 18.5222 140.646 18.2258C141.361 17.9293 141.945 17.4847 142.398 16.8918C142.869 16.2814 143.105 15.5142 143.105 14.5899C143.105 13.7006 142.887 12.9856 142.451 12.4451C142.015 11.887 141.457 11.4337 140.777 11.0849C140.097 10.7361 139.373 10.4222 138.606 10.1432C138.013 9.91654 137.42 9.68113 136.827 9.437C136.234 9.17543 135.693 8.87026 135.205 8.5215C134.717 8.1553 134.325 7.71935 134.028 7.21365C133.749 6.70794 133.61 6.09761 133.61 5.38265C133.61 4.49331 133.836 3.71732 134.29 3.05467C134.743 2.39203 135.353 1.87761 136.121 1.51141C136.905 1.12777 137.795 0.927231 138.789 0.909794C139.661 0.909794 140.541 1.02314 141.431 1.24984C142.337 1.47653 143.122 1.76426 143.785 2.11302L143.288 3.10699ZM156.525 1.01442H157.806V19.5859H156.525V1.01442ZM169.875 10.3263C169.875 9.01848 170.119 7.79782 170.607 6.66435C171.096 5.51344 171.776 4.50203 172.648 3.63013C173.519 2.74079 174.522 2.05199 175.656 1.56372C176.807 1.05802 178.036 0.805165 179.344 0.805165C180.652 0.805165 181.881 1.05802 183.032 1.56372C184.183 2.05199 185.194 2.74079 186.066 3.63013C186.938 4.50203 187.618 5.51344 188.106 6.66435C188.612 7.79782 188.865 9.01848 188.865 10.3263C188.865 11.6342 188.612 12.8636 188.106 14.0145C187.618 15.148 186.938 16.1506 186.066 17.0225C185.194 17.8944 184.183 18.5745 183.032 19.0628C181.881 19.5511 180.652 19.7952 179.344 19.7952C178.036 19.7952 176.807 19.5598 175.656 19.089C174.522 18.6181 173.519 17.9555 172.648 17.101C171.776 16.2466 171.096 15.2439 170.607 14.093C170.119 12.942 169.875 11.6865 169.875 10.3263ZM171.183 10.3525C171.183 11.486 171.392 12.5497 171.811 13.5437C172.229 14.5376 172.813 15.4095 173.563 16.1594C174.313 16.9092 175.176 17.5021 176.153 17.938C177.147 18.3566 178.202 18.5658 179.318 18.5658C180.469 18.5658 181.541 18.3566 182.535 17.938C183.529 17.5021 184.401 16.9092 185.151 16.1594C185.9 15.4095 186.485 14.5376 186.903 13.5437C187.339 12.5497 187.557 11.4772 187.557 10.3263C187.557 9.19286 187.339 8.12914 186.903 7.13518C186.485 6.12377 185.9 5.24315 185.151 4.49331C184.401 3.72604 183.529 3.12443 182.535 2.68847C181.541 2.25252 180.477 2.03455 179.344 2.03455C178.193 2.03455 177.12 2.26124 176.126 2.71463C175.133 3.15058 174.261 3.7522 173.511 4.51947C172.778 5.28674 172.203 6.17608 171.784 7.18749C171.383 8.18146 171.183 9.23646 171.183 10.3525Z" fill="#42816C"/>
</svg>
