<svg width="193" height="230" viewBox="0 0 193 230" fill="none" xmlns="http://www.w3.org/2000/svg">
<path d="M100.51 157.45L99.9087 157.89L98.7749 158.63L97.2161 159.518L96.8083 159.723L96.1315 160.001L95.8163 160.119L95.2986 160.221L95.0586 160.252L94.6652 160.183L94.483 160.128L94.1794 159.897L94.0752 159.795L93.6964 159.544L93.0746 159.211L92.9791 159.171L92.6957 159L92.6118 158.948L93.0023 159.148L93.2018 159.214L93.6038 159.327L93.8294 159.353L94.3008 159.393H94.5814L95.7469 159.341L96.4844 159.246L96.843 159.165L97.5545 158.98L97.9102 158.85L98.6246 158.558L98.9919 158.364L99.7409 157.95L100.137 157.693L100.678 157.323M89.0024 156.134L89.5346 156.582L89.4218 156.487L88.745 155.92L88.6698 155.856M103.498 155.073L103.79 154.824L104.354 154.321L103.686 154.916M63.8351 134.938L65.9377 136.725L66.9384 137.572L68.905 139.235L69.8478 140.028L71.7075 141.592L72.6098 142.347L76.1527 145.303L77.8909 146.74L80.6442 149.019L81.4945 149.725L81.8878 150.055L82.6571 150.694L83.0042 150.986L83.6722 151.544L83.9614 151.784L84.5081 152.241L84.7279 152.426L85.127 152.768L85.2687 152.886L85.5058 153.091L85.555 153.138L86.1132 153.638L86.0958 153.624L85.8876 153.444L85.3612 152.996L85.0778 152.756L84.4184 152.198L84.0771 151.909L83.3107 151.264L82.9145 150.934L82.0671 150.222L81.6333 149.861L80.7251 149.103L77.8909 146.749L76.144 145.303L72.5751 142.321L71.6641 141.561L69.7929 139.984L68.8443 139.183L66.8689 137.514L65.8654 136.664L63.757 134.874L63.1555 134.359M62.7303 133.998L62.6869 133.96L61.5474 132.988M127.468 130.18L128.694 130.776L129.287 131.065L130.296 131.58L130.528 131.701L130.927 131.918L131.115 132.019L131.41 132.193L131.543 132.274L131.719 132.398L131.829 132.517V132.543L131.739 132.67L131.682 132.745L131.494 132.945L130.69 133.691L130.531 133.827L130.337 133.995L130.675 133.604L130.881 133.095L130.904 132.809L130.869 132.248L130.788 132.086L130.713 132.002L130.536 131.831L130.398 131.736L130.091 131.534L129.874 131.412L129.403 131.152L129.093 130.993L128.425 130.654L128.003 130.449L127.277 130.09M119.569 127.247L119.445 127.244ZM54.8811 127.282L52.8739 125.558L54.884 127.285M69.3591 117.692V117.457ZM157.28 108.211L157.855 108.237L158.078 108.292L158.286 108.353L158.359 108.394L158.48 108.48L158.5 108.535L158.723 108.674L157.954 108.743L157.468 108.772L156.34 108.741L156.042 108.726L155.397 108.671L155.212 108.654L155.62 108.671L155.785 108.651L156.042 108.59L156.062 108.527L156.204 108.388L156.372 108.315L156.485 108.289L156.994 108.208M164.727 105.741L164.27 106.077L163.261 106.742L162.749 107.063L161.745 107.627L161.5 107.754L161.043 107.977L160.979 108.006L161.239 107.876L161.988 107.483L162.382 107.254L163.177 106.78L163.579 106.517L164.941 105.577M148.219 107.448L148.684 107.546L148.317 107.468L148.175 107.439M147.01 107.185L146.515 107.075L145.708 106.893M145.477 106.84L145.205 106.78L144.534 106.626L143.097 106.291L142.886 106.239M165.589 105.076L165.441 105.189L165.708 104.963M87.0878 101.84L87.6749 102.141L87.9526 102.285L88.4327 102.54L88.6583 102.661L89.014 102.864L89.176 102.959L89.39 103.101L89.5404 103.234L89.5664 103.312L89.4738 103.419L89.3987 103.462L89.0487 103.509L88.9417 103.515L88.667 103.52H88.6351L88.693 103.509L88.7624 103.471L88.8723 103.381L88.8925 103.315L88.9157 103.167L88.9041 103.069L88.7884 102.901L88.6149 102.751L88.479 102.656L88.1695 102.456L87.9642 102.335L87.5159 102.077L87.2353 101.927L86.8247 101.707M125.125 101.397L125.304 101.504L125.426 101.562L125.689 101.684L125.854 101.75L126.204 101.886L126.415 101.961L126.858 102.115L127.112 102.196L127.647 102.366L127.951 102.456L128.581 102.644L128.934 102.745L129.663 102.951L130.065 103.06L130.898 103.286L131.352 103.405L131.465 103.436L131.23 103.376L130.392 103.153L129.987 103.043L129.252 102.841L128.897 102.742L128.26 102.56L127.954 102.47L127.413 102.306L127.153 102.227L126.698 102.077L126.484 102.005L126.117 101.872L125.944 101.805L125.654 101.687L125.388 101.568L125.07 101.369L125.062 101.357M169.603 101.773L169.383 101.996L169.265 102.112L168.967 102.375L167.958 103.156L167.723 103.321L168.07 103.043L168.487 102.719L169.077 102.236L169.421 101.933L169.56 101.802L169.664 101.698M170.41 100.978L170.118 101.212L169.875 101.47L169.887 101.458L170.005 101.293V101.256L170.13 101.056L170.315 100.972H170.43M191.688 62.157L191.61 62.8916L191.424 64.3029L191.329 65.0028L191.106 66.3592L190.872 67.7041L190.265 70.3012L189.935 71.594L189.111 74.194L188.891 74.8505L188.399 76.1867L187.592 78.2459L187.286 78.9921L186.681 80.3832L186.378 81.0629L185.764 82.3499L185.452 82.9832L184.813 84.1921L184.486 84.7908L183.804 85.9506L183.454 86.5261L182.713 87.6627L182.332 88.2296L181.516 89.372L181.097 89.9446L180.186 91.1159L178.702 92.9351L178.427 93.2648L177.745 94.0283L177.389 94.4216L176.594 95.2661L175.781 96.1193L174.057 97.8343L173.638 98.2421L172.845 98.9941L172.464 99.3527L171.793 99.9572L171.477 100.235L170.994 100.628L171.223 100.397L171.362 100.177L171.529 99.9485L171.706 99.7374L171.819 99.6043L172.067 99.3267L172.215 99.1618L172.521 98.8263L172.698 98.6384L173.441 97.8488L173.866 97.4092L174.743 96.5126L175.202 96.0557L176.53 94.7022L177.34 93.8461L177.678 93.473L178.005 93.1115L178.147 92.9495L178.416 92.6372L178.525 92.507L178.728 92.2583L178.797 92.1629L178.919 91.9893L178.948 91.9344L179.298 91.3733L179.405 91.2432L179.451 91.2027L179.535 91.1391H179.564L179.734 90.9973L179.925 90.7746L180.05 90.6098L180.322 90.2483L180.478 90.0256L180.807 89.5542L180.987 89.291L181.727 88.1746L182.097 87.5846L182.823 86.4075L183.118 85.8869L183.96 84.3368L184.532 83.2291L184.816 82.6478L185.947 80.2704L186.47 79.0702L186.985 77.8728L187.222 77.2886L187.688 76.1347L187.893 75.588L188.292 74.5122L188.46 74.0147L188.775 73.0545L188.897 72.6294L189.154 71.6923L189.336 70.978L189.432 70.5933L189.816 68.9998L189.996 68.2131L190.166 67.438L190.244 67.0765L190.392 66.3766L190.453 66.0729L190.563 65.5003L190.6 65.2776L190.661 64.8785L190.67 64.7628L190.811 64.0947L190.973 63.6927L191.063 63.5828L191.245 63.068L191.225 62.8453L191.19 62.7094L191.106 62.4202L191.04 62.2437L190.866 61.7203L190.823 61.4657L190.843 61.3645L190.912 61.1765L190.993 61.084L191.187 60.8931L191.335 60.7716L191.783 60.1643L191.829 60.0255M70.5882 93.3776L71.1927 93.794L72.5867 94.6761L74.669 95.859L74.3451 95.6999L74.1513 95.6016L73.8043 95.4281L73.6944 95.3702L72.928 94.9422L72.3756 94.6038L72.0892 94.4187L70.9266 93.6436L70.3973 93.2561L70.0243 92.9784M69.9346 92.9119L69.8825 92.8714L69.8681 92.8599M10.348 80.363L9.61341 80.629L9.26346 80.7534L8.65611 80.9616L8.36979 81.0571L7.87813 81.2075L7.64676 81.2769L7.26211 81.3752L7.0799 81.4186L6.7849 81.4678L6.64608 81.488L6.42628 81.4938L6.32506 81.4909L6.17177 81.4562L6.03295 81.4128L5.89124 81.2161L5.78423 80.7968L5.7582 80.6175L5.65987 80.3745L5.97511 80.6001L6.28746 80.7274H6.40314L6.74731 80.8459L6.94108 81.0224L6.98446 81.1352L7.15799 81.2537L7.40093 81.2624L7.60338 81.2248L8.06901 81.1207L8.40739 81.0224L8.76312 80.9125L8.97136 80.8431L9.40518 80.6956L9.65679 80.6088L10.1803 80.4237L10.4753 80.3138L10.4839 80.3109M5.15663 79.7267L5.29835 79.9696L5.36197 80.0651L5.4256 80.1489L5.36487 80.0882L5.33016 80.0477L5.24629 79.9089L5.15663 79.7556L5.06987 79.5705M0.546575 62.692L0.68829 62.8106L0.980395 63.2704L1.02378 63.658L0.965935 63.8865L0.91966 64.4794L0.980395 64.8293L1.04981 64.9219L1.15103 65.1445L1.22912 65.4048L1.2725 65.5813L1.36505 65.9659L1.41421 66.1944L1.51544 66.6774L1.56461 66.9492L1.77573 68.1061L1.87696 68.7453L2.07362 70.0496L2.15171 70.6946L2.35127 71.7907L2.5595 72.6525L2.68965 73.1268L3.15528 74.6857L3.14949 74.6655L3.01356 74.2663L2.79087 73.5375L2.54504 72.6294L2.44671 72.1927L2.21244 71.3511L2.1546 71.1602L2.04759 70.8449L1.91455 70.5152L1.85671 70.4053L1.72367 69.9918L1.65426 69.7575L1.50387 69.1357L1.42578 68.8031L1.26672 68.0251L1.18574 67.6231L1.02667 66.741L0.870494 65.8416L0.595741 63.9559L0.535007 63.496L0.433782 62.6139L0.425106 62.5214M35.8046 69.9831L35.3158 70.1971L35.9145 69.9339M36.9788 69.4596L36.7763 69.5522L37.1002 69.4075M44.3132 66.1394L43.0349 66.7265L40.5679 67.8487L39.3474 68.404L37.3576 69.2919L39.5296 68.3201L40.7328 67.7764L43.1621 66.6687L44.4144 66.0932L46.9422 64.9247L46.9017 64.9421M0.159029 57.1767L0.199519 57.4486L0.225549 57.5469L0.283391 57.7204L0.318097 57.7812L0.480056 57.9518L0.592849 57.9807L0.847357 58.1167L0.965935 58.2786L1.00353 58.4088L1.06716 58.7095L1.08162 58.9265L1.10476 59.4123V59.742L1.08162 60.5027L1.04113 60.8931L1.00642 61.0348L0.925445 61.2864L0.870494 61.3703L0.749025 61.5033L0.670937 61.5352L0.355695 61.7579L0.352802 61.7636L0.320989 61.4108L0.280499 60.8468L0.216872 59.5136L0.187951 58.8223L0.153245 57.3011L0.147461 57.1073M191.971 55.6583L191.945 58.2931L191.931 58.4782L191.916 58.4001L191.74 57.7609L191.583 57.4601L191.369 56.8528L191.314 56.4421L191.326 56.2512L191.381 55.8839L191.45 55.7364L191.612 55.4732L191.731 55.4009L191.884 55.2187L191.945 55.0626M187.751 34.673L188.237 35.8906L189.088 38.4154L189.495 39.688L190.184 42.2996L190.505 43.6126L191.025 46.2792L191.262 47.6153L191.604 50.3021L191.754 51.647L191.867 53.5673V53.5558L191.763 53.2926L191.531 52.798L191.375 52.6418L191.086 52.2977L190.959 52.0663L190.924 51.9391L190.872 51.6759V51.5168L190.889 51.1842L190.921 50.9789L190.962 50.467L190.967 50.065L190.959 49.8538L190.904 48.9833L190.837 48.6247L190.707 47.9016L190.591 47.2654L190.525 46.8981L190.244 45.3305L190.108 44.5757L189.871 43.3494L189.689 42.4731L189.591 42.0393L189.394 41.189L189.302 40.8072L189.116 40.0813L189.035 39.8037L188.558 38.0337L188.417 37.4726L188.362 37.2326L188.258 36.7814L188.226 36.6223L187.939 35.3758L187.717 34.6152L187.65 34.4359M15.1142 16.0592L14.9147 16.2877L14.5474 16.7157L14.4288 16.869L14.3247 17.0107L14.29 17.0628L14.2408 17.1554L14.2379 17.1756L14.1627 17.8755L13.9429 18.1445L13.6537 18.2833L13.4773 18.3093L12.9249 18.5696L12.5952 18.882L12.5026 19.0642L12.0891 19.7236L11.7276 20.2037L11.5569 20.383L11.1202 20.9065L11.019 21.0568L10.9872 21.1147L10.938 21.2159V21.2448L10.8165 21.5225L10.6228 21.8811L10.481 22.1269L10.1716 22.662L9.98649 22.9743L9.59606 23.6251L9.38204 23.9721L8.63587 25.2447L8.13553 26.1557L7.88681 26.6387L6.8977 28.6342L6.4176 29.7043L5.46609 31.8908L5.0207 33.0187L4.15017 35.289L3.75684 36.4199L3.002 38.6699L2.67808 39.7487L2.07362 41.8744L1.83936 42.8549L1.61956 43.8179L1.5299 44.272L1.35926 45.1628L1.29853 45.5764L1.18574 46.3804L1.15392 46.7448L1.10476 47.4476V47.757L1.07584 48.3008L1.02088 48.59L0.977503 48.7057L0.873386 48.9139L0.801083 48.9949L0.642016 49.1395L0.540791 49.1973L0.231333 49.4692L0.190843 49.553L0.193735 49.4084L0.251578 48.0636L0.266039 47.7426L0.300744 47.1497L0.318097 46.8634L0.355695 46.3486L0.375939 46.1027L0.422214 45.6776L0.494517 45.1541L0.627555 44.353L1.00932 42.5685L1.21177 41.6604L1.69186 39.7921L1.94058 38.8637L2.47563 37.0879L2.61156 36.657L2.88053 35.8472L3.28542 34.7222L3.51969 34.1119L4.05473 32.8365L4.33238 32.1945L4.94551 30.8843L5.5731 29.5742L6.96422 27.006L7.31706 26.3813L8.03141 25.1926L8.39004 24.6113L9.09572 23.5383L9.44277 23.0177L10.1195 22.098L11.0768 20.9267L11.2561 20.7271L11.583 20.3425L11.742 20.1545L11.9994 19.819L12.118 19.6599L12.28 19.417L12.3841 19.1943V19.1741L12.4506 19.0642L12.4969 18.9976L12.6444 18.8097L12.7253 18.7055L12.9423 18.451L13.0579 18.3151L13.3298 18.0027L13.6161 17.6817L14.3073 16.9211L14.666 16.5307L15.3109 15.8423M184.784 28.5128L185.383 29.5944L186.178 31.1273L186.739 32.2725L186.814 32.4461L186.797 32.4143L186.664 32.1337L186.389 31.5582L186.227 31.2343L184.772 28.4896M179.437 20.5767L179.535 20.6809L179.763 20.9383L179.998 21.2101L180.547 21.9245L180.831 22.3062L181.128 22.7285L180.596 22.0084L180.336 21.6787L179.83 21.0597L179.601 20.8052L179.358 20.5016M176.151 16.6087L176.498 16.9645L177.134 17.6383L177.435 17.9652L177.938 18.5349L178.167 18.801L178.482 19.2059L178.546 19.2926L178.63 19.4257L178.682 19.5529V19.5847L178.661 19.5529L178.572 19.3736L178.129 18.8588L177.727 18.5927L177.531 18.5465L176.926 18.1965L176.776 17.9999L176.712 17.8755L176.596 17.6123L176.553 17.4561L176.356 17.0599L176.128 16.7273L175.969 16.5307L175.625 16.12L175.414 15.8915L175.246 15.7151M20.1986 11.3104L19.6954 11.7615L19.3888 12.0276L19.2587 12.1317L19.0157 12.3226L18.9319 12.3804L18.7873 12.473H18.7641L18.66 12.5222L18.5501 12.6002L18.4778 12.661L18.1452 12.9502L18.0845 13.0051L18.151 12.9415L18.365 12.7477L18.4604 12.661L18.6022 12.5453L18.7265 12.473H18.7554L18.9087 12.3804L18.9984 12.3226L19.2471 12.1317L19.3801 12.0276L19.6925 11.7615L20.1986 11.3104L20.5139 11.0211ZM162.818 6.6222L163.469 6.97215L164.779 7.70964L165.427 8.07984L166.653 8.81444L167.249 9.17885L168.29 9.8585L168.536 10.0205L168.973 10.3299L169.537 10.7551L169.93 11.0674L170.06 11.1715L169.832 10.9922L169.742 10.9199L169.583 10.7927L169.537 10.758L169.007 10.3559L168.591 10.0609L168.354 9.90477L167.339 9.23958L166.752 8.88096L165.534 8.14925L164.886 7.77905L163.576 7.03577L162.922 6.68004L162.515 6.46313M26.7464 6.6598L26.8245 6.61063L26.8303 6.60774M31.0499 4.42418L30.7809 4.51094L30.619 4.57457L30.2748 4.71917L30.0781 4.81172L29.6675 5.01128L29.4419 5.12697L28.4846 5.63887L27.9466 5.94833L26.9951 6.50941L27.9293 5.95701L28.4672 5.64466L29.4216 5.13275L29.6472 5.01417L30.055 4.81462L30.2517 4.72207L30.5929 4.57746L30.752 4.51094L31.0181 4.42707L31.3131 4.37501H31.3333M32.0997 4.16388L31.7903 4.27957L31.663 4.31428L31.4288 4.37212H31.3998L31.6196 4.32006L31.7469 4.28246L32.0708 4.16678L32.6319 3.90938M146.186 1.20523L146.761 1.29199L147.976 1.50891L149.199 1.73738L151.617 2.28978L152.196 2.4315L153.26 2.71782L153.772 2.85953L154.651 3.13139L155.062 3.26732L155.683 3.51315L155.819 3.571L156.033 3.6809L156.161 3.77055L155.938 3.65487L155.085 3.3483L154.443 3.22105H154.191L153.3 3.11982L152.679 2.97522L152.456 2.88267L151.808 2.66287L151.623 2.61659L151.553 2.60792L151.426 2.59635L151.392 2.60213L151.12 2.57321L150.906 2.48355L150.813 2.41993L150.561 2.3187L150.29 2.25508L150.116 2.22615L149.335 2.12204L148.901 2.10179L147.684 1.96586L147.36 1.89934L147.238 1.86175L147.03 1.78655L146.984 1.74895L146.608 1.60724H146.301L146.168 1.6593L145.711 1.65351L145.416 1.47998L145.298 1.31802L145.075 1.04616M72.9366 3.32227L72.7747 3.27022L72.4305 3.15742L72.2367 3.08223L71.8318 2.92027L71.6207 2.82483L71.1117 2.61081L71.5397 2.77855L71.7624 2.87978L72.1876 3.05331L72.3929 3.13428L72.7515 3.25865L72.9193 3.3107L73.1738 3.37144L73.3907 3.37433H73.1796M44.0269 0.618128L43.9112 0.75695L43.6827 0.947831L43.4947 1.02881L43.3762 1.04906L43.1245 1.07798L42.9655 1.0693L42.6329 1.04327L42.4275 1.01146L41.9648 0.956507L41.7074 0.947831L41.6091 0.9594L41.4355 0.988321L41.3835 1.01435L41.3054 1.08087V1.12425L41.2447 1.23415L41.1463 1.30935L41.0682 1.34695L40.7009 1.50023L40.4349 1.57253L39.8564 1.71425L39.5123 1.77209L38.7979 1.88199L38.4133 1.9138L37.8782 1.99478L37.4646 2.07866L37.2362 2.1365L36.276 2.39679L36.1863 2.4286L36.5681 2.29557L37.427 2.01792L38.2976 1.74317L40.0907 1.2544L40.5303 1.1416L41.3893 0.939155L42.6069 0.690431L42.818 0.649941L43.3617 0.577638L43.6538 0.542932L44.3219 0.482197M131.288 1.15896L131.089 1.21101L130.956 1.23415L130.343 1.33248L129.987 1.35851L129.226 1.46263L128.575 1.57832L128.2 1.6564L126.594 2.01214L125.764 2.22326L125.521 2.284L125.721 2.23194L126.548 2.02081L128.139 1.66219L128.509 1.58121L129.151 1.46263L129.897 1.35851L130.23 1.32959L130.898 1.22258L131.054 1.19655L131.317 1.13582L131.375 1.11847M135.12 0.846606L134.95 0.936263L134.64 1.13582L134.484 1.28043L134.099 1.6217L133.92 1.74028L133.854 1.74895L133.723 1.7316L133.657 1.67665L133.524 1.52915L133.437 1.41057L133.029 1.10111L132.653 0.9594L132.497 0.93337L132.847 0.913125L133.067 0.898664L133.57 0.87842L134.091 0.858175L135.184 0.835038M143.285 0.901557L143.542 0.913125L143.991 0.942046L144.555 0.991213L144.635 0.999889L144.578 1.02881L144.317 1.18209L144.129 1.30646L143.672 1.58699L143.461 1.67665L143.375 1.67086L143.207 1.62748L143.117 1.55229L142.92 1.37008L142.787 1.22548L142.385 0.904449L142.276 0.861067M60.6364 0.299993L61.0471 0.32313L61.7759 0.372296L62.1259 0.398325L62.7187 0.456168L63.4302 0.560285L64.3123 0.722245L65.9493 1.07508L66.4988 1.19945L66.2674 1.15028L65.4981 0.991213L65.0585 0.901557L64.1475 0.722245L63.6413 0.626804L63.4302 0.592098L63.0398 0.528472L62.8778 0.508226L62.5828 0.476413L62.4613 0.470629L62.0535 0.479305L61.9176 0.525579L61.6747 0.647049L61.5648 0.748273L61.131 1.07508L60.8909 1.17342L60.7839 1.16474L60.5786 1.10401L60.4802 1.01146L60.2807 0.788764L60.1708 0.615235L59.8237 0.262395M47.6883 0.302885L47.5958 0.372296L47.428 0.525579L47.3789 0.615235L47.0492 1.01146L46.7889 1.15896L46.6587 1.17342L46.4042 1.16185L46.2943 1.09244L46.0977 0.913125L46.0369 0.759842L45.6783 0.444599L45.5048 0.395433H45.5134L45.9328 0.369404L46.8438 0.32313L47.7317 0.28264M56.3589 0.178523L57.4088 0.192984L58.6524 0.227689L58.4962 0.317345L58.369 0.470629L58.0219 0.684647L57.8368 0.736705L57.7182 0.759842L57.4608 0.800332L57.3018 0.817685L56.9634 0.846606L56.7552 0.858175L56.3185 0.87842L56.0582 0.884204L55.5087 0.895772L55.1905 0.898664L54.5166 0.904449H54.132L53.0503 0.901557L52.4343 0.89288L52.1769 0.887096L51.691 0.872635L51.4886 0.861067L51.1155 0.83793L50.968 0.820577L50.6933 0.785871L50.5862 0.765627L50.3983 0.71646L50.3288 0.687539L50.1206 0.560285L50.0859 0.470629L49.9095 0.250826L49.8603 0.219013L50.9131 0.195876L53.1111 0.172739L54.2101 0.164062M126.392 137.393L126.574 137.257L126.959 136.956L127.173 136.774L127.615 136.392L127.844 136.184L129.206 134.972L129.611 134.631L129.62 134.625L129.391 134.825L127.87 136.184L127.638 136.392L127.19 136.774L126.97 136.956L126.583 137.257L126.398 137.393L126.111 137.584L125.845 137.702L126.108 137.584M70.9353 102.861L71.855 102.794L72.2628 102.76L73.0408 102.687L73.3444 102.653L73.6307 102.621L73.7435 102.606L73.9547 102.575L74.027 102.563L74.5505 102.496H74.8628L75.0045 102.52L75.5482 102.67L75.8114 102.844L76.306 103.081L76.7138 103.179L76.9943 103.205L77.2922 103.225L77.4686 103.228L77.8388 103.234L78.0586 103.231L78.5185 103.219L78.7874 103.211L79.3514 103.188L79.6753 103.173L82.4026 103.014L83.2644 102.953L83.6317 102.925L84.3201 102.867L84.5601 102.844L85.4422 102.774L85.8789 102.768L86.038 102.789L86.3243 102.846L86.4284 102.901L86.6164 103.029L86.6916 103.118L86.9143 103.295L87.1197 103.399L87.2411 103.442L87.4002 103.483L86.6714 103.442L86.466 103.431L85.8876 103.407L85.5753 103.393L84.8117 103.37L84.4097 103.358L83.4871 103.335L83.0099 103.324L81.963 103.3L81.4279 103.289L80.2913 103.269L79.7129 103.26L78.5156 103.243L74.8541 103.205L66.0331 103.141L69.5037 102.951L70.9353 102.861Z" fill="#42816C"/>
<path d="M93.2032 159.164L93.9783 159.369L93.8308 159.354L93.6052 159.328L93.2032 159.216L93.0036 159.149L92.6045 158.944L92.3992 158.828L91.9422 158.51L92.7578 159.01M130.905 132.81L130.882 133.097L130.677 133.606L130.165 134.196L130.075 134.259L129.774 134.499L129.612 134.632L129.207 134.974L127.845 136.186L127.617 136.394L127.174 136.776L126.96 136.958L126.575 137.259L126.393 137.394L126.11 137.585L125.847 137.704H125.751L125.491 137.86L125.124 138.233L125.072 138.305L124.794 138.572L124.632 138.722L124.175 139.107L123.932 139.309L123.359 139.763L122.431 140.466L122.113 140.7L121.485 141.172L121.176 141.403L120.615 141.828L120.349 142.031L119.921 142.366L119.498 142.71L119.415 142.783L119.154 142.991L119.013 143.101L118.671 143.358L117.549 144.162L117.457 144.226L117.202 144.408L117.063 144.509L116.722 144.758L116.543 144.891L116.135 145.195L115.921 145.354L115.458 145.701L114.981 146.059L113.922 146.863L112.297 148.116L111.756 148.532L110.701 149.345L110.186 149.738L109.255 150.441L109.035 150.606L108.638 150.904L108.448 151.045L108.118 151.291L107.962 151.404L107.716 151.583L107.45 151.768L107.323 151.855L106.918 152.162L106.698 152.332L106.16 152.775L104.355 154.322L103.791 154.825L102.776 155.693L102.282 156.107L101.382 156.812L100.945 157.142L100.139 157.694L99.7423 157.952L98.9932 158.365L98.6259 158.559L97.9116 158.851L97.5558 158.981L96.8444 159.166L96.4857 159.247L95.8148 159.334L95.9883 159.291L96.9022 159.005L97.3245 158.759L97.9839 158.354L98.4987 158.015L98.7821 157.822L99.9852 156.98L100.627 156.503L101.929 155.525L102.539 155.042L103.141 154.565L103.418 154.337L103.953 153.888L104.187 153.683L105.498 152.567L105.891 152.24L106.05 152.113L106.342 151.878L106.435 151.809L106.623 151.664L106.799 151.531L106.906 151.447L107.392 151.074L107.696 150.837L108.341 150.34L108.696 150.062L109.425 149.495L109.795 149.206L110.9 148.353L111.609 147.821L111.924 147.589L112.52 147.155L112.751 146.996L112.968 146.846L113.052 146.788L113.211 146.687L113.266 146.655L113.648 146.406L113.951 146.184L114.113 146.056L114.778 145.504L115.056 145.238L115.554 144.79L115.947 144.457L116.158 144.289L117.026 143.618L117.39 143.373L119.094 142.184L120.323 141.296L120.936 140.839L122.148 139.934L122.694 139.512L123.226 139.098L123.469 138.907L123.935 138.534L124.137 138.366L125.468 137.27L125.905 136.911L126.095 136.752L126.46 136.455L126.596 136.342L127.521 135.538L127.842 135.249L127.987 135.113L128.265 134.849L128.374 134.739L129.071 134.178L129.291 134.048L129.387 134.008L129.563 133.944H129.627L129.794 133.886L129.925 133.794L129.997 133.727L130.295 133.409L130.439 133.207L130.714 132.787L130.81 132.588L130.879 132.408M120.904 127.356L121.17 127.434L121.315 127.477L121.676 127.605L121.87 127.674L122.312 127.848L122.541 127.937L123.05 128.148L123.571 128.365L124.739 128.886L126.558 129.742L126.769 129.843L126.367 129.658L125.167 129.106L124.586 128.845L123.443 128.342L122.937 128.128L122.446 127.923L122.223 127.833L121.798 127.665L121.615 127.596L121.271 127.472L121.138 127.428L120.892 127.356M69.5369 116.409L69.3604 117.459V117.693L69.3922 117.968L69.3228 117.685L69.3113 117.514V117.164L69.3402 116.99L69.4212 116.641L69.4906 116.464L69.6525 116.114L69.748 115.967M72.2034 114.408L71.8968 114.474L71.4138 114.619L71.1911 114.691L70.8412 114.859L70.6792 114.946L70.633 114.98L70.659 114.954L71.0176 114.726L71.2548 114.639L71.7811 114.48L72.1513 114.408L72.5447 114.335L72.6343 114.321M76.9725 112.875L77.0853 112.944L77.3051 113.127L77.3861 113.274L77.6146 113.494L77.8749 113.575L78.0947 113.584L78.3347 113.589L78.4851 113.584L78.8061 113.569L78.9536 113.557L78.9045 113.563L78.4707 113.607L77.6695 113.688L77.2791 113.728L76.5618 113.803L76.2148 113.841L75.5814 113.913L75.272 113.948L74.7109 114.014L74.4246 114.049L74.6501 114.012L74.8208 113.98L75.431 113.852L75.6364 113.789L75.9863 113.653L76.0817 113.578L76.2321 113.419L76.2495 113.323L76.4317 112.973L76.6255 112.852L76.7383 112.846M84.1161 112.927L84.0872 112.933L84.1392 112.921M84.4487 112.826L84.3561 112.858L84.4776 112.808M84.5586 112.609L84.5875 112.684V112.722L84.5065 112.791L84.4863 112.803L84.5239 112.774L84.5846 112.71L84.5817 112.675L84.5557 112.606M184.534 83.2306L183.961 84.3383L183.12 85.8884L182.825 86.409L182.099 87.5861L181.728 88.1761L180.988 89.2925L180.809 89.5557L180.479 90.0271L180.323 90.2498L180.051 90.6113L179.927 90.7761L179.736 90.9988L179.565 91.1406H179.536L179.452 91.2042L179.406 91.2447L179.299 91.3748L178.949 91.9359L178.92 91.9908L178.799 92.1644L178.729 92.2598L178.527 92.5085L178.417 92.6387L178.148 92.951L178.006 93.113L177.679 93.4745L177.341 93.8476L176.531 94.7037L175.204 96.0572L174.744 96.5141L173.868 97.4107L173.442 97.8503L172.699 98.6399L172.523 98.8278L172.216 99.1633L172.069 99.3282L171.82 99.6058L171.707 99.7389L171.531 99.95L171.363 100.178L171.224 100.398L170.883 100.74L170.799 100.812L170.64 100.91L170.435 100.974H170.316L170.131 101.058L170.007 101.257V101.295L169.888 101.46L169.81 101.552L169.561 101.804L169.422 101.934L169.078 102.238L168.488 102.721L168.072 103.045L167.094 103.825L166.86 104.016L166.42 104.372L165.877 104.823L165.177 105.416L163.58 106.518L163.178 106.781L162.383 107.256L161.99 107.484L161.241 107.877L160.873 108.06L160.214 108.346L159.902 108.476L159.375 108.635L159.132 108.699L159.031 108.702L159.109 108.667L159.213 108.571L159.404 108.352L159.45 108.204L159.734 107.796L160.011 107.626H160.153L160.489 107.53L160.824 107.377L161.035 107.267L161.481 107.021L161.732 106.871L162.25 106.559L162.525 106.382L163.647 105.642L164.173 105.263L164.685 104.884L164.914 104.705L165.347 104.355L165.524 104.196L166.426 103.444L167.039 102.975L167.323 102.781L167.861 102.423L168.069 102.31L168.263 102.209L168.341 102.177L168.477 102.131H168.52L168.673 102.05L168.809 101.925L168.887 101.833L169.226 101.396L169.391 101.118L169.891 100.404L170.041 100.236L170.105 100.187L170.218 100.106H170.255L170.391 100.022L170.556 99.8893L170.672 99.788L170.926 99.5653L171.083 99.4236L171.409 99.12L171.597 98.9464L172.401 98.1829L172.864 97.7404L173.813 96.8178L174.304 96.3348L175.291 95.3602L175.759 94.8917L176.667 93.9748L177.055 93.5757L177.431 93.1853L177.596 93.0147L177.905 92.685L178.032 92.5461L178.267 92.2887L178.348 92.1933L178.489 92.0227L178.521 91.9735L178.77 91.6206L179.042 91.2505L179.215 91.0133L179.588 90.513L179.797 90.2353L180.227 89.6627L180.453 89.3706L181.167 88.3872L181.671 87.6613L181.914 87.2911L182.394 86.5536L182.605 86.2124L183.004 85.5558L183.151 85.2869L183.588 84.5176L183.863 84.0548L183.981 83.8639L184.207 83.514L184.291 83.3983L184.438 83.2045L184.473 83.1843L184.597 83.0455L184.696 82.898M154.314 107.747L154.508 107.854L154.574 107.958L154.678 108.201V108.366L154.855 108.635L154.774 108.629L153.958 108.528L153.516 108.467L152.787 108.343L152.9 108.355L152.995 108.352L153.307 108.323L153.406 108.268L153.579 108.129L153.66 108.016L153.984 107.756L154.213 107.712M158.097 108.288L158.288 108.346L158.346 108.381L158.401 108.424L158.36 108.395L158.288 108.355L158.079 108.294L158.03 108.282M157.417 108.219L157.281 108.213L156.995 108.21L156.486 108.291L156.373 108.317L156.211 108.386L156.217 108.381L156.359 108.314L156.463 108.288L156.963 108.204H157.281M132.843 103.794L133.271 103.901L134.147 104.12L134.619 104.239L136.579 104.722L137.635 104.977L139.781 105.494L140.866 105.755L143.029 106.266L144.058 106.509L145.076 106.747L145.562 106.859L146.019 106.963L145.554 106.859L142.531 106.159L141.736 105.971L140.235 105.613L139.5 105.436L138.118 105.104L137.441 104.939L136.174 104.629L135.556 104.476L134.402 104.19L133.841 104.048L132.796 103.782L132.574 103.724M75.191 102.194L75.4628 102.275L75.5727 102.353L75.7868 102.538L75.9024 102.671L76.2697 103.001L76.5792 103.143L76.8106 103.186L76.8684 103.195L76.7151 103.181L76.3073 103.082L75.8128 102.845L75.5496 102.671L75.0059 102.521L74.8642 102.498H74.5518L74.0283 102.564L73.956 102.576L73.7449 102.608L73.6321 102.622L73.3458 102.654L73.0421 102.689L72.2641 102.761L71.8563 102.796L71.4399 102.825L71.4804 102.816L71.7783 102.744L71.8216 102.706L72.0761 102.588L72.3509 102.501L72.5244 102.46L73.3169 102.298L73.7623 102.246L74.6299 102.168L75.0435 102.165M84.2433 102.698L85.3597 102.761L85.4378 102.776L84.5615 102.845L84.3214 102.868L83.6331 102.926L83.2658 102.955L82.404 103.016L82.0858 103.036V102.998L82.268 102.842L82.5486 102.767L82.751 102.741L83.1848 102.703L83.4393 102.695L83.9657 102.689M124.889 101.127V101.116L124.91 101.173M6.10371 80.6508L6.30906 80.7289H6.28881M5.53975 80.2603L5.76244 80.4368L5.98803 80.5987L6.09215 80.6479L5.97646 80.6016L5.54553 80.2922L5.48769 80.2372L5.36333 80.0666L5.2997 79.9711L5.29392 79.9653M0.278959 61.9589L0.336802 62.0804L0.420673 62.1614L0.626015 62.3407L0.785082 62.465L1.11189 62.7629L1.2565 62.9538L1.2941 63.0521L1.34905 63.2546V63.3732L1.32591 63.619L1.28831 63.7665L1.23047 64.4519L1.2912 64.8944L1.36351 65.0361L1.43292 65.2039L1.48787 65.3745L1.51968 65.4844L1.65851 65.9963L1.73949 66.3289L1.91012 67.0462L1.99978 67.4511L2.17909 68.2898L2.26585 68.7265L2.59845 70.2189L2.88188 71.3439L3.03805 71.9281L3.36197 73.0936L3.52682 73.646L3.85363 74.7103L4.00692 75.1586L4.4176 76.4427L4.6374 77.2005L4.7126 77.5099L4.83985 78.071L4.86299 78.2561L4.88034 78.4209L4.87456 78.473L4.86299 78.5627L4.84274 78.5742L4.72706 78.7593V78.8606L4.68368 78.7709L4.51593 78.3978L4.16309 77.5273L3.98667 77.0761L3.63383 76.1015L3.28388 75.1152L2.691 73.1283L2.56085 72.654L2.35262 71.7922L2.15306 70.6961L2.07497 70.0511L1.87831 68.7468L1.77708 68.1076L1.56596 66.9507L1.51679 66.6789L1.41557 66.1959L1.3664 65.9674L1.27385 65.5828L1.23047 65.4063L1.15238 65.146L1.05116 64.9234L0.981747 64.8308L0.921012 64.4809L0.967286 63.888L1.02513 63.6595L0.981747 63.2719L0.689642 62.8121L0.547927 62.6935L0.368615 62.4448L0.296312 62.3175L0.255822 62.0775L0.25293 61.9618L0.270282 61.9271M188.777 73.056L188.461 74.0162L188.294 74.5137L187.894 75.5895L187.689 76.1362L187.224 77.2901L186.986 77.8743L186.836 78.2243L187.516 76.5642L187.929 75.4623L188.325 74.3864L188.49 73.9063L188.794 72.9953M0.692534 61.5685L0.599986 61.6234L0.342586 61.7998L0.322341 61.8259L0.357046 61.7594L0.672289 61.5367L0.730131 61.5135M1.09165 58.9106L1.11479 59.1044L1.14949 59.5035V59.7117L1.10611 60.5504L1.05983 60.7269L1.08297 60.5042L1.10611 59.7435V59.4138L1.08297 58.928L1.08008 58.8557M1.20733 46.3096L1.13503 47.0529L1.15527 46.7463L1.18709 46.3819L1.25939 45.8642M2.11836 41.7487L1.94483 42.4688L1.61512 43.8773L1.49076 44.5222L1.27964 45.7196L1.29988 45.5779L1.36062 45.1643L1.53125 44.2735L1.62091 43.8194L1.84071 42.8564L2.07497 41.8759L2.36419 40.8637M176.358 17.0614L176.554 17.4576L176.598 17.6138L176.714 17.877L176.777 18.0014L176.928 18.198L177.532 18.548L177.729 18.5942L178.131 18.8603L178.573 19.3751L178.663 19.5544L179.01 20.0663L179.603 20.8067L179.831 21.0612L180.337 21.6802L180.598 22.0099L181.15 22.756L181.431 23.1465L182.015 23.9968L182.307 24.4306L182.906 25.3561L183.501 26.296L184.664 28.2887L186.229 31.2358L186.391 31.5597L186.665 32.1352L186.798 32.4158L187.03 32.9132L187.247 33.3991L187.571 34.2176L187.718 34.6167L187.941 35.3773L188.227 36.6238L188.259 36.7829L188.363 37.2341L188.418 37.4741L188.56 38.0352L189.037 39.8052L189.118 40.0828L189.303 40.8087L189.395 41.1905L189.592 42.0408L189.69 42.4746L189.873 43.3509L190.11 44.5772L190.208 45.1238L189.974 43.9467L189.87 43.5244L189.824 43.3596L189.737 43.0675L189.702 42.9865L189.546 42.5498L189.393 42.0842L189.303 41.7892L189.109 41.1616L189.005 40.8116L188.794 40.0915L188.687 39.7213L187.921 37.2601L187.345 35.6347L187.03 34.8307L186.379 33.2371L186.029 32.4534L185.306 30.8974L184.918 30.1397L184.129 28.6328L183.712 27.904L182.859 26.4551L182.411 25.7581L181.503 24.3785L181.029 23.7191L180.065 22.4176L179.565 21.7987L178.998 21.0641L178.666 20.5956L178.533 20.3932L178.295 20.0085L178.22 19.8639L178.105 19.6094V19.5487L177.957 19.1842L177.737 18.9789L177.598 18.9297L176.985 18.629L176.659 18.3831L176.543 18.2443L176.346 17.958L176.303 17.8105L176.254 17.5097L176.294 17.3622L176.311 17.0498L176.294 16.9689M2.94261 38.8681L3.00335 38.6714L3.04962 38.5326M5.31705 32.2798L5.46744 31.8923L5.82028 31.0825M15.0635 16.133L14.783 16.5495L14.7078 16.723L14.5979 17.0383L14.6268 17.1395L14.5806 17.663L14.4128 18.0447L14.2827 18.2183L13.9963 18.548L13.8344 18.6579L13.5076 18.8372H13.3543L13.0795 19.002L12.9639 19.245V19.3983L12.8106 19.9073L12.585 20.2341L12.4404 20.3382L12.2148 20.5407L12.0326 20.7402L11.9285 20.8675L11.4715 21.4459L11.1997 21.8248L10.6299 22.6403L10.3176 23.1118L9.68128 24.0922L9.35447 24.6186L8.02698 26.805L7.43409 27.8722L6.85856 28.9221L6.61273 29.405L6.1442 30.3363L6.12974 30.3681L6.41896 29.7058L6.89905 28.6357L7.88816 26.6402L8.13688 26.1572L8.63722 25.2462L9.38339 23.9736L9.59741 23.6266L9.98785 22.9758L10.1729 22.6635L10.4824 22.1284L10.6241 21.8826L10.8179 21.524L10.9394 21.2463V21.2174L10.9885 21.1162L11.0203 21.0583L11.1216 20.908L11.5583 20.3845L11.7289 20.2052L12.0904 19.7251L12.504 19.0657L12.5966 18.8835L12.9263 18.5711L13.4787 18.3108L13.6551 18.2848L13.9443 18.146L14.1641 17.877L14.2393 17.1771L14.2422 17.1569L14.2913 17.0643L14.326 17.0123L14.4302 16.8705L14.5487 16.7173L14.916 16.2892L15.1127 16.0636M170.874 11.8122L171.603 12.3819L172.957 13.5359L173.281 13.8193L173.888 14.3746L174.18 14.6465L174.715 15.1671L174.97 15.4216L175.181 15.6443L175.163 15.6356L174.698 15.4736L174.478 15.4997L173.85 15.3898L173.442 15.1584L173.263 14.9849L172.928 14.6002L172.803 14.3688L172.598 13.8887L172.563 13.6313L172.482 13.2698L172.398 13.1079L172.335 13.0616L172.184 12.9922L172.077 12.9835L171.834 12.9806L171.67 13.0009L171.256 13.024L171.074 12.9922L171.016 12.9459L170.923 12.8331L170.903 12.7377L170.874 12.5179V12.3617L170.704 11.7283L170.588 11.5866M21.9352 9.94387L21.8022 10.1319L21.5679 10.5136L21.5101 10.6958L21.2035 11.1701L20.8999 11.2887L20.683 11.2598L20.3706 11.2569L20.2144 11.309L20.1566 11.3668L20.0496 11.5085L20.0091 11.6213L19.9368 11.87L19.905 12.0407L19.7951 12.4774L19.6996 12.6769L19.6302 12.7406L19.4769 12.8476L19.367 12.8736L19.1299 12.9083H18.9708L18.4705 13.0558L18.0511 13.2872L17.814 13.4549L17.3252 13.8164L17.0707 14.0305L16.8248 14.2474L17.2008 13.8656L17.4611 13.6053L17.9268 13.157L18.1466 12.9517L18.4791 12.6625L18.5515 12.6017L18.6614 12.5237L18.7655 12.4745H18.7886L18.9332 12.3819L19.0171 12.3241L19.26 12.1332L19.3902 12.0291L19.6967 11.763L20.2 11.3119L20.5181 11.0169L21.3626 10.3372L21.8109 9.98726L22.1059 9.77034M169.538 10.7595L169.584 10.7942L169.743 10.9214L169.833 10.9937L170.064 11.1759L170.14 11.2367L169.72 10.9879L169.469 10.8086L169.428 10.7595L169.203 10.5252L169.044 10.3835M44.624 0.396935L44.4563 0.495268L44.2972 0.605169L44.2394 0.67458L44.1353 0.824971L44.1121 0.911735L43.9993 1.1807L43.8865 1.31374L43.8084 1.35712L43.6378 1.43232L43.5279 1.44967L43.2879 1.4757L43.1404 1.46992L42.4665 1.50751L41.8939 1.5856L41.5584 1.64923L40.8527 1.79094L40.4651 1.88349L39.664 2.07727L39.2389 2.19006L37.4833 2.6904L36.5926 2.9825L34.8197 3.59564L34.0244 3.91666L32.7663 4.39676L31.9767 4.67151L31.6326 4.77852L30.9847 4.9694L30.7447 5.02146L30.5162 5.07063L30.4294 5.08219L30.2733 5.09665L30.2241 5.09087L29.5994 5.1892L29.2842 5.4466L29.1598 5.67508L28.8937 5.95851L28.5843 6.20434L28.376 6.34895L27.9249 6.64395L27.6646 6.80301L27.1208 7.12693L26.8287 7.29178L25.6198 7.94541L25.0385 8.22016L24.4716 8.48045L24.2142 8.58746L23.7226 8.78123L23.5201 8.84197L23.1615 9.00682L23.3784 8.85354L24.5237 8.08134L25.0992 7.69958L26.2677 6.95919L26.8461 6.60056L27.948 5.94983L28.4859 5.64038L29.4432 5.12847L29.6688 5.01278L30.0795 4.81322L30.2762 4.72068L30.6203 4.57607L30.7823 4.51244L31.0512 4.42568L31.3549 4.37362H31.4301L31.6644 4.31578L31.7916 4.28107L32.1011 4.16539L33.122 3.67372L33.2811 3.58407L33.6628 3.39608L33.8624 3.30064L34.3078 3.10976L34.7647 2.92177L35.7741 2.56604L36.2773 2.39829L37.2375 2.138L37.466 2.08016L37.8796 1.99629L38.4146 1.91531L38.7993 1.88349L39.5136 1.77359L39.8578 1.71575L40.4362 1.57403L40.7023 1.50173L41.0696 1.34845L41.1477 1.31085L41.246 1.23565L41.3067 1.12575V1.08237L41.3848 1.01585L41.4369 0.989823L41.6104 0.960902L41.7088 0.949333L41.9662 0.958009L42.4289 1.01296L42.6342 1.04477L42.9668 1.0708L43.1259 1.07948L43.3775 1.05056L43.4961 1.03031L43.6841 0.949333L43.9126 0.758452L44.0282 0.61963L44.41 0.443209L44.6153 0.373798L44.8438 0.356445M144.935 0.940657L145.068 1.0361L145.299 1.31953L145.418 1.48149L145.713 1.65501L146.17 1.6608L146.303 1.60874H146.609L146.985 1.75045L147.032 1.78805L147.24 1.86325L147.361 1.90085L147.685 1.96736L148.903 2.10329L149.337 2.12354L150.117 2.22766L150.291 2.25658L150.563 2.3202L150.814 2.42143L150.907 2.48506L151.121 2.57471L151.393 2.60363L151.428 2.59785L151.555 2.60942L151.624 2.61809L151.809 2.66437L152.457 2.88417L152.68 2.97672L153.302 3.12133L154.192 3.22255H154.444L155.086 3.3498L155.939 3.65637L156.168 3.77495L156.668 3.96005L157.258 4.0873H157.333L157.565 4.13936L157.695 4.17406L158.025 4.29264L158.204 4.35916L158.623 4.53269L158.84 4.62813L159.332 4.85082L159.841 5.08798L161.018 5.67797L161.625 5.98743L162.924 6.68154L163.155 6.8088L162.86 6.66998L162.186 6.36919L161.935 6.28532L161.703 6.21013L161.614 6.19277L161.458 6.17253L161.408 6.1841L160.853 6.14939L160.379 6.01635L160.127 5.90645L159.618 5.66351L159.384 5.51601L158.938 5.20945L158.776 5.0446L158.366 4.79876L158.071 4.74381L157.961 4.7872L157.683 4.80455L157.406 4.76984L157.232 4.73225L156.46 4.53847L156.046 4.38519L155.228 4.10176L154.618 3.90799L154.291 3.80965L152.932 3.41922L152.232 3.2399L150.838 2.89574L150.207 2.7627L149.594 2.63545L149.316 2.58339L148.787 2.49373L148.564 2.46481L147.517 2.25658L147.254 2.1756L147.162 2.13511L147.011 2.05702L146.991 2.02232L146.682 1.89506H146.346L146.161 1.94134L145.548 1.93266L145.221 1.72732L145.074 1.51619L144.831 1.20384L144.695 1.09105L144.622 1.08237L144.475 1.09394L144.446 1.1084L144.579 1.03031L144.695 0.969578L144.86 0.937764M132.285 0.911735L131.923 0.975362L131.77 1.07659L131.498 1.3282L131.449 1.52198L131.214 1.94423L130.983 2.02232L130.827 1.96158L130.483 1.92977L130.118 1.95001L129.89 1.97604L129.398 2.03967L129.126 2.08883L128.565 2.19295L128.279 2.25658L127.336 2.44457L126.656 2.56025L126.318 2.60942L125.644 2.69907L125.341 2.73089L124.762 2.78295L124.534 2.79162L123.169 2.96226L123.076 2.9854L123.478 2.85525L123.802 2.75692L124.551 2.54579L124.939 2.43878L125.766 2.22476L126.596 2.01364L128.201 1.65791L128.577 1.57982L129.228 1.46413L129.988 1.36002L130.344 1.33399L130.957 1.23565L131.09 1.21252L131.29 1.16046L131.46 1.08237L131.553 0.989823L131.874 0.911735L132.05 0.885706M65.0598 0.903059L65.4994 0.992715L66.2687 1.15178L66.636 1.22987L67.281 1.37158L67.5904 1.44389L68.14 1.57693L68.4031 1.64634L68.8861 1.78227L69.3575 1.92109L70.2194 2.23344L70.5838 2.38672L70.3669 2.31153L70.2049 2.27393L69.9128 2.21898L69.8087 2.22476L69.6294 2.25658L69.5802 2.30574L69.1724 2.45324L68.7849 2.40408L68.5275 2.30285L67.8218 2.07148L67.3504 1.95001L67.1913 1.92687L66.3729 1.77648L65.8812 1.65212L65.6816 1.5856L65.3172 1.44678L65.2015 1.38026L65.0222 1.25012V1.19516L64.8661 0.900166L64.7475 0.842324M143.636 1.61452L143.451 1.68683L143.37 1.67526L143.252 1.63766L143.376 1.67237L143.463 1.67815L143.674 1.58849L143.85 1.47859M62.5842 0.477915L62.8792 0.509728L63.0411 0.529974L63.4316 0.5936L63.6427 0.628306L64.1488 0.723747L64.4525 0.784481L64.198 0.79605L64.0534 0.853892L63.7815 0.995607L63.689 1.11708L63.4576 1.38315L63.3332 1.46124L63.2696 1.44678L63.1395 1.38605L63.0527 1.29639L62.8647 1.08237L62.7346 0.914627L62.4106 0.524189L62.3499 0.472131H62.4627M142.922 1.37158L142.945 1.39183L142.925 1.37448L142.887 1.33399M142.789 1.22698L142.795 1.23276L142.528 1.01874M60.9067 1.16914H60.9096ZM60.6782 1.13443L60.5857 1.11129L60.5828 1.10551M60.5684 1.09394L60.4845 1.01874L60.282 0.793158V0.790266L60.4816 1.01296M142.387 0.905951H142.39L142.262 0.856784M124.855 100.991L124.829 100.93L124.751 100.763L124.661 100.578L124.369 100.063L124.21 99.788L123.805 99.1344L124.21 99.7851L124.369 100.06L124.661 100.572L124.751 100.754L124.829 100.922L124.855 100.982L124.889 101.087V101.101M190.96 49.8553L190.902 48.9848L190.836 48.6262L190.714 47.9726L190.622 47.4433L190.57 47.1541L190.454 46.4889L190.526 46.8996L190.593 47.2669L190.709 47.9031L190.839 48.6262L190.905 48.9848L190.96 49.8553Z" fill="#42816C"/>
<path d="M117.433 69.3736V69.4835L117.445 69.6542L117.468 69.6744L117.529 69.6715L117.587 69.6137L117.72 69.4546L117.818 69.3216L118.107 68.8733L118.223 68.6101L118.24 68.4973L118.249 68.2775L118.211 68.1821L118.107 68.0028L118.009 67.9247L117.786 67.7801L117.627 67.7193L117.28 67.6036L117.057 67.5545L116.58 67.4619L116.288 67.4243L115.675 67.3549L115.313 67.326L114.316 67.2653L113.786 67.2508L113.59 67.2566L113.24 67.2739L113.136 67.2942L112.974 67.3376L112.962 67.3665L112.985 67.4301L113.066 67.4677L113.277 67.5487L113.457 67.5892L113.859 67.6788L113.902 67.6846L113.754 67.6673L113.237 67.6007L112.187 67.4764L111.666 67.4186L110.695 67.3173L110.229 67.2739L109.451 67.2074L109.275 67.193L108.974 67.1756L108.621 67.1611L108.326 67.1554L107.878 67.1149L107.675 67.0917L107.409 67.0194L107.299 66.9818L107.212 66.8806L107.192 66.8257L107.282 66.7013L107.348 66.6348L107.609 66.4902L107.759 66.415L108.184 66.253L108.418 66.1691L109.006 65.9956L110.067 65.7267L111.478 65.3998L114.151 64.6363L114.801 64.4396L116.054 64.0232L116.67 63.8121L117.847 63.3696L118.422 63.1469L119.51 62.6841L120.042 62.4499L120.918 62.0247L120.534 62.233L119.883 62.5482L119.267 62.849L119.021 62.9762L118.573 63.2163L118.422 63.303L118.177 63.4534L118.145 63.4881L118.139 63.5344L118.237 63.5084L118.798 63.332L119.238 63.17L119.481 63.0688L120.499 62.6263L121.02 62.3689L122.049 61.8425L122.48 61.5909L122.896 61.3422L123.067 61.2294L123.382 61.0125L123.492 60.9199L124.218 60.408L124.438 60.2894L124.528 60.2518L124.695 60.194H124.75L125.077 60.113L125.268 59.9944L125.314 59.9192L125.366 59.6271V59.309L125.349 59.1037L125.309 58.6641L125.277 58.4182L125.204 57.915L125.158 57.6547L124.961 56.6164L124.849 56.1942L124.739 55.798L124.684 55.6505L124.574 55.3931L124.525 55.3323L124.201 55.1414L123.831 55.0633L123.533 55.046L123.215 55.0315H123.021H122.61L122.367 55.0344L121.855 55.0489L121.555 55.0605L120.927 55.0836L120.565 55.1009L118.746 55.1877L117.74 55.2369L117.329 55.2571L116.566 55.3005L116.262 55.3207L115.704 55.3583L115.49 55.3757L115.102 55.4104L114.963 55.4278L114.712 55.4654L114.628 55.4856L114.376 55.5724L114.321 55.6273L114.379 55.6649L114.518 55.6852L114.631 55.6938L114.885 55.7054L115.053 55.7112L115.412 55.7199H115.629H116.08H116.334L116.866 55.7141L117.156 55.7083L117.211 55.7054L117.124 55.7112L115.059 55.8934L114.553 55.9455L113.581 56.0611L113.101 56.1219L112.204 56.2549L111.768 56.3243L110.972 56.4718L109.922 56.7061L109.558 56.7986L108.98 56.9288L108.893 56.9461L108.962 56.9172L109.15 56.7581L109.191 56.6801L109.234 56.5239L109.191 56.4747L109.052 56.3966L108.901 56.4111L108.627 56.4284L108.462 56.4313L108.514 56.4024L108.731 56.2838L109.295 56.0062L109.596 55.8616L110.301 55.5463L110.669 55.3844L111.481 55.0431L111.898 54.8696L112.786 54.5196L115.55 53.5074L116.239 53.2731L117.494 52.8191L118.101 52.5935L119.209 52.151L119.744 51.9312L120.71 51.4973L121.176 51.2804L122.009 50.8524L122.411 50.6384L123.119 50.2103L123.46 49.9934L124.053 49.5625L124.337 49.3427L124.823 48.9031L125.442 48.2235L125.63 47.9892L125.899 47.5901L126.017 47.3963L126.17 47.0203L126.208 46.8989L126.136 47.1707L126.063 47.324L125.901 47.6248L125.789 47.7781L125.537 48.1164L125.465 48.2263L125.358 48.4028V48.4433L125.39 48.4953L125.459 48.4866L125.635 48.4519L125.774 48.4143L126.257 48.2206L126.471 48.0152L126.538 47.8301L126.598 47.6306L126.622 47.5033L126.665 47.2286L126.679 47.0579L126.711 46.6935L126.723 46.4708L126.746 45.9994L126.757 45.7189L126.772 44.7847L126.752 44.2901L126.726 44.1051L126.662 43.7667L126.616 43.6481L126.509 43.4428L126.436 43.3849L126.211 43.2808L125.988 43.2316L125.846 43.2172L125.537 43.194L125.355 43.1911H124.97L124.753 43.1998L123.825 43.2548L123.287 43.3097L122.168 43.4428L121.566 43.5353L119.076 43.9604L117.87 44.241L116.684 44.5273L116.143 44.6835L115.102 44.9987L114.665 45.1636L113.954 45.4412L113.593 45.5945L113.468 45.6552L113.254 45.7651L113.205 45.7998L113.138 45.8635L113.159 45.8779L113.234 45.8953L113.324 45.8837L113.54 45.849L113.702 45.8143L114.058 45.7275L114.287 45.6668L114.775 45.528L115.07 45.4383L117.381 44.8136L118.917 44.4724L119.666 44.3393L121.144 44.1051L121.419 44.0761L121.291 44.0935L119.429 44.4116L118.975 44.4955L118.11 44.6777L116.936 44.9611L116.757 45.0103L116.326 45.126L116.097 45.1896L115.582 45.3284L115.05 45.4759L113.824 45.8143L113.193 45.9878L111.883 46.3522L109.995 46.8815L109.439 47.0377L108.427 47.3066L107.935 47.4339L107.056 47.645L106.631 47.7434L105.882 47.8995L105.526 47.9689L104.907 48.0644L104.615 48.1049L104.132 48.1425L103.907 48.154L103.554 48.1338L103.395 48.1164L103.175 48.0384L102.996 47.8561L102.99 47.8359L103.048 47.7463L103.085 47.6942L103.227 47.5409L103.308 47.457L103.525 47.2488L103.641 47.1389L103.921 46.8844L104.219 46.6212L104.962 45.9878L105.353 45.6581L106.226 44.9409L107.117 44.2178L108.954 42.8007L109.39 42.471L110.177 41.8984L111.152 41.2332L111.319 41.129L111.805 40.7704L112.068 40.5709L112.708 40.059L113.043 39.7871L113.783 39.1682L114.159 38.85L114.946 38.1704L115.736 37.485L117.231 36.1257L117.578 35.8017L118.188 35.2175L118.917 34.4771L119.088 34.2949L119.365 33.9913L119.495 33.8495L119.698 33.6153L119.79 33.5054L119.926 33.3261L119.984 33.2422L120.039 33.1352L120.025 33.1988L119.955 33.329L119.831 33.5661L119.802 33.6413L119.764 33.757L119.785 33.7743L119.854 33.783L119.929 33.7512L120.114 33.6644L120.256 33.5892L120.675 33.2277L120.785 32.9472L120.756 32.7968L120.646 32.4873L120.51 32.3312L120.187 32.0217L119.947 31.8742L119.553 31.6197L119.226 31.397L119.041 31.2669L118.272 30.7174L117.922 30.4513L117.225 29.9625L116.849 29.7485L116.676 29.6907L116.334 29.601L116.149 29.5952L115.765 29.6039L115.527 29.6328L114.663 29.8121L114.428 29.8873L114.342 29.9249L114.188 30.0001L114.154 30.0348L114.128 30.1274L114.191 30.1707L114.261 30.1823L114.417 30.1997H114.527L114.767 30.1881L114.911 30.1707L115.091 30.165L114.767 30.2228L114.451 30.2922L113.708 30.5409L113.318 30.6855L112.421 31.0789L111.956 31.2958L110.903 31.8395L110.356 32.1316L109.142 32.8286L108.514 33.1959L107.131 34.0462L106.42 34.4916L104.864 35.5009L102.331 37.1957L101.408 37.8233L99.7016 38.9513L98.8687 39.4921L97.3272 40.4581L96.5723 40.9208L95.1609 41.7422L94.4697 42.1355L93.1625 42.8238L92.5204 43.1535L91.2884 43.7291L90.6781 44.0038L89.4895 44.4752L88.8995 44.7008L87.7282 45.0884L85.9553 45.5916L85.588 45.6842L84.9575 45.8201L84.6567 45.8779L84.1651 45.9387L83.9366 45.9618L83.5809 45.9531L83.4189 45.9387L83.1991 45.8548L83.1065 45.8027L83.0198 45.6466L82.9938 45.5598L83.04 45.3255L83.0805 45.2012L83.2598 44.8946L83.6705 44.3451L83.7978 44.1947L84.1043 43.7378L84.2634 43.489L84.6162 42.873L84.7984 42.5462L85.1773 41.8145L85.3682 41.4385L85.7528 40.6374L86.1317 39.8276L86.8143 38.1964L86.9733 37.8031L87.2394 37.0714L87.5489 36.0996L87.7021 35.5414L87.8872 34.4424L87.9595 33.8958L87.9856 32.7968L87.9769 32.2444L87.841 31.128L87.4621 29.4419L87.5431 29.7109L87.6414 30.1852L87.7368 30.6335L87.786 30.8302L87.8786 31.209L87.9219 31.3623L88.0029 31.6342L88.0347 31.7209L88.0926 31.8511H88.1099L88.1591 31.7759L88.1678 31.6515L88.162 31.5561L88.1446 31.3507L88.1244 31.2177L88.081 30.9372L88.0521 30.7723L87.9046 30.0608L87.8034 29.6415L87.5807 28.771L87.4447 28.3082L87.17 27.4435L87.008 27.0559L86.9213 26.9373L86.7477 26.7465L86.6407 26.7031L86.4094 26.6452H86.259L85.7471 26.7609L85.5562 26.9402V27.0704L85.6719 27.3307L85.8425 27.3856L85.9611 27.3393L86.1867 27.3191L86.3399 27.3683L86.418 27.4203L86.4238 27.4261L86.1606 27.3451L85.6053 27.4868L85.562 27.51L85.3942 27.6459L85.2988 27.7269L85.0385 27.964L84.8997 28.0971L84.5584 28.4268L84.3791 28.6032L83.9713 29.011L83.7573 29.225L83.2916 29.7022L83.0545 29.9481L82.5426 30.4773L82.022 31.0181L80.897 32.2097L80.3272 32.817L79.1732 34.0607L78.6006 34.6796L77.5161 35.874L76.9897 36.4582L76.0671 37.5023L75.8502 37.751L75.4655 38.2022L74.9681 38.798L74.3376 39.5702L73.1171 41.2158L72.5213 42.0487L71.3992 43.7609L70.8555 44.6199L69.875 46.3349L68.6083 48.8424L68.3306 49.4468L67.8592 50.4649L67.6336 50.945L67.2519 51.7461L67.0697 52.122L66.7486 52.7468L66.5954 53.0417L66.3119 53.5334L66.0372 53.999L65.4935 54.7047L64.4986 55.7604L64.2903 55.9657L63.8536 56.3504L63.6222 56.5441L63.0756 56.9403L62.7777 57.1428L62.0316 57.5969L61.8291 57.7154L61.3693 57.9699L61.1292 58.103L60.5913 58.3893L60.3136 58.5368L59.6832 58.8578L59.3564 59.0256L58.6275 59.3871L58.2487 59.5751L57.4042 59.9858L56.9675 60.1998L56.0015 60.6625L55.5011 60.9026L54.3992 61.426L53.8324 61.695L52.5859 62.2821L51.9438 62.5829L50.5411 63.2423L48.2477 64.3153L46.9433 64.9255L44.4156 66.0939L43.1633 66.6695L40.7339 67.7772L39.5308 68.3209L37.1882 69.3707L36.0255 69.8855L33.7581 70.8804L31.508 71.8638L27.1872 73.6916L20.8823 76.2627L20.1564 76.5519L18.8173 77.0841L18.1666 77.3415L16.9664 77.8158L16.3822 78.0471L15.3121 78.4665L14.7944 78.669L13.8487 79.0363L13.3888 79.2156L12.5617 79.5337L12.1597 79.687L11.4424 79.9588L11.0953 80.089L10.4764 80.3146L10.1814 80.4245L9.65796 80.6096L9.40634 80.6963L8.97252 80.8438L8.76429 80.9133L8.40855 81.0231L8.07018 81.1215L7.60454 81.2256L7.40209 81.2632L7.15915 81.2545L6.98563 81.1359L6.94224 81.0231L6.74847 80.8467L6.40431 80.7282H6.30887L6.09485 80.6501L5.98784 80.598L5.76225 80.436L5.53956 80.2596L5.13755 79.7738L4.95824 79.525L4.75579 79.0478L4.72398 78.9379L4.72687 78.7586L4.84256 78.5735L4.8628 78.5619L4.87437 78.4723L4.88015 78.4202L4.8628 78.2554L4.83966 78.0703L4.71241 77.5092L4.63721 77.1997L4.41741 76.442L4.00673 75.1579L3.85345 74.7096L3.52664 73.6453L3.36178 73.0929L3.03787 71.9274L2.88169 71.3432L2.59826 70.2181L2.26567 68.7258L2.1789 68.2891L1.99959 67.4504L1.90993 67.0455L1.7393 66.3282L1.65832 65.9956L1.5195 65.4837L1.48768 65.3738L1.43273 65.2032L1.36332 65.0354L1.29102 64.8937L1.23028 64.4512L1.28813 63.7658L1.32572 63.6183L1.34886 63.3725V63.2539L1.29391 63.0514L1.25631 62.9531L1.11171 62.7622L0.784895 62.4643L0.625827 62.34L0.420486 62.1606L0.336614 62.0797L0.278771 61.9582L0.267203 61.9032L0.342398 61.7991L0.599798 61.6227L0.692346 61.5678L0.842737 61.348L0.909256 61.2236L1.01337 60.8968L1.10592 60.5497L1.1493 59.711V59.5028L1.1146 59.1037L1.09146 58.9099L1.01048 58.5715L0.964207 58.4124L0.836953 58.1753L0.594014 57.9815L0.481221 57.9526L0.319261 57.782L0.284556 57.7212L0.226713 57.5477L0.200684 57.4494L0.160194 57.1775L0.139949 57.03L0.108136 56.6396L0.0936749 56.4284L0.0734301 55.8992L0.0647535 55.6157L0.0474009 54.9216L0.030048 53.6722L0.0242638 53.1892L0.0155872 52.3794L0.0126953 52.0006L0.0155872 51.3788V51.0896L0.030048 50.6268L0.0387245 50.4157L0.0705379 50.086L0.0878905 49.9385L0.134165 49.7158L0.163086 49.6146L0.232497 49.47L0.541955 49.1981L0.64318 49.1403L0.802247 48.9957L0.874551 48.9147L0.978667 48.7064L1.02205 48.5908L1.077 48.3015L1.10592 47.7578V47.3385L1.20715 46.3089L1.27077 45.7651L1.49057 44.5215L1.61494 43.8766L1.94464 42.4681L2.11817 41.748L2.54042 40.2209L2.76022 39.4487L3.26056 37.8523L3.52085 37.0511L4.08771 35.4344L4.37692 34.6275L4.99584 33.0369L5.9676 30.7318L6.14401 30.3356L6.61254 29.4043L6.85837 28.9213L7.43391 27.8715L8.02679 26.8043L9.35428 24.6178L9.68109 24.0915L10.3174 23.111L10.6297 22.6396L11.1995 21.824L11.4713 21.4452L11.9283 20.8667L12.0324 20.7395L12.2146 20.5399L12.4402 20.3375L12.5848 20.2334L12.8104 19.9066L12.9637 19.3975V19.2443L13.0793 19.0013L13.3541 18.8365H13.5074L13.8342 18.6572L13.9962 18.5473L14.2825 18.2176L14.4126 18.044L14.5804 17.6623L14.6266 17.1388L14.5977 17.0376L14.7076 16.7223L14.7828 16.5488L15.0634 16.1323L15.2195 15.9125L15.6244 15.4382L15.8384 15.1982L16.3185 14.7152L16.5644 14.4751L17.0705 14.0297L17.325 13.8157L17.8138 13.4542L18.0509 13.2865L18.4703 13.0551L18.9706 12.9076H19.1297L19.3668 12.8729L19.4767 12.8469L19.63 12.7399L19.6994 12.6762L19.7949 12.4767L19.9048 12.04L19.9366 11.8693L20.0089 11.6206L20.0494 11.5078L20.1564 11.3661L20.2142 11.3082L20.3704 11.2562L20.6828 11.2591L20.8997 11.288L21.2033 11.1694L21.5099 10.6951L21.5678 10.5129L21.802 10.1311L21.9351 9.94316L22.2821 9.59032L22.4672 9.41968L22.8808 9.13915L23.5199 8.84125L23.7224 8.78052L24.2141 8.58675L24.4715 8.47974L25.0383 8.21945L25.6196 7.94469L26.8285 7.29107L27.1206 7.12622L27.6644 6.8023L27.9247 6.64323L28.3758 6.34823L28.5841 6.20363L28.8935 5.9578L29.1596 5.67437L29.284 5.44589L29.5992 5.18849L30.2239 5.09016L30.2731 5.09594L30.4292 5.08148L30.516 5.06991L30.7445 5.02075L30.9845 4.96869L31.6324 4.77781L31.9765 4.6708L32.7661 4.39604L34.0242 3.91595L34.8195 3.59492L36.5924 2.98179L37.4832 2.68968L39.2387 2.18935L39.6638 2.07655L40.4649 1.88278L40.8525 1.79023L41.5582 1.64852L41.8937 1.58489L42.4663 1.5068L43.1402 1.4692L43.2877 1.47499L43.5277 1.44896L43.6376 1.43161L43.8082 1.35641L43.8863 1.31303L43.9991 1.17999L44.1119 0.911022L44.1351 0.824258L44.2392 0.673867L44.297 0.604456L44.4561 0.494555L44.6238 0.396222L45.049 0.318134L45.2601 0.303674L45.6563 0.402007L45.7431 0.436712L45.8906 0.543721L46.0381 0.760631L46.0988 0.913914L46.2955 1.09323L46.4054 1.16264L46.6599 1.17421L46.79 1.15975L47.0503 1.01225L47.38 0.616024L47.4292 0.526368L47.5969 0.373085L47.6895 0.303674L47.9295 0.193773L48.1812 0.0925482L48.7798 0.0144605L49.0777 0L49.607 0.104116L49.7256 0.141715L49.9107 0.251615L50.0871 0.471418L50.1218 0.561074L50.33 0.688328L50.3994 0.717249L50.5874 0.766416L50.6944 0.78666L50.9692 0.821366L51.1167 0.838719L51.4898 0.861856L51.6922 0.873424L52.1781 0.887885L52.4355 0.893669L53.0515 0.902346L54.1332 0.905238H54.5178L55.1917 0.899453L55.5098 0.896561L56.0593 0.884993L56.3196 0.879209L56.7563 0.858964L56.9646 0.847395L57.3029 0.818474L57.462 0.801121L57.7194 0.760631L57.838 0.737494L58.0231 0.685436L58.3701 0.471418L58.4974 0.318134L58.804 0.141715L58.963 0.0723034L59.3014 0.0578424L59.4691 0.0723034L59.7815 0.219802L60.1719 0.616024L60.2818 0.792445L60.4843 1.01803L60.5855 1.11058L60.7966 1.16264L60.9065 1.16842L61.1582 1.05563L61.6238 0.697004L61.7539 0.575535L61.9419 0.43382L62.0316 0.378869L62.1762 0.370193L62.2485 0.384654L62.4104 0.523476L62.7344 0.913914L62.8645 1.08166L63.0525 1.29568L63.1393 1.38533L63.2694 1.44607L63.333 1.46053L63.4574 1.38244L63.6888 1.11636L63.7813 0.994894L64.0532 0.853179L64.1978 0.795337L64.4957 0.780876L64.6374 0.789553L64.8659 0.899453L65.022 1.19445V1.2494L65.2014 1.37955L65.317 1.44607L65.6814 1.58489L65.881 1.65141L66.3727 1.77577L67.1911 1.92616L67.3502 1.9493L67.8216 2.07077L68.5273 2.30214L68.7847 2.40336L69.1723 2.45253L69.58 2.30503L69.6292 2.25586L69.8085 2.22405L69.9126 2.21827L70.2047 2.27322L70.3667 2.31082L70.7745 2.45253L71.5149 2.76488L71.7405 2.869L72.1714 3.04542L72.3796 3.12929L72.744 3.25365L72.9147 3.3086L73.1721 3.36934L73.3919 3.37512L73.415 3.36066L73.5076 3.36644L73.5625 3.37512L73.7216 3.4214L73.8951 3.47345L74.407 3.68747L74.6847 3.80605L75.3672 4.13286L75.7229 4.30639L76.524 4.71707L77.3454 5.14222L79.1125 6.13422L79.5492 6.38294L80.3879 6.88328L81.5419 7.60921L81.7096 7.71911L82.1203 8.00254L82.3372 8.15582L82.8376 8.51444L83.095 8.70243L83.6618 9.12468L83.9539 9.34159L84.57 9.81012L85.1976 10.2873L86.5164 11.3227L88.4483 12.8787L89.073 13.3906L90.2675 14.3508L90.8575 14.8193L91.9709 15.684L92.5146 16.1034L93.5269 16.8611L94.0186 17.2227L94.9093 17.856L95.3374 18.1568L96.0864 18.6543L96.4422 18.8856L97.0351 19.2327L97.3098 19.386L97.7234 19.5711L98.1225 19.6549L98.1543 19.6492L98.2989 19.5479L98.3828 19.4872L98.6286 19.2848L98.7617 19.172L99.0971 18.8799L99.2736 18.7237L99.6842 18.3506L99.8983 18.1568L100.37 17.7172L100.613 17.4887L101.136 16.9942L102.831 15.3514L103.511 14.6834L104.818 13.4513L105.46 12.8555L106.666 11.7912L107.253 11.2851L108.314 10.429L108.569 10.2295L109.046 9.87375L109.705 9.4139L110.116 9.13915L111.019 8.57518L111.478 8.29175L112.453 7.722L113.436 7.15225L115.441 6.09084L115.932 5.83922L116.869 5.38226L117.326 5.16246L118.168 4.78648L118.573 4.60717L119.276 4.33242L120.129 4.05766L120.522 3.96222L121.335 3.68169L121.523 3.61228L121.852 3.47056L122.22 3.27968L122.309 3.22184L122.604 3.10904L122.766 3.05699L123.168 2.96155L124.533 2.79091L124.762 2.78223L125.34 2.73018L125.644 2.69836L126.318 2.6087L126.656 2.55954L127.336 2.44385L128.279 2.25586L128.565 2.19224L129.126 2.08812L129.398 2.03895L129.89 1.97533L130.118 1.9493L130.483 1.92905L130.827 1.96087L130.983 2.0216L131.214 1.94351L131.449 1.52126L131.498 1.32749L131.77 1.07587L131.923 0.974649L132.319 0.905238L132.522 0.893669L132.929 1.01225L133.438 1.41136L133.525 1.52994L133.658 1.67744L133.725 1.73239L133.855 1.74974L133.921 1.74106L134.101 1.62249L134.485 1.28122L134.641 1.13661L134.951 0.937052L135.122 0.847395L135.61 0.743278L135.752 0.723034L136.105 0.69122L136.296 0.676759L136.761 0.659406L137.01 0.65073L137.612 0.642054L138.696 0.636269H139.098L139.775 0.639161H140.096L140.622 0.65073L140.871 0.656514L141.273 0.679651L141.461 0.69122L141.759 0.725925L142.04 0.766416L142.389 0.90813L142.794 1.23205L142.925 1.37376L143.118 1.55308L143.211 1.62538L143.37 1.67455L143.451 1.68611L143.636 1.61381L144.006 1.37955L144.159 1.27254L144.376 1.14528L144.475 1.09323L144.622 1.08166L144.694 1.09033L144.83 1.20313L145.073 1.51548L145.221 1.7266L145.548 1.93195L146.161 1.94062L146.346 1.89435H146.681L146.991 2.0216L147.011 2.05631L147.161 2.1344L147.254 2.17488L147.517 2.25586L148.564 2.4641L148.787 2.49302L149.316 2.58268L149.594 2.63473L150.207 2.76199L150.837 2.89503L152.231 3.23919L152.931 3.4185L154.291 3.80894L154.617 3.90727L155.228 4.10105L156.046 4.38448L156.46 4.53776L157.232 4.73153L157.405 4.76913L157.683 4.80384L157.961 4.78648L158.071 4.7431L158.366 4.79805L158.776 5.04388L158.938 5.20873L159.384 5.5153L159.618 5.6628L160.127 5.90574L160.379 6.01564L160.853 6.14868L161.408 6.18338L161.457 6.17181L161.613 6.19206L161.703 6.20941L161.935 6.28461L162.186 6.36848L162.86 6.66926L163.219 6.83701L164.052 7.26504L164.477 7.48774L165.376 7.99386L165.827 8.25126L166.709 8.78052L167.14 9.0466L167.915 9.55561L168.283 9.80144L168.864 10.2382L168.994 10.3394L169.202 10.5245L169.428 10.7587L169.469 10.8079L169.72 10.9872L170.223 11.2851L170.432 11.3921L170.703 11.7276L170.874 12.361V12.5172L170.903 12.737L170.923 12.8324L171.016 12.9452L171.074 12.9915L171.256 13.0233L171.669 13.0001L171.834 12.9799L172.077 12.9828L172.184 12.9915L172.335 13.0609L172.398 13.1072L172.482 13.2691L172.563 13.6306L172.598 13.888L172.803 14.3681L172.927 14.5995L173.263 14.9841L173.442 15.1577L173.85 15.389L174.478 15.4989L174.697 15.4729L175.163 15.6349L175.392 15.7448L175.796 16.0947L175.979 16.2827L176.222 16.7194L176.268 16.8293L176.311 17.0491L176.294 17.3615L176.253 17.509L176.303 17.8098L176.346 17.9573L176.543 18.2436L176.658 18.3824L176.985 18.6282L177.598 18.929L177.737 18.9782L177.957 19.1835L178.104 19.5479V19.6087L178.22 19.8632L178.295 20.0078L178.532 20.3924L178.665 20.5949L178.998 21.0634L179.565 21.798L180.065 22.4169L181.028 23.7184L181.503 24.3778L182.411 25.7573L182.859 26.4544L183.712 27.9033L184.129 28.6321L184.918 30.1389L185.306 30.8967L186.029 32.4526L186.379 33.2364L187.03 34.83L187.345 35.634L187.92 37.2594L188.687 39.7206L188.794 40.0908L189.005 40.8109L189.109 41.1609L189.303 41.7885L189.392 42.0835L189.546 42.5491L189.702 42.9858L189.737 43.0668L189.823 43.3589L189.87 43.5237L189.974 43.946L190.272 45.4441L190.361 45.9618L190.569 47.1534L190.622 47.4426L190.714 47.9718L190.836 48.6255L190.902 48.9841L190.96 49.8546L190.969 50.0657L190.963 50.4677L190.922 50.9797L190.891 51.185L190.873 51.5176V51.6767L190.925 51.9398L190.96 52.0671L191.087 52.2985L191.376 52.6426L191.533 52.7988L191.764 53.2934L191.868 53.5565L191.975 54.1379L192.013 54.4242L191.975 54.9274L191.958 55.0373L191.885 55.2195L191.732 55.4017L191.614 55.474L191.452 55.7372L191.382 55.8847L191.327 56.252L191.316 56.4429L191.371 56.8536L191.585 57.4609L191.741 57.7617L191.917 58.4009L191.981 58.719V59.3379L191.958 59.6387L191.784 60.1651L191.336 60.7724L191.188 60.8939L190.995 61.0848L190.914 61.1773L190.844 61.3653L190.824 61.4665L190.867 61.721L191.041 62.2445L191.107 62.4209L191.191 62.7102L191.226 62.8461L191.246 63.0688L191.064 63.5836L190.974 63.6935L190.812 64.0955L190.671 64.7636L190.662 64.8793L190.601 65.2784L190.564 65.5011L190.454 66.0737L190.393 66.3774L190.246 67.0773L190.168 67.4388L189.997 68.2139L189.818 69.0005L189.433 70.5941L189.337 70.9788L189.155 71.6931L188.898 72.6302L188.794 72.9946L188.49 73.9056L188.325 74.3857L187.929 75.4616L187.515 76.5635L186.57 78.8772L186.335 79.4354L185.881 80.4707L185.662 80.9653L185.268 81.8069L185.173 82.0007L185.002 82.3391L184.921 82.4981L184.779 82.7555L184.71 82.8741L184.597 83.0448L184.473 83.1836L184.438 83.2038L184.291 83.3976L184.207 83.5133L183.981 83.8632L183.863 84.0541L183.588 84.5168L183.151 85.2862L183.004 85.5551L182.605 86.2116L182.393 86.5529L181.913 87.2904L181.67 87.6606L181.167 88.3865L180.453 89.3699L180.227 89.662L179.796 90.2346L179.588 90.5122L179.215 91.0126L179.041 91.2497L178.77 91.6199L178.521 91.9728L178.489 92.0219L178.347 92.1926L178.266 92.288L178.032 92.5454L177.905 92.6842L177.595 93.0139L177.431 93.1846L177.055 93.575L176.667 93.9741L175.759 94.8909L175.29 95.3595L174.304 96.3341L173.812 96.8171L172.864 97.7397L172.401 98.1822L171.597 98.9457L171.409 99.1192L171.082 99.4229L170.926 99.5646L170.672 99.7873L170.556 99.8885L170.391 100.022L170.255 100.105H170.218L170.105 100.186L170.041 100.236L169.891 100.403L169.39 101.118L169.226 101.395L168.887 101.832L168.809 101.925L168.673 102.049L168.52 102.13H168.477L168.341 102.176L168.262 102.208L168.069 102.309L167.86 102.422L167.323 102.781L167.039 102.974L166.426 103.443L165.524 104.195L165.347 104.354L164.913 104.704L164.685 104.883L164.173 105.262L163.647 105.641L162.525 106.381L162.25 106.558L161.732 106.87L161.48 107.021L161.035 107.266L160.824 107.376L160.488 107.53L160.153 107.625H160.011L159.734 107.796L159.45 108.203L159.404 108.351L159.213 108.571L159.109 108.666L158.875 108.767L158.759 108.799L158.571 108.756L158.438 108.493V108.452L158.345 108.38L158.288 108.345L158.097 108.287L157.281 108.203H156.963L156.463 108.287L156.358 108.313L156.217 108.38L156.124 108.493V108.571L155.913 108.698L155.401 108.782H155.181L154.875 108.669L154.678 108.365V108.201L154.574 107.958L154.508 107.853L154.314 107.746L154.213 107.712L153.984 107.755L153.66 108.015L153.579 108.128L153.406 108.267L153.307 108.322L152.995 108.351L152.899 108.354L152.665 108.334L152.538 108.322L152.22 108.276L152.052 108.25L151.636 108.175L150.887 108.036L150.704 108.001L150.218 107.903L149.955 107.848L149.322 107.709L148.986 107.637L148.226 107.466L147.83 107.376L146.962 107.18L146.517 107.078L145.562 106.859L145.076 106.746L144.058 106.509L143.029 106.266L140.865 105.754L139.781 105.494L137.635 104.976L136.579 104.721L134.618 104.238L134.147 104.12L133.271 103.9L132.843 103.793L132.07 103.596L131.697 103.501L131.049 103.33L130.24 103.113L129.707 102.966L128.788 102.705L128.351 102.581L127.611 102.361L127.261 102.257L126.679 102.072L126.408 101.982L125.971 101.826L125.768 101.751L125.462 101.618L125.323 101.552L125.126 101.436L125.042 101.378L124.944 101.271L124.889 101.115V101.086L124.854 100.982L124.828 100.921L124.75 100.753L124.661 100.571L124.369 100.059L124.21 99.7844L123.805 99.1337L123.119 98.0752L122.758 97.5343L121.916 96.4238L121.474 95.8656L120.482 94.7261L119.964 94.1505L118.824 92.9821L118.234 92.395L116.953 91.2064L116.297 90.6106L114.88 89.4046L114.156 88.803L112.615 87.5883L111.828 86.9809L110.162 85.7634L107.536 83.9355L106.836 83.467L105.596 82.6398L105 82.2436L103.959 81.5611L103.499 81.2632L104.786 82.0903L105.573 82.608L107.166 83.6752L107.973 84.2305L109.578 85.344L110.339 85.8877L111.825 86.9636L112.476 87.4553L113.112 87.9411L113.399 88.1667L113.948 88.6034L114.188 88.803L114.738 89.2599L114.987 89.4624L115.464 89.8471L115.672 90.0119L116.062 90.3185L116.221 90.4399L116.516 90.6626L116.623 90.7349L116.809 90.8622L116.855 90.8853L116.916 90.9056L116.898 90.8738L116.826 90.7841L116.736 90.6916L116.516 90.4804L116.349 90.3243L115.53 89.6012L114.9 89.0691L114.55 88.7827L113.827 88.1985L113.433 87.892L112.632 87.2644L112.21 86.9433L110.469 85.6274L109.558 84.9593L107.721 83.629L106.819 82.9927L105.035 81.752L104.213 81.2025L103.409 80.6674L103.036 80.4245L102.305 79.9531L101.975 79.7477L101.339 79.3573L101.061 79.1953L100.537 78.8945L100.323 78.7846L99.9301 78.5909L99.7913 78.5388L99.5454 78.4636L99.4876 78.4752L99.2822 78.6285L99.1492 78.8367L99.0885 78.9813L98.9728 79.2937L98.9207 79.4816L98.8253 79.8663L98.7877 80.0774L98.6633 80.9508L98.6518 81.3702L98.6546 81.7809L98.672 81.966L98.7183 82.3188L98.7588 82.4634L98.8687 82.7093L98.9323 82.7035L98.9641 82.608L99.0248 82.3535L99.0538 82.1279L99.1174 81.6045L99.155 81.2343L99.2417 80.4621L99.3083 79.9964L99.3401 79.8027L99.3603 79.6928L99.3372 79.8432L99.3083 80.0456L99.2562 80.5257L99.1984 81.3239L99.1723 81.7578L99.1897 82.5849L99.2099 82.9927L99.3256 83.7909L99.395 84.19L99.6264 84.9883L99.7565 85.3932L100.112 86.2232L100.309 86.6484L100.806 87.542L101.075 87.999L101.729 88.9852L102.079 89.4942L102.903 90.6048L104.343 92.4413L104.56 92.7074L104.939 93.1875L105.119 93.4188L105.434 93.8324L105.581 94.0291L105.83 94.3819L105.949 94.5497L106.142 94.8476L106.319 95.1339L106.515 95.5619L106.602 96.0507L106.585 96.2155L106.513 96.444L106.466 96.5452L106.267 96.6725L106.145 96.7245L105.729 96.7911L105.607 96.8026L105.307 96.8258L104.763 96.8576L104.294 96.8836L103.195 96.8431L102.623 96.8084L101.353 96.658L100.699 96.5684L99.3054 96.3225L98.5968 96.1866L97.1276 95.854L95.6468 95.4983L92.6708 94.5844L91.9391 94.3443L90.5364 93.8208L88.5669 92.9937L87.8178 92.6524L86.1722 91.9612L85.3364 91.6141L83.578 90.9374L82.6959 90.6048L80.9143 89.9714L80.0293 89.6648L78.3114 89.1038L77.4669 88.8348L75.8993 88.375L75.1445 88.158L73.8141 87.8255L73.4989 87.7503L72.932 87.6317L72.6573 87.5767L72.1801 87.4986L71.9545 87.4668L71.5756 87.4321L71.1331 87.4379L70.9943 87.4553L70.7427 87.568L70.6154 87.6404L70.3667 87.8978L70.2394 88.0481L69.956 88.4906L69.4557 89.4046L69.3255 89.662L69.0855 90.1565L68.9698 90.3966L68.8946 90.5643L68.912 90.5094L68.9062 90.4689L68.8744 90.4081L68.831 90.4052L68.7269 90.4226L68.6459 90.4544L68.3538 90.6395L68.2034 90.8101L68.1484 90.9114L67.9923 91.3625L68.0009 91.6055L68.0732 92.0827L68.1947 92.2764L68.3306 92.4586L68.4174 92.5281L68.6083 92.6466L68.724 92.6785L69.1549 92.7855L69.2908 92.8028L69.5048 92.8173L69.5338 92.7884L69.5395 92.7016L69.4672 92.6177L69.2706 92.421L69.0999 92.2793L68.7529 91.9554L68.6141 91.7703L68.6083 91.753L68.6575 91.8137L68.7529 91.9207L69.0595 92.2013L69.2301 92.3487L69.6581 92.6958L69.8837 92.8722L70.3985 93.2569L70.9278 93.6444L72.0904 94.4195L72.3767 94.6046L72.9291 94.943L73.6955 95.371L73.8054 95.4289L74.1525 95.6024L74.3463 95.7007L74.8466 95.9437L75.1127 96.0767L75.7432 96.3804L76.07 96.5395L76.8075 96.8923L77.1863 97.0745L78.0048 97.4649L78.4213 97.6645L79.3005 98.081L82.0567 99.3824L82.6496 99.6601L83.7081 100.163L84.22 100.409L85.1166 100.846L85.5475 101.057L86.2908 101.433L86.6436 101.612L87.2365 101.927L87.517 102.078L87.9653 102.335L88.1707 102.457L88.4801 102.656L88.6161 102.752L88.7896 102.902L88.9053 103.07L88.9168 103.168L88.8937 103.316L88.8735 103.382L88.7636 103.472L88.6941 103.509L88.483 103.553L88.0232 103.576H87.7629L87.2481 103.449L87.1266 103.408L86.927 103.31L86.713 103.142L86.661 103.079L86.3949 102.972L86.2387 102.92L85.8136 102.839L85.3595 102.76L84.2431 102.697L83.9655 102.688L83.4391 102.694L83.1846 102.703L82.7508 102.74L82.5484 102.766L82.2678 102.841L82.0856 102.998V103.041L81.8832 103.116L81.7501 103.151L81.3076 103.206L81.0589 103.232L80.414 103.267L79.2571 103.287H78.9419L78.4068 103.284L78.1552 103.281L77.733 103.267L77.5363 103.261L77.2095 103.238L77.0591 103.223L76.8104 103.186L76.579 103.142L76.2695 103L75.9022 102.671L75.7866 102.538L75.5725 102.353L75.4626 102.275L75.1908 102.194L75.0433 102.165L74.6297 102.168L73.7621 102.246L73.3167 102.298L72.5242 102.46L72.3507 102.5L72.076 102.587L71.8214 102.705L71.7781 102.743L71.4802 102.815L71.3038 102.853L70.7918 102.92L70.5142 102.951L69.8519 103.003L68.7674 103.058L66.3813 103.131L66.4334 103.11L66.7082 103.021L66.9019 102.986L67.7696 102.827L66.9453 102.61L66.2338 102.544L65.8434 102.627L65.7162 102.732L65.5715 102.934L65.4906 103.128L65.4559 103.249L65.3431 103.781L65.3228 104.073L65.3084 104.658L65.3402 104.904L65.3807 105.135L65.4125 105.225L65.4819 105.386L65.5282 105.436L65.5918 105.459L65.6236 105.421L65.6901 105.317L65.7248 105.222L65.7885 105.008L65.8174 104.869L65.8694 104.574L65.8897 104.4L65.9041 104.314L65.7798 105.41L65.7537 105.638L65.7133 106.037L65.6959 106.228L65.6699 106.555L65.6496 106.867L65.6583 107.313L65.6612 107.359L65.6178 107.211L65.5918 107.038L65.4385 106.034L65.2187 106.856L65.1146 107.596L65.1262 108.076L65.1753 108.229L65.2476 108.412L65.3055 108.481L65.4356 108.608L65.5224 108.652L65.7162 108.727L65.8405 108.747L66.1066 108.779H66.2714L67.1911 108.773L66.4681 108.409L66.3553 108.308L66.39 108.322L66.6214 108.415L67.2953 108.64L67.6568 108.756L68.5273 109.005L69.956 109.372L70.9451 109.612L72.9233 110.106L73.3803 110.222L74.1554 110.422L74.3318 110.471L74.6355 110.552L74.9999 110.653L75.399 110.766L76.4026 110.991L76.6513 111.044L77.1285 111.133L77.7474 111.226L78.0482 111.263L78.7221 111.362L79.0633 111.411L79.7864 111.529L80.5152 111.651L81.9381 111.923L82.2765 111.989L82.881 112.116L82.8636 112.143L82.8491 112.218L82.881 112.29L82.9648 112.452L83.04 112.573L83.2251 112.842L83.3206 112.926L83.4883 113.048L83.4102 113.062L83.1962 113.094L82.6669 113.166L82.3835 113.201L81.7068 113.282L80.5094 113.412L80.2 113.444L79.6707 113.496L79.4191 113.519L79.0026 113.554L78.8059 113.568L78.4849 113.583L78.3345 113.589L78.0945 113.583L77.8747 113.574L77.6144 113.493L77.3859 113.273L77.3049 113.126L77.0851 112.944L76.9723 112.874L76.7381 112.845L76.6253 112.851L76.4315 112.973L76.2493 113.323L76.2319 113.418L76.0816 113.577L75.9861 113.652L75.6362 113.788L75.4308 113.852L74.8206 113.979L74.65 114.011L74.2479 114.077L73.5538 114.181L73.2646 114.222L72.7758 114.297L72.5445 114.335L72.1511 114.407L71.781 114.479L71.2546 114.638L71.0174 114.725L70.6588 114.954L70.1556 115.431L70.0052 115.599L69.7622 115.943L69.6523 116.113L69.4904 116.463L69.4817 116.489L69.4904 116.374L69.4962 116.093L69.4759 116.021L69.4268 115.92L69.3776 115.925L69.2648 115.972L69.1809 116.041L68.9727 116.296L68.8686 116.51L68.8368 116.631L68.7587 117.163L68.7876 117.458L68.8946 118.051L69.0132 118.329L69.2908 118.861L69.4904 119.063L69.9213 119.468L70.0775 119.584L70.2192 119.682L70.2742 119.711L70.3667 119.755H70.3927L70.4332 119.74L70.4303 119.711L70.4101 119.639L70.3754 119.581L70.2886 119.451L70.2192 119.364L70.0601 119.176L69.9502 119.061L69.6147 118.647L69.473 118.384L69.4354 118.236L69.3805 117.924L69.4036 118.025L69.4557 118.193L69.6176 118.52L69.7073 118.682L69.9502 118.991L70.4014 119.431L70.7224 119.697L71.3211 120.07L71.4773 120.154L71.8186 120.29L71.9979 120.353L72.4057 120.457L72.6226 120.504L73.1287 120.579L73.3977 120.616L74.0368 120.671L74.3752 120.697L75.1734 120.741L76.5906 120.802L77.6751 120.839L79.6302 120.926L80.573 120.972L82.2447 121.068L82.3459 121.073L82.2476 121.068L81.3597 121.036L80.8651 121.03L79.8558 121.018L79.3381 121.021L75.5783 121.045L78.7597 121.218L80.5933 121.313L81.432 121.348L82.2389 121.383L82.5744 121.394L83.1875 121.412L83.3871 121.415L84.087 121.418L84.3559 121.409L84.3993 121.394L84.4225 121.357L84.3502 121.328L84.1477 121.264L83.9655 121.218L83.7139 121.175L83.5375 121.154L84.4369 121.221L85.0963 121.276L86.2069 121.392L86.7275 121.452L87.5604 121.58L87.9422 121.643L88.1938 121.707L88.0376 121.689L87.867 121.695L87.8352 121.724L87.7976 121.796L87.8236 121.866L87.8988 122.025L87.9711 122.141L88.1764 122.418L88.2835 122.502L88.4628 122.609L87.8612 122.777L87.1816 122.884L85.8078 123.231L85.1253 123.422L83.8296 123.899L83.2049 124.148L82.1088 124.706L81.8543 124.848L81.4031 125.14L80.8247 125.579L80.6396 125.744L80.3359 126.025L80.1942 126.161L79.9686 126.407L79.7661 126.647L79.6042 127.037L79.5695 126.84L79.5377 126.771L79.4711 126.655L79.4249 126.635L79.3265 126.612L79.2658 126.635L79.0113 126.93L78.9043 127.26V127.442L79.0113 127.957L79.1675 128.217L79.2658 128.257L79.4567 128.336L79.5203 128.367L79.6273 128.419V128.101L79.7199 128.431L79.931 129.079L80.3764 130.392L82.0943 130.574L82.5657 130.623L83.5259 130.615L83.7486 130.606L84.1304 130.565L84.5584 130.467L84.7637 130.389L85.3277 130.268L86.1288 130.184H86.1838L86.3862 130.166L86.5019 130.152L86.8085 130.111L86.9762 130.088L87.3724 130.027L87.5807 129.996L88.055 129.918L88.5437 129.837L89.689 129.628L91.5313 129.278L92.0635 129.174L92.9918 128.998L93.4401 128.914L94.2673 128.775L95.0829 128.648L96.7574 128.474L97.2086 128.437L98.2179 128.373L98.7501 128.341L99.9879 128.289L100.315 128.275L101.023 128.249L101.391 128.237L102.183 128.214L102.594 128.2L103.482 128.174L104.933 128.136L106.145 128.101L108.583 128.012L109.185 127.986L110.348 127.934L110.92 127.908L112.005 127.85L112.534 127.821L113.509 127.76L113.98 127.731L114.81 127.67L115.206 127.641L115.863 127.581L116.621 127.497L117.089 127.43L117.945 127.338L118.359 127.297L119.093 127.26L119.446 127.245L120.054 127.26L120.814 127.341L120.892 127.355L121.138 127.427L121.271 127.471L121.615 127.595L121.797 127.665L122.223 127.832L122.445 127.922L122.937 128.127L123.443 128.341L124.586 128.845L125.167 129.105L126.367 129.657L126.96 129.932L128.088 130.473L128.629 130.736L129.557 131.207L129.768 131.317L130.136 131.514L130.306 131.609L130.578 131.769L130.702 131.841L130.861 131.954L130.963 132.064V132.199L130.809 132.587L130.714 132.787L130.439 133.206L130.295 133.408L129.997 133.727L129.924 133.793L129.794 133.886L129.626 133.943H129.563L129.386 134.007L129.291 134.048L129.071 134.178L128.374 134.739L128.264 134.849L127.987 135.112L127.842 135.248L127.521 135.537L126.596 136.341L126.46 136.454L126.095 136.752L125.904 136.911L125.468 137.269L124.137 138.366L123.935 138.533L123.469 138.906L123.226 139.097L122.694 139.511L122.147 139.933L120.936 140.838L120.322 141.295L119.093 142.183L117.39 143.372L117.025 143.618L116.158 144.289L115.947 144.456L115.553 144.789L115.056 145.237L114.778 145.503L114.113 146.056L113.951 146.183L113.647 146.406L113.266 146.654L113.211 146.686L113.052 146.787L112.968 146.845L112.751 146.996L112.52 147.155L111.924 147.589L111.609 147.82L110.9 148.352L109.795 149.205L109.425 149.494L108.696 150.061L108.34 150.339L107.695 150.836L107.392 151.074L106.906 151.447L106.799 151.53L106.622 151.664L106.434 151.808L106.342 151.878L106.05 152.112L105.891 152.239L105.497 152.566L104.187 153.682L103.953 153.888L103.418 154.336L103.14 154.564L102.539 155.042L101.929 155.525L100.627 156.502L99.985 156.979L98.7819 157.821L98.4985 158.015L97.9837 158.353L97.3243 158.758L96.902 159.004L95.9881 159.29L95.5254 159.403L94.5825 159.423L94.114 159.403L93.203 159.163L92.7576 159.01L91.942 158.509L91.8032 158.408L91.4214 158.116L91.2161 157.954L90.7273 157.561L90.4699 157.352L89.9031 156.887L89.6138 156.647L89.0036 156.135L88.3847 155.617L87.1526 154.553L86.8547 154.295L86.2995 153.804L85.5562 153.139L85.507 153.092L85.2699 152.887L85.1281 152.768L84.729 152.427L84.5092 152.242L83.9626 151.785L83.6734 151.545L83.0053 150.987L82.6583 150.695L81.889 150.056L81.4956 149.726L80.6453 149.02L77.892 146.741L76.1539 145.304L72.611 142.348L71.7086 141.593L69.849 140.028L68.9062 139.236L66.9395 137.573L65.9388 136.726L63.8363 134.938L62.7633 134.024L60.4872 132.084L59.3274 131.092L56.8518 128.972L56.2184 128.428L54.9083 127.306L52.8751 125.559L52.4673 125.209L51.5418 124.417L51.0646 124.009L50.0263 123.127L49.4942 122.676L48.3778 121.727L47.811 121.25L46.6483 120.267L45.4828 119.283L43.1691 117.34L42.6022 116.865L41.5206 115.963L40.0051 114.699L39.4006 114.199L38.2872 113.268L37.7434 112.813L36.7514 111.975L36.2685 111.567L35.3921 110.815L34.967 110.451L34.2035 109.78L33.8333 109.453L33.1739 108.857L32.8586 108.568L32.2976 108.041L32.0315 107.787L31.5687 107.321L31.3489 107.099L30.9759 106.694L30.7994 106.497L30.5131 106.141L30.3801 105.971L30.1718 105.664L30.0764 105.514L29.9463 105.248L29.8884 105.118L29.8248 104.886L29.7785 104.658L29.8711 104.285L30.2499 103.799L30.2817 103.77L30.435 103.663L30.5247 103.602L30.7879 103.434L30.9296 103.342L31.2853 103.119L31.4733 103L31.9129 102.732L32.367 102.454L33.4689 101.789L34.0415 101.445L35.2967 100.695L35.933 100.317L37.2402 99.5473L37.8881 99.1655L39.1403 98.4396L39.7477 98.0867L40.838 97.4649L41.0954 97.3174L41.5611 97.0543L42.1742 96.7159L42.2841 96.6551L42.556 96.5047L42.7006 96.4267L43.0303 96.2416L43.3744 96.0478L44.19 95.5937L46.8016 94.1158L47.3569 93.7977L48.6063 93.0949L49.2484 92.7363L50.6279 91.967L52.0335 91.1861L55.0297 89.5463L55.7759 89.1385L57.2567 88.3374L57.9884 87.9411L59.3997 87.1834L60.0938 86.8103L61.3866 86.1249L63.1422 85.2023L63.6598 84.9362L64.6952 84.3838L65.2042 84.1091L66.1413 83.5943L66.5867 83.3484L67.3213 82.9291L67.4861 82.8336L67.758 82.6688L68.0703 82.4721L68.7818 82.0007L70.3985 81.0347L71.2199 80.5575L72.8713 79.6783L73.2733 79.4701L74.0426 79.0941L74.4186 78.9119L75.1098 78.6024L75.4424 78.4549L76.0208 78.2293L76.7352 77.998L76.9723 77.9372L77.5912 77.8129L77.9152 77.7521L78.6411 77.6394L79.0084 77.5873L79.7488 77.4976L80.7842 77.4022L81.3452 77.3646L82.3112 77.2952L82.7711 77.2634L83.5751 77.1969L83.9626 77.1622L84.6567 77.0927L84.9951 77.0551L85.6314 76.9713L86.2619 76.8845L87.5691 76.6416L87.9162 76.5722L88.6855 76.4102L90.0043 76.1181L90.4583 76.0169L91.3028 75.8376L91.7135 75.7508L92.4915 75.5975L93.255 75.4529L94.6809 75.2302L95.3923 75.129L96.8557 74.9728L99.2938 74.7877L99.4934 74.7761L100.049 74.7385L100.347 74.7154L101.038 74.6662L103.198 74.5014L103.875 74.4464L105.275 74.3394L105.602 74.3134L106.171 74.27L106.813 74.2208L107.782 74.1514L109.812 73.9143L110.295 73.8536L111.149 73.7205L112.164 73.5238L112.441 73.4602L113.072 73.3503L113.838 73.2636L114.075 73.2578L114.654 73.0582L114.952 72.9367L115.559 72.5694L115.854 72.3728L116.375 71.9129L116.924 71.2072L116.979 71.0973L117.089 70.811L117.144 70.6577L117.239 70.3165L117.422 69.284L117.514 68.1474L117.456 69.015M89.1308 122.236L89.1193 122.259L89.1251 122.222M84.5844 112.709L84.5237 112.773L84.4803 112.805L84.3935 112.84L84.5815 112.686M77.9383 102.746L77.5074 102.766L77.3483 102.81L77.0764 102.914L77.0244 102.998L77.0099 103.084L77.0649 103.116L77.2095 103.18L77.3367 103.203L77.6317 103.241L77.8313 103.249L78.2622 103.264L78.5254 103.258L79.2918 103.232L79.6157 103.206L79.6909 103.186L79.7806 103.139L79.7459 103.11L79.6215 103.041L79.4827 102.998L78.6874 102.81L78.1668 102.746M70.6791 86.8797L70.52 86.952L70.2134 87.1371L70.1122 87.2759L69.9445 87.5796L69.9473 87.7618L69.9531 88.0105L69.9618 88.0828L69.982 88.1985L70.0023 88.2072L70.0515 88.1927L70.0919 88.1378L70.1845 87.999L70.251 87.8862L70.6415 87.5276L70.9972 87.3801H71.1678L71.4397 87.3627L71.5525 87.3338L71.5756 87.3078L71.6016 87.2499L71.5843 87.2094L71.5293 87.1198L71.4715 87.0619L71.0203 86.8595M103.331 81.1562L103.354 81.1706L103.314 81.1446M99.6206 79.0999L99.5136 79.1086L99.5281 79.0941M122.879 60.9315L122.827 60.9633L123.504 60.5353M124.664 57.8456L124.713 58.1753L124.669 57.8803L124.664 57.8427M107.855 56.9403L107.826 56.9114V56.8652L107.834 56.8594M124.25 56.1421L124.204 56.0582L124.013 55.876L123.906 55.7951L123.617 55.6909L123.46 55.6476L123.047 55.5984L122.824 55.581L122.26 55.5695L121.482 55.5666L124.001 55.4769M126.266 46.6472L126.248 46.7398L126.272 46.5807M126.211 44.1947L126.194 44.1369L126.081 43.9576L125.939 43.8592L126.191 43.8534M116.499 30.2141L116.791 30.3182L117.375 30.5728L117.699 30.7781L118.032 30.9979L118.072 31.0268L117.717 30.8157L117.329 30.6046L116.577 30.3067L116.398 30.2459L116.059 30.165L115.805 30.136L115.912 30.1331M87.2972 28.9069L87.3117 28.956L87.2654 28.8143M87.1671 28.5338L87.2249 28.6958L87.1902 28.5974L87.1382 28.4788M86.7275 27.7153L86.7535 27.7587L86.7015 27.6893M98.3018 19.6145L97.9316 19.8053L97.8304 19.9673L97.8767 20.0425L98.0039 20.1784L98.0849 20.2016L98.2642 20.2247L98.3539 20.1987L98.5361 20.1235L98.6113 20.0512L98.7501 19.8892L98.7848 19.7822L98.7038 19.5884L98.4811 19.5682L98.3018 19.6145Z" fill="#42816C"/>
<path d="M79.2645 128.258L79.1662 128.217L79.01 127.957L78.903 127.442V127.26L79.01 126.93L79.2645 126.635L79.3252 126.612L79.4235 126.635L79.4698 126.655L79.5363 126.771L79.5682 126.841L79.6029 127.049L79.626 127.474V127.74V128.156V128.24V128.359V128.425V128.42L79.519 128.368L79.4554 128.336M87.9698 122.141L87.8975 122.025L87.8223 121.866L87.7963 121.797L87.8339 121.724L87.8657 121.695L88.0363 121.69L88.4586 121.736L88.5974 121.756L88.8085 121.814L88.904 121.846L89.0341 121.927L89.0891 121.97L89.1382 122.074L89.118 122.259L89.0659 122.401L88.904 122.566L88.8143 122.63L88.609 122.644L88.5049 122.635L88.2822 122.502L88.1751 122.418M78.7584 121.218L75.577 121.045L79.3368 121.022L79.8545 121.019L80.8638 121.03L81.3584 121.036L82.2463 121.068L82.6656 121.088L83.3308 121.134L83.4783 121.146L83.7126 121.175L83.9642 121.218L84.1464 121.264L84.3488 121.328L84.4212 121.357L84.398 121.395L84.3546 121.409L84.0857 121.418L83.3858 121.415L83.1862 121.412L82.5731 121.395L82.2376 121.383L81.4307 121.348L80.592 121.314M69.4891 119.064L69.2895 118.861L69.0119 118.329L68.8933 118.051L68.7863 117.458L68.7574 117.163L68.8355 116.631L68.8673 116.51L68.9714 116.296L69.1796 116.041L69.2635 115.972L69.3763 115.926L69.4254 115.92L69.4746 116.021L69.4949 116.093L69.4891 116.374L69.4283 117.03L69.3994 117.305L69.3792 117.73V117.924L69.4341 118.236L69.4717 118.384L69.6134 118.647L69.9489 119.061L70.0588 119.176L70.2179 119.364L70.2873 119.451L70.3741 119.581L70.4088 119.639L70.429 119.711L70.4319 119.74L70.3914 119.755H70.3654L70.2728 119.711L70.2179 119.682L70.0762 119.584L69.92 119.468M83.0387 112.574L82.9635 112.452L82.8797 112.29L82.8478 112.218L82.8623 112.143L82.8825 112.114L83.0069 112.111L83.3308 112.166L83.5072 112.203L83.7993 112.27L83.9353 112.302L84.1551 112.36L84.3575 112.415L84.5629 112.51L84.6352 112.556L84.6178 112.655L84.3893 112.843L84.2303 112.944L83.9642 113.057L83.8369 113.097L83.6171 113.086L83.5101 113.065L83.3193 112.926L83.2238 112.843M65.174 108.23L65.1248 108.076L65.1133 107.596L65.2174 106.856L65.4372 106.035L65.5905 107.038L65.6165 107.212L65.7033 107.51L65.7495 107.651L65.8826 107.888L66.4668 108.409L67.1898 108.773L66.2701 108.779H66.1053L65.8392 108.747L65.7148 108.727L65.5211 108.652L65.4343 108.609L65.3042 108.481L65.2463 108.412M65.5269 105.436L65.4806 105.387L65.4112 105.225L65.3794 105.135L65.3389 104.904L65.3071 104.658L65.3215 104.074L65.3418 103.782L65.4546 103.249L65.4893 103.128L65.5702 102.934L65.7148 102.732L65.8421 102.628L66.2325 102.544L66.944 102.61L67.7683 102.827L66.9006 102.986L66.7068 103.021L66.4321 103.111L66.3106 103.16L66.1516 103.325L66.0821 103.423L65.9925 103.727L65.8884 104.4L65.8681 104.574L65.8161 104.869L65.7871 105.008L65.7235 105.222L65.6888 105.317L65.6223 105.421L65.5905 105.459M77.0231 102.998L77.0751 102.914L77.347 102.81L77.5061 102.766L77.937 102.746H78.1655L78.6861 102.81L79.4814 102.998L79.6202 103.041L79.7446 103.111L79.7793 103.139L79.6896 103.186L79.6144 103.206L79.2905 103.232L78.5241 103.258L78.2609 103.264L77.83 103.249L77.6304 103.241L77.3354 103.203L77.2082 103.18L77.0636 103.116L77.0086 103.085M68.7227 92.6786L68.607 92.6468L68.4161 92.5282L68.3293 92.4588L68.1934 92.2766L68.0719 92.0829L67.9996 91.6056L67.991 91.3627L68.1471 90.9115L68.2021 90.8103L68.3525 90.6397L68.6446 90.4546L68.7256 90.4228L68.8297 90.4054L68.8731 90.4083L68.9049 90.469L68.9106 90.5095L68.8673 90.6599L68.7256 91.0012L68.6561 91.1516L68.5838 91.3859L68.5607 91.4929L68.5867 91.6808L68.6128 91.7705L68.7516 91.9556L69.0986 92.2795L69.2693 92.4212L69.4659 92.6179L69.5382 92.7018L69.5325 92.7885L69.5035 92.8175L69.2895 92.803L69.1536 92.7856M114.187 88.8032L113.947 88.6036L113.397 88.1669L113.111 87.9413L112.475 87.4554L111.824 86.9638L110.338 85.8879L109.577 85.3442L107.972 84.2307L107.165 83.6754L105.571 82.6082L104.785 82.0905L103.33 81.1564L102.98 80.9337L102.332 80.5317L102.017 80.3379L101.447 79.9995L101.172 79.8376L100.698 79.5715L100.475 79.45L100.114 79.2678L99.949 79.1897L99.7148 79.1059L99.5268 79.0943L99.5007 79.1203L99.44 79.3228L99.4082 79.4442L99.3388 79.8028L99.307 79.9966L99.2404 80.4623L99.1537 81.2345L99.1161 81.6047L99.0525 82.1281L99.0235 82.3537L98.9628 82.6082L98.931 82.7037L98.8674 82.7094L98.7575 82.4636L98.717 82.319L98.6707 81.9662L98.6533 81.7811L98.6504 81.3704L98.662 80.951L98.7864 80.0776L98.824 79.8665L98.9194 79.4818L98.9715 79.2938L99.0872 78.9815L99.1479 78.8369L99.2809 78.6286L99.4863 78.4754L99.5441 78.4638L99.79 78.539L99.9288 78.591L100.322 78.7848L100.536 78.8947L101.06 79.1955L101.337 79.3575L101.974 79.7479L102.303 79.9532L103.035 80.4247L103.408 80.6676L104.212 81.2026L105.033 81.7522L106.818 82.9929L107.72 83.6291L109.557 84.9595L110.468 85.6276L112.209 86.9435L112.631 87.2646L113.432 87.8921L113.825 88.1987L114.549 88.7829L114.898 89.0692L115.529 89.6014L116.347 90.3244L116.515 90.4806L116.735 90.6917L116.825 90.7843L116.897 90.8739L116.914 90.9058L116.854 90.8855L116.807 90.8624L116.622 90.7351L116.515 90.6628L116.22 90.4401L116.061 90.3187L115.671 90.0121L115.462 89.8472L114.985 89.4626L114.736 89.2601M69.946 87.762L69.9431 87.5798L70.1109 87.2761L70.2121 87.1373L70.5187 86.9522L70.6777 86.8799L71.019 86.8597L71.4702 87.0621L71.528 87.12L71.583 87.2096L71.6003 87.2501L71.5743 87.3079L71.5512 87.334L71.4384 87.3629L71.1665 87.3802H70.9959L70.6401 87.5277L70.2497 87.8864L70.1832 87.9992L70.0906 88.138L70.0501 88.1929L70.001 88.2074L69.9807 88.1987L69.9605 88.083L69.9518 88.0107M117.455 69.0152L117.513 68.1475L115.101 67.8583L114.731 67.815L114.132 67.7224L113.857 67.679L113.455 67.5894L113.276 67.5489L113.065 67.4679L112.984 67.4303L112.961 67.3667L112.972 67.3378L113.134 67.2944L113.238 67.2741L113.588 67.2568L113.785 67.251L114.314 67.2655L115.312 67.3262L115.674 67.3551L116.287 67.4245L116.579 67.4621L117.056 67.5547L117.279 67.6038L117.626 67.7195L117.785 67.7802L118.007 67.9249L118.106 68.0029L118.21 68.1823L118.248 68.2777L118.239 68.4975L118.222 68.6103L118.106 68.8735L117.817 69.3218L117.718 69.4548L117.585 69.6139L117.527 69.6717L117.467 69.6746L117.444 69.6543L117.432 69.4837V69.3738M119.882 62.5484L120.532 62.2331L121.947 61.4696L122.282 61.2816L122.878 60.9317L123.584 60.4863L124.917 59.5695L124.717 58.2188L124.662 57.8458L124.5 57.0591L124.46 56.874L124.376 56.5501L124.26 56.1741L124 55.4771L119.057 55.6535L118.378 55.6796L117.154 55.7085L116.865 55.7143L116.333 55.72H116.078H115.627H115.41L115.052 55.7114L114.884 55.7056L114.629 55.694L114.517 55.6853L114.378 55.6651L114.32 55.6275L114.375 55.5725L114.627 55.4858L114.71 55.4655L114.962 55.4279L115.101 55.4106L115.488 55.3759L115.702 55.3585L116.261 55.3209L116.564 55.3007L117.328 55.2573L117.739 55.2371L118.745 55.1879L120.564 55.1011L120.926 55.0838L121.553 55.0606L121.854 55.0491L122.366 55.0346L122.609 55.0317H123.02H123.213L123.531 55.0462L123.829 55.0635L124.2 55.1416L124.523 55.3325L124.573 55.3932L124.683 55.6506L124.737 55.7981L124.847 56.1944L124.96 56.6166L125.157 57.6549L125.203 57.9152L125.275 58.4184L125.307 58.6642L125.348 59.1038L125.365 59.3092V59.6273L125.313 59.9194L125.267 59.9946L125.076 60.1132L124.749 60.1942H124.694L124.526 60.252L124.437 60.2896L124.217 60.4082L123.491 60.9201L123.381 61.0127L123.066 61.2296L122.895 61.3424L122.479 61.5911L122.048 61.8427L121.018 62.3691L120.498 62.6265L119.48 63.069L119.237 63.1702L118.797 63.3321L118.236 63.5086L118.138 63.5346L118.143 63.4883L118.175 63.4536L118.421 63.3032L118.571 63.2165L119.02 62.9764L119.266 62.8492M107.824 56.8277V56.7207L107.952 56.5501L108.258 56.4344H108.377L108.625 56.4286L108.9 56.4113L109.051 56.3968L109.189 56.4749L109.233 56.5241L109.189 56.6802L109.149 56.7583L108.961 56.9174L108.559 57.0822L108.435 57.1054L108.235 57.1198H108.142L108.007 57.0909L107.885 57.0475M125.787 47.7782L125.9 47.625L126.062 47.3242L126.134 47.1709L126.227 46.8267L126.265 46.6474L126.293 46.2165L126.279 45.424L126.189 43.8536L123.838 43.8999L123.213 43.9115L121.842 44.03L121.143 44.1052L119.665 44.3395L118.916 44.4725L117.38 44.8138L115.069 45.4385L114.774 45.5282L114.285 45.667L114.057 45.7277L113.701 45.8145L113.539 45.8492L113.322 45.8839L113.233 45.8955L113.157 45.8781L113.137 45.8636L113.204 45.8L113.253 45.7653L113.467 45.6554L113.591 45.5947L113.953 45.4414L114.664 45.1638L115.101 44.9989L116.142 44.6837L116.683 44.5275L117.869 44.2412L119.075 43.9606L121.565 43.5355L122.166 43.4429L123.286 43.3099L123.824 43.2549L124.752 43.2L124.969 43.1913H125.354L125.536 43.1942L125.845 43.2173L125.987 43.2318L126.21 43.281L126.435 43.3851L126.507 43.4429L126.614 43.6483L126.661 43.7669L126.724 44.1052L126.75 44.2903L126.771 44.7849L126.756 45.719L126.745 45.9996L126.721 46.471L126.71 46.6937L126.678 47.0581L126.664 47.2287L126.62 47.5035L126.597 47.6307L126.536 47.8303L126.47 48.0154L126.256 48.2207L125.773 48.4145L125.634 48.4521L125.458 48.4868L125.388 48.4955L125.356 48.4434V48.4029L125.463 48.2265L125.536 48.1166M119.954 33.3291L120.023 33.199L120.072 32.9792L120.078 32.8722L119.965 32.6408L119.882 32.5193L119.561 32.207L119.465 32.1202L119.225 31.9207L118.791 31.5707L118.586 31.4088L118.213 31.1311L118.031 30.9981L117.698 30.7783L117.374 30.5729L116.79 30.3184L116.498 30.2143L115.911 30.1333L114.91 30.1709L114.765 30.1883L114.525 30.1998H114.415L114.259 30.1825L114.19 30.1709L114.126 30.1275L114.152 30.035L114.187 30.0003L114.34 29.9251L114.427 29.8875L114.661 29.8123L115.526 29.633L115.763 29.6041L116.148 29.5954L116.333 29.6012L116.674 29.6908L116.848 29.7487L117.224 29.9627L117.921 30.4515L118.271 30.7175L119.04 31.267L119.225 31.3972L119.552 31.6199L119.945 31.8744L120.185 32.0219L120.509 32.3314L120.645 32.4875L120.755 32.797L120.784 32.9474L120.674 33.2279L120.255 33.5894L120.113 33.6646L119.928 33.7514L119.853 33.7832L119.783 33.7745L119.763 33.7572L119.801 33.6415L119.83 33.5663M87.6401 30.1854L87.5418 29.7111L87.2959 28.9071L87.1658 28.534L86.8766 27.9671L86.7262 27.7155L86.4167 27.4205L86.3386 27.3684L86.1854 27.3193L85.9598 27.3395L85.8412 27.3858L85.6706 27.3309L85.5549 27.0706V26.9404L85.7458 26.7611L86.2577 26.6454H86.4081L86.6394 26.7033L86.7464 26.7466L86.92 26.9375L87.0067 27.0561L87.1687 27.4436L87.4434 28.3084L87.5794 28.7711L87.8021 29.6417L87.9033 30.061L88.0508 30.7725L88.0797 30.9373L88.1231 31.2179L88.1433 31.3509L88.1607 31.5563L88.1665 31.6517L88.1578 31.7761L88.1086 31.8513H88.0913L88.0334 31.7211L88.0016 31.6343L87.9206 31.3625L87.8773 31.2092L87.7847 30.8303L87.7355 30.6337M97.8754 20.0427L97.8291 19.9675L97.9303 19.8055L98.3005 19.6146L98.4798 19.5684L98.7025 19.5886L98.7835 19.7824L98.7488 19.8894L98.61 20.0513L98.5348 20.1236L98.3526 20.1988L98.2629 20.2249L98.0836 20.2017L98.0026 20.1786L97.8754 20.0427Z" fill="#42816C"/>
<path d="M16.2959 222.215C15.8948 222.459 15.4327 222.695 14.9095 222.921C14.3864 223.148 13.8109 223.322 13.1832 223.444C12.5554 223.584 11.8753 223.654 11.1429 223.654C9.73043 223.654 8.44873 223.409 7.29782 222.921C6.14691 222.415 5.16166 221.735 4.34207 220.881C3.52248 220.009 2.886 219.015 2.43261 217.899C1.99666 216.766 1.77868 215.562 1.77868 214.289C1.77868 212.929 2.01409 211.665 2.48492 210.497C2.95575 209.328 3.61839 208.308 4.47286 207.436C5.32732 206.564 6.32129 205.884 7.45476 205.396C8.58824 204.908 9.81762 204.664 11.1429 204.664C12.1194 204.664 13.0349 204.794 13.8894 205.056C14.7439 205.317 15.5199 205.658 16.2174 206.076L15.6681 207.253C15.0577 206.869 14.3689 206.547 13.6017 206.285C12.8344 206.024 12.0235 205.893 11.1691 205.893C10.0705 205.893 9.03291 206.111 8.05638 206.547C7.07985 206.965 6.21666 207.558 5.46683 208.326C4.73443 209.075 4.15897 209.956 3.74046 210.967C3.32195 211.979 3.11269 213.069 3.11269 214.237C3.11269 215.353 3.29579 216.408 3.66199 217.402C4.04563 218.396 4.58621 219.268 5.28373 220.018C5.99869 220.768 6.85315 221.36 7.84712 221.796C8.84109 222.215 9.9484 222.424 11.1691 222.424C12.0758 222.424 12.9042 222.302 13.654 222.058C14.4213 221.796 15.1013 221.474 15.6942 221.09L16.2959 222.215ZM27.1878 214.185C27.1878 212.877 27.4319 211.656 27.9202 210.523C28.4085 209.372 29.0886 208.36 29.9605 207.489C30.8324 206.599 31.8351 205.91 32.9685 205.422C34.1194 204.916 35.3488 204.664 36.6567 204.664C37.9645 204.664 39.1939 204.916 40.3448 205.422C41.4957 205.91 42.5071 206.599 43.379 207.489C44.2509 208.36 44.931 209.372 45.4193 210.523C45.925 211.656 46.1778 212.877 46.1778 214.185C46.1778 215.493 45.925 216.722 45.4193 217.873C44.931 219.006 44.2509 220.009 43.379 220.881C42.5071 221.753 41.4957 222.433 40.3448 222.921C39.1939 223.409 37.9645 223.654 36.6567 223.654C35.3488 223.654 34.1194 223.418 32.9685 222.947C31.8351 222.477 30.8324 221.814 29.9605 220.959C29.0886 220.105 28.4085 219.102 27.9202 217.951C27.4319 216.8 27.1878 215.545 27.1878 214.185ZM28.4957 214.211C28.4957 215.344 28.7049 216.408 29.1234 217.402C29.5419 218.396 30.1261 219.268 30.876 220.018C31.6258 220.768 32.489 221.36 33.4655 221.796C34.4595 222.215 35.5145 222.424 36.6305 222.424C37.7814 222.424 38.8539 222.215 39.8478 221.796C40.8418 221.36 41.7137 220.768 42.4635 220.018C43.2134 219.268 43.7976 218.396 44.2161 217.402C44.652 216.408 44.87 215.336 44.87 214.185C44.87 213.051 44.652 211.988 44.2161 210.994C43.7976 209.982 43.2134 209.102 42.4635 208.352C41.7137 207.584 40.8418 206.983 39.8478 206.547C38.8539 206.111 37.7901 205.893 36.6567 205.893C35.5058 205.893 34.4333 206.12 33.4394 206.573C32.4454 207.009 31.5735 207.611 30.8236 208.378C30.0912 209.145 29.5158 210.034 29.0973 211.046C28.6962 212.04 28.4957 213.095 28.4957 214.211ZM58.2442 223.444V204.454H58.2704L67.4253 217.454L66.876 217.376L76.0049 204.454H76.031V223.444H74.7755V207.41L74.8801 208.038L67.1376 218.945H67.0853L59.2905 208.038L59.4998 207.462V223.444H58.2442ZM93.5628 204.873C94.7137 204.873 95.7164 205.073 96.5709 205.474C97.4428 205.858 98.1141 206.442 98.5849 207.227C99.0732 207.994 99.3173 208.962 99.3173 210.13C99.3173 210.828 99.204 211.508 98.9773 212.171C98.768 212.816 98.4193 213.4 97.931 213.923C97.4602 214.446 96.8499 214.865 96.1 215.179C95.3676 215.493 94.4783 215.65 93.432 215.65H90.5547V223.444H89.273V204.873H93.5628ZM93.432 214.42C94.3388 214.42 95.0886 214.281 95.6815 214.002C96.2918 213.705 96.7627 213.339 97.094 212.903C97.4428 212.45 97.6869 211.979 97.8264 211.491C97.9833 211.002 98.0618 210.549 98.0618 210.13C98.0618 209.537 97.9659 208.997 97.7741 208.509C97.5823 208.02 97.2945 207.602 96.9109 207.253C96.5447 206.887 96.0913 206.608 95.5507 206.416C95.0101 206.207 94.3911 206.102 93.6936 206.102H90.5547V214.42H93.432ZM107.798 223.444L115.645 204.062H115.75L123.597 223.444H122.159L115.332 206.102L116.221 205.605L109.08 223.444H107.798ZM111.591 216.094H119.831L120.197 217.297H111.277L111.591 216.094ZM144.498 206.965C143.958 206.704 143.295 206.46 142.51 206.233C141.726 206.006 140.941 205.893 140.156 205.893C138.935 205.893 137.959 206.198 137.226 206.808C136.494 207.419 136.128 208.186 136.128 209.11C136.128 209.808 136.337 210.392 136.756 210.863C137.174 211.316 137.723 211.709 138.404 212.04C139.084 212.354 139.807 212.659 140.575 212.955C141.185 213.182 141.787 213.435 142.379 213.714C142.99 213.993 143.539 214.333 144.027 214.734C144.516 215.135 144.899 215.632 145.178 216.225C145.475 216.818 145.623 217.55 145.623 218.422C145.623 219.451 145.379 220.367 144.891 221.169C144.402 221.953 143.722 222.564 142.85 223C141.978 223.436 140.967 223.654 139.816 223.654C138.892 223.654 138.046 223.54 137.279 223.314C136.529 223.087 135.866 222.825 135.291 222.529C134.733 222.215 134.288 221.953 133.957 221.744L134.558 220.698C134.942 220.977 135.404 221.256 135.945 221.535C136.503 221.814 137.104 222.049 137.75 222.241C138.395 222.433 139.04 222.529 139.685 222.529C140.435 222.529 141.159 222.381 141.856 222.084C142.571 221.788 143.155 221.343 143.609 220.75C144.08 220.14 144.315 219.373 144.315 218.448C144.315 217.559 144.097 216.844 143.661 216.303C143.225 215.745 142.667 215.292 141.987 214.943C141.307 214.595 140.583 214.281 139.816 214.002C139.223 213.775 138.63 213.54 138.037 213.295C137.444 213.034 136.904 212.729 136.416 212.38C135.927 212.014 135.535 211.578 135.239 211.072C134.96 210.566 134.82 209.956 134.82 209.241C134.82 208.352 135.047 207.576 135.5 206.913C135.954 206.25 136.564 205.736 137.331 205.37C138.116 204.986 139.005 204.786 139.999 204.768C140.871 204.768 141.752 204.882 142.641 205.108C143.548 205.335 144.332 205.623 144.995 205.971L144.498 206.965ZM157.735 204.873H159.017V223.444H157.735V204.873ZM171.085 214.185C171.085 212.877 171.33 211.656 171.818 210.523C172.306 209.372 172.986 208.36 173.858 207.489C174.73 206.599 175.733 205.91 176.866 205.422C178.017 204.916 179.246 204.664 180.554 204.664C181.862 204.664 183.091 204.916 184.242 205.422C185.393 205.91 186.405 206.599 187.277 207.489C188.149 208.36 188.829 209.372 189.317 210.523C189.823 211.656 190.075 212.877 190.075 214.185C190.075 215.493 189.823 216.722 189.317 217.873C188.829 219.006 188.149 220.009 187.277 220.881C186.405 221.753 185.393 222.433 184.242 222.921C183.091 223.409 181.862 223.654 180.554 223.654C179.246 223.654 178.017 223.418 176.866 222.947C175.733 222.477 174.73 221.814 173.858 220.959C172.986 220.105 172.306 219.102 171.818 217.951C171.33 216.8 171.085 215.545 171.085 214.185ZM172.393 214.211C172.393 215.344 172.602 216.408 173.021 217.402C173.44 218.396 174.024 219.268 174.774 220.018C175.523 220.768 176.387 221.36 177.363 221.796C178.357 222.215 179.412 222.424 180.528 222.424C181.679 222.424 182.751 222.215 183.745 221.796C184.739 221.36 185.611 220.768 186.361 220.018C187.111 219.268 187.695 218.396 188.114 217.402C188.55 216.408 188.768 215.336 188.768 214.185C188.768 213.051 188.55 211.988 188.114 210.994C187.695 209.982 187.111 209.102 186.361 208.352C185.611 207.584 184.739 206.983 183.745 206.547C182.751 206.111 181.688 205.893 180.554 205.893C179.403 205.893 178.331 206.12 177.337 206.573C176.343 207.009 175.471 207.611 174.721 208.378C173.989 209.145 173.413 210.034 172.995 211.046C172.594 212.04 172.393 213.095 172.393 214.211Z" fill="#42816C"/>
</svg>
