<svg width="193" height="161" viewBox="0 0 193 161" fill="none" xmlns="http://www.w3.org/2000/svg">
<path d="M101.289 157.91L100.687 158.349L99.5533 159.09L97.9944 159.978L97.5866 160.183L96.9099 160.461L96.5946 160.579L96.0769 160.681L95.8369 160.712L95.4435 160.643L95.2613 160.588L94.9577 160.357L94.8536 160.255L94.4747 160.004L93.8529 159.671L93.7574 159.631L93.474 159.46L93.3901 159.408L93.7806 159.608L93.9801 159.674L94.3821 159.787L94.6077 159.813L95.0791 159.853H95.3597L96.5252 159.801L97.2627 159.706L97.6213 159.625L98.3328 159.44L98.6885 159.31L99.4029 159.018L99.7702 158.824L100.519 158.41L100.915 158.153L101.456 157.783M89.7808 156.594L90.3129 157.042L90.2001 156.947L89.5234 156.38L89.4482 156.316M104.276 155.533L104.568 155.284L105.132 154.781L104.464 155.376M64.6134 135.398L66.716 137.185L67.7167 138.032L69.6833 139.695L70.6262 140.488L72.4858 142.052L73.3881 142.807L76.931 145.763L78.6692 147.2L81.4225 149.479L82.2728 150.185L82.6661 150.515L83.4354 151.154L83.7825 151.446L84.4506 152.004L84.7398 152.244L85.2864 152.701L85.5062 152.886L85.9053 153.228L86.047 153.346L86.2842 153.551L86.3333 153.598L86.8915 154.098L86.8742 154.084L86.6659 153.904L86.1396 153.456L85.8561 153.216L85.1967 152.658L84.8555 152.369L84.089 151.724L83.6928 151.394L82.8454 150.682L82.4116 150.321L81.5035 149.563L78.6692 147.209L76.9223 145.763L73.3534 142.781L72.4424 142.021L70.5712 140.444L69.6226 139.643L67.6473 137.974L66.6437 137.124L64.5353 135.334L63.9338 134.819M63.5086 134.458L63.4652 134.42L62.3257 133.448M128.246 130.64L129.472 131.236L130.065 131.525L131.075 132.04L131.306 132.161L131.705 132.378L131.893 132.479L132.188 132.653L132.321 132.734L132.498 132.858L132.607 132.977V133.003L132.518 133.13L132.46 133.205L132.272 133.405L131.468 134.151L131.309 134.287L131.115 134.455L131.453 134.064L131.659 133.555L131.682 133.269L131.647 132.708L131.566 132.546L131.491 132.462L131.315 132.291L131.176 132.196L130.869 131.993L130.652 131.872L130.181 131.612L129.871 131.453L129.203 131.114L128.781 130.909L128.055 130.55M120.348 127.707L120.223 127.704ZM55.6594 127.742L53.6522 126.018L55.6623 127.745M70.1374 118.152V117.917ZM158.058 108.671L158.634 108.697L158.856 108.752L159.065 108.813L159.137 108.853L159.258 108.94L159.279 108.995L159.501 109.134L158.732 109.203L158.246 109.232L157.118 109.201L156.82 109.186L156.175 109.131L155.99 109.114L156.398 109.131L156.563 109.111L156.82 109.05L156.841 108.987L156.982 108.848L157.15 108.775L157.263 108.749L157.772 108.668M165.505 106.201L165.048 106.537L164.039 107.202L163.527 107.523L162.524 108.087L162.278 108.214L161.821 108.437L161.757 108.466L162.018 108.336L162.767 107.942L163.16 107.714L163.955 107.24L164.357 106.976L165.719 106.037M148.997 107.908L149.463 108.006L149.095 107.928L148.954 107.899M147.788 107.645L147.294 107.535L146.487 107.352M146.255 107.3L145.984 107.24L145.313 107.086L143.875 106.751L143.664 106.699M166.367 105.536L166.22 105.649L166.486 105.423M87.8662 102.3L88.4533 102.601L88.7309 102.745L89.211 103L89.4366 103.121L89.7923 103.324L89.9543 103.419L90.1683 103.561L90.3187 103.694L90.3447 103.772L90.2522 103.879L90.177 103.922L89.827 103.969L89.72 103.974L89.4453 103.98H89.4135L89.4713 103.969L89.5407 103.931L89.6506 103.841L89.6709 103.775L89.694 103.627L89.6824 103.529L89.5667 103.361L89.3932 103.211L89.2573 103.115L88.9478 102.916L88.7425 102.794L88.2942 102.537L88.0137 102.387L87.603 102.167M125.903 101.857L126.083 101.964L126.204 102.022L126.467 102.144L126.632 102.21L126.982 102.346L127.193 102.421L127.636 102.575L127.89 102.656L128.425 102.826L128.729 102.916L129.36 103.104L129.712 103.205L130.441 103.41L130.843 103.52L131.676 103.746L132.13 103.865L132.243 103.896L132.009 103.836L131.17 103.613L130.765 103.503L130.031 103.301L129.675 103.202L129.039 103.02L128.732 102.93L128.191 102.766L127.931 102.687L127.477 102.537L127.263 102.465L126.895 102.332L126.722 102.265L126.433 102.147L126.167 102.028L125.849 101.828L125.84 101.817M170.382 102.233L170.162 102.456L170.043 102.572L169.745 102.835L168.736 103.616L168.502 103.781L168.849 103.503L169.265 103.179L169.855 102.696L170.199 102.392L170.338 102.262L170.442 102.158M171.188 101.438L170.896 101.672L170.653 101.93L170.665 101.918L170.784 101.753V101.716L170.908 101.516L171.093 101.432H171.209M192.466 62.6169L192.388 63.3515L192.203 64.7629L192.107 65.4628L191.885 66.8192L191.65 68.164L191.043 70.7612L190.713 72.054L189.889 74.654L189.669 75.3105L189.178 76.6467L188.371 78.7059L188.064 79.452L187.46 80.8432L187.156 81.5228L186.543 82.8098L186.23 83.4432L185.591 84.6521L185.264 85.2508L184.582 86.4105L184.232 86.9861L183.492 88.1227L183.11 88.6895L182.294 89.8319L181.875 90.4046L180.964 91.5759L179.48 93.395L179.205 93.7247L178.523 94.4883L178.167 94.8816L177.372 95.7261L176.559 96.5793L174.835 98.2943L174.416 98.7021L173.624 99.4541L173.242 99.8127L172.571 100.417L172.256 100.695L171.773 101.088L172.001 100.857L172.14 100.637L172.308 100.408L172.484 100.197L172.597 100.064L172.846 99.7866L172.993 99.6218L173.3 99.2863L173.476 99.0983L174.219 98.3088L174.645 97.8692L175.521 96.9726L175.981 96.5156L177.308 95.1621L178.118 94.306L178.456 93.933L178.783 93.5715L178.925 93.4095L179.194 93.0971L179.304 92.967L179.506 92.7183L179.576 92.6228L179.697 92.4493L179.726 92.3944L180.076 91.8333L180.183 91.7031L180.229 91.6626L180.313 91.599H180.342L180.513 91.4573L180.704 91.2346L180.828 91.0698L181.1 90.7082L181.256 90.4855L181.586 90.0141L181.765 89.7509L182.505 88.6346L182.876 88.0446L183.602 86.8675L183.897 86.3469L184.738 84.7967L185.311 83.689L185.594 83.1077L186.725 80.7304L187.248 79.5301L187.763 78.3328L188 77.7486L188.466 76.5946L188.671 76.048L189.071 74.9721L189.238 74.4747L189.554 73.5145L189.675 73.0894L189.932 72.1523L190.115 71.4379L190.21 71.0533L190.595 69.4597L190.774 68.6731L190.945 67.898L191.023 67.5364L191.17 66.8366L191.231 66.5329L191.341 65.9602L191.378 65.7375L191.439 65.3384L191.448 65.2227L191.59 64.5547L191.752 64.1527L191.841 64.0428L192.023 63.528L192.003 63.3053L191.968 63.1693L191.885 62.8801L191.818 62.7037L191.645 62.1802L191.601 61.9257L191.621 61.8245L191.691 61.6365L191.772 61.544L191.966 61.3531L192.113 61.2316L192.561 60.6242L192.608 60.4854M71.3666 93.8375L71.971 94.254L73.365 95.1361L75.4473 96.319L75.1234 96.1599L74.9297 96.0616L74.5826 95.888L74.4727 95.8302L73.7063 95.4022L73.1539 95.0638L72.8676 94.8787L71.7049 94.1036L71.1757 93.7161L70.8026 93.4384M70.7129 93.3719L70.6609 93.3314L70.6464 93.3198M11.1263 80.8229L10.3917 81.089L10.0418 81.2134L9.43443 81.4216L9.14811 81.517L8.65645 81.6674L8.42508 81.7368L8.04043 81.8352L7.85822 81.8786L7.56322 81.9277L7.4244 81.948L7.2046 81.9537L7.10338 81.9509L6.95009 81.9161L6.81127 81.8728L6.66956 81.6761L6.56255 81.2567L6.53652 81.0774L6.43819 80.8345L6.75343 81.0601L7.06578 81.1873H7.18146L7.52563 81.3059L7.7194 81.4823L7.76278 81.5951L7.93631 81.7137L8.17925 81.7224L8.3817 81.6848L8.84733 81.5807L9.18571 81.4823L9.54144 81.3724L9.74968 81.303L10.1835 81.1555L10.4351 81.0688L10.9586 80.8837L11.2536 80.7738L11.2623 80.7709M5.93495 80.1867L6.07667 80.4296L6.1403 80.525L6.20392 80.6089L6.14319 80.5482L6.10848 80.5077L6.02461 80.3689L5.93495 80.2156L5.84819 80.0305M1.3249 63.152L1.46661 63.2706L1.75872 63.7304L1.8021 64.1179L1.74425 64.3464L1.69798 64.9393L1.75872 65.2893L1.82813 65.3818L1.92935 65.6045L2.00744 65.8648L2.05082 66.0412L2.14337 66.4259L2.19254 66.6544L2.29376 67.1373L2.34293 67.4092L2.55405 68.566L2.65528 69.2052L2.85194 70.5096L2.93003 71.1545L3.12959 72.2506L3.33782 73.1125L3.46797 73.5868L3.9336 75.1457L3.92781 75.1254L3.79188 74.7263L3.56919 73.9975L3.32336 73.0894L3.22503 72.6526L2.99076 71.811L2.93292 71.6202L2.82591 71.3049L2.69287 70.9752L2.63503 70.8653L2.50199 70.4517L2.43258 70.2175L2.28219 69.5957L2.2041 69.2631L2.04504 68.4851L1.96406 68.0831L1.80499 67.201L1.64881 66.3015L1.37406 64.4158L1.31333 63.956L1.2121 63.0739L1.20343 62.9813M36.5829 70.4431L36.0941 70.6571L36.6928 70.3939M37.7571 69.9196L37.5546 70.0121L37.8786 69.8675M45.0915 66.5994L43.8132 67.1865L41.3462 68.3087L40.1257 68.8639L38.136 69.7518L40.3079 68.7801L41.5111 68.2364L43.9405 67.1287L45.1928 66.5531L47.7205 65.3847L47.68 65.4021M0.93735 57.6367L0.97784 57.9085L1.00387 58.0069L1.06171 58.1804L1.09642 58.2411L1.25838 58.4118L1.37117 58.4407L1.62568 58.5766L1.74425 58.7386L1.78185 58.8687L1.84548 59.1695L1.85994 59.3864L1.88308 59.8723V60.202L1.85994 60.9626L1.81945 61.3531L1.78474 61.4948L1.70376 61.7464L1.64881 61.8303L1.52734 61.9633L1.44926 61.9951L1.13401 62.2178L1.13112 62.2236L1.09931 61.8708L1.05882 61.3068L0.995193 59.9735L0.966271 59.2823L0.931566 57.761L0.925781 57.5673M192.749 56.1183L192.723 58.753L192.709 58.9381L192.694 58.86L192.518 58.2209L192.362 57.9201L192.148 57.3128L192.093 56.9021L192.104 56.7112L192.159 56.3439L192.229 56.1964L192.391 55.9332L192.509 55.8609L192.663 55.6787L192.723 55.5225M188.53 35.133L189.016 36.3506L189.866 38.8754L190.274 40.1479L190.962 42.7595L191.283 44.0726L191.804 46.7391L192.041 48.0753L192.382 50.7621L192.532 52.1069L192.645 54.0273V54.0157L192.541 53.7525L192.31 53.258L192.154 53.1018L191.864 52.7576L191.737 52.5263L191.702 52.399L191.65 52.1358V51.9768L191.668 51.6442L191.699 51.4388L191.74 50.9269L191.746 50.5249L191.737 50.3138L191.682 49.4433L191.616 49.0846L191.485 48.3616L191.37 47.7253L191.303 47.358L191.023 45.7905L190.887 45.0356L190.65 43.8094L190.467 42.9331L190.369 42.4992L190.172 41.649L190.08 41.2672L189.895 40.5413L189.814 40.2636L189.337 38.4936L189.195 37.9326L189.14 37.6925L189.036 37.2413L189.004 37.0823L188.718 35.8358L188.495 35.0751L188.428 34.8958M15.8926 16.5192L15.693 16.7477L15.3257 17.1757L15.2071 17.329L15.103 17.4707L15.0683 17.5228L15.0191 17.6153L15.0162 17.6356L14.9411 18.3355L14.7213 18.6044L14.432 18.7432L14.2556 18.7693L13.7032 19.0296L13.3735 19.3419L13.281 19.5241L12.8674 20.1835L12.5059 20.6636L12.3352 20.8429L11.8985 21.3664L11.7973 21.5168L11.7655 21.5746L11.7163 21.6759V21.7048L11.5949 21.9824L11.4011 22.3411L11.2594 22.5869L10.9499 23.1219L10.7648 23.4343L10.3744 24.085L10.1604 24.4321L9.41419 25.7046L8.91385 26.6156L8.66513 27.0986L7.67602 29.0942L7.19592 30.1643L6.24441 32.3507L5.79902 33.4787L4.92849 35.749L4.53516 36.8798L3.78032 39.1299L3.4564 40.2087L2.85194 42.3344L2.61768 43.3148L2.39788 44.2779L2.30822 44.732L2.13758 45.6227L2.07685 46.0363L1.96406 46.8403L1.93224 47.2047L1.88308 47.9075V48.217L1.85416 48.7607L1.79921 49.0499L1.75582 49.1656L1.65171 49.3738L1.5794 49.4548L1.42034 49.5994L1.31911 49.6573L1.00965 49.9291L0.969163 50.013L0.972056 49.8684L1.0299 48.5236L1.04436 48.2025L1.07906 47.6096L1.09642 47.3233L1.13401 46.8085L1.15426 46.5627L1.20053 46.1375L1.27284 45.6141L1.40588 44.8129L1.78764 43.0285L1.99009 42.1204L2.47018 40.2521L2.7189 39.3237L3.25395 37.5479L3.38988 37.117L3.65885 36.3072L4.06374 35.1821L4.29801 34.5719L4.83305 33.2965L5.1107 32.6544L5.72383 31.3443L6.35142 30.0341L7.74254 27.4659L8.09538 26.8412L8.80973 25.6526L9.16836 25.0712L9.87404 23.9983L10.2211 23.4777L10.8979 22.558L11.8551 21.3867L12.0345 21.1871L12.3613 20.8024L12.5203 20.6145L12.7777 20.279L12.8963 20.1199L13.0583 19.877L13.1624 19.6543V19.634L13.2289 19.5241L13.2752 19.4576L13.4227 19.2696L13.5037 19.1655L13.7206 18.911L13.8363 18.7751L14.1081 18.4627L14.3944 18.1417L15.0857 17.3811L15.4443 16.9906L16.0892 16.3023M185.562 28.9727L186.161 30.0544L186.956 31.5872L187.517 32.7325L187.593 32.906L187.575 32.8742L187.442 32.5937L187.168 32.0181L187.006 31.6942L185.551 28.9496M180.215 21.0367L180.313 21.1408L180.542 21.3982L180.776 21.6701L181.325 22.3844L181.609 22.7662L181.907 23.1885L181.375 22.4683L181.114 22.1386L180.608 21.5197L180.38 21.2652L180.137 20.9615M176.929 17.0687L177.276 17.4244L177.913 18.0983L178.213 18.4251L178.717 18.9949L178.945 19.2609L179.26 19.6658L179.324 19.7526L179.408 19.8856L179.46 20.0129V20.0447L179.44 20.0129L179.35 19.8336L178.908 19.3188L178.506 19.0527L178.309 19.0064L177.704 18.6565L177.554 18.4598L177.49 18.3355L177.375 18.0723L177.331 17.9161L177.135 17.5199L176.906 17.1873L176.747 16.9906L176.403 16.5799L176.192 16.3515L176.024 16.175M20.9769 11.7703L20.4737 12.2215L20.1671 12.4876L20.037 12.5917L19.7941 12.7826L19.7102 12.8404L19.5656 12.9329H19.5424L19.4383 12.9821L19.3284 13.0602L19.2561 13.1209L18.9235 13.4102L18.8628 13.4651L18.9293 13.4015L19.1433 13.2077L19.2388 13.1209L19.3805 13.0053L19.5048 12.9329H19.5338L19.687 12.8404L19.7767 12.7826L20.0254 12.5917L20.1585 12.4876L20.4708 12.2215L20.9769 11.7703L21.2922 11.4811ZM163.597 7.08216L164.247 7.43211L165.558 8.1696L166.205 8.5398L167.432 9.2744L168.027 9.63881L169.069 10.3185L169.314 10.4804L169.751 10.7899L170.315 11.215L170.708 11.5274L170.839 11.6315L170.61 11.4522L170.52 11.3799L170.361 11.2526L170.315 11.2179L169.786 10.8159L169.369 10.5209L169.132 10.3647L168.117 9.69954L167.53 9.34092L166.312 8.60921L165.665 8.23901L164.354 7.49574L163.701 7.14L163.293 6.92309M27.5247 7.11976L27.6028 7.07059L27.6086 7.0677M31.8282 4.88414L31.5592 4.9709L31.3973 5.03453L31.0531 5.17914L30.8565 5.27168L30.4458 5.47124L30.2202 5.58693L29.2629 6.09883L28.725 6.40829L27.7734 6.96937L28.7076 6.41697L29.2455 6.10462L30.1999 5.59271L30.4255 5.47413L30.8333 5.27458L31.03 5.18203L31.3713 5.03742L31.5303 4.9709L31.7964 4.88703L32.0914 4.83497H32.1116M32.8781 4.62385L32.5686 4.73953L32.4413 4.77424L32.2071 4.83208H32.1782L32.398 4.78002L32.5252 4.74242L32.8491 4.62674L33.4102 4.36934M146.964 1.66519L147.54 1.75196L148.754 1.96887L149.978 2.19734L152.395 2.74974L152.974 2.89146L154.038 3.17778L154.55 3.31949L155.429 3.59135L155.84 3.72728L156.462 3.97312L156.598 4.03096L156.812 4.14086L156.939 4.23052L156.716 4.11483L155.863 3.80826L155.221 3.68101H154.969L154.079 3.57978L153.457 3.43518L153.234 3.34263L152.586 3.12283L152.401 3.07655L152.332 3.06788L152.205 3.05631L152.17 3.06209L151.898 3.03317L151.684 2.94352L151.591 2.87989L151.34 2.77866L151.068 2.71504L150.894 2.68612L150.114 2.582L149.68 2.56175L148.462 2.42582L148.138 2.3593L148.017 2.32171L147.808 2.24651L147.762 2.20891L147.386 2.0672H147.08L146.947 2.11926L146.49 2.11347L146.195 1.93994L146.076 1.77799L145.853 1.50612M73.715 3.78223L73.553 3.73018L73.2088 3.61738L73.0151 3.54219L72.6102 3.38023L72.399 3.28479L71.89 3.07077L72.3181 3.23851L72.5408 3.33974L72.9659 3.51327L73.1712 3.59425L73.5299 3.71861L73.6976 3.77067L73.9521 3.8314L74.169 3.83429H73.9579M44.8052 1.07809L44.6895 1.21691L44.461 1.40779L44.2731 1.48877L44.1545 1.50902L43.9029 1.53794L43.7438 1.52926L43.4112 1.50323L43.2059 1.47142L42.7431 1.41647L42.4857 1.40779L42.3874 1.41936L42.2139 1.44828L42.1618 1.47431L42.0837 1.54083V1.58421L42.023 1.69411L41.9246 1.76931L41.8466 1.80691L41.4793 1.96019L41.2132 2.03249L40.6348 2.17421L40.2906 2.23205L39.5762 2.34195L39.1916 2.37376L38.6565 2.45474L38.243 2.53862L38.0145 2.59646L37.0543 2.85675L36.9646 2.88856L37.3464 2.75553L38.2054 2.47788L39.0759 2.20313L40.869 1.71436L41.3086 1.60156L42.1676 1.39912L43.3852 1.15039L43.5963 1.1099L44.14 1.0376L44.4321 1.00289L45.1002 0.942158M132.067 1.61892L131.867 1.67098L131.734 1.69411L131.121 1.79245L130.765 1.81847L130.005 1.92259L129.354 2.03828L128.978 2.11636L127.373 2.4721L126.543 2.68322L126.3 2.74396L126.499 2.6919L127.326 2.48077L128.917 2.12215L129.287 2.04117L129.929 1.92259L130.676 1.81847L131.008 1.78955L131.676 1.68254L131.832 1.65652L132.096 1.59578L132.153 1.57843M135.899 1.30657L135.728 1.39622L135.419 1.59578L135.262 1.74039L134.878 2.08166L134.698 2.20024L134.632 2.20891L134.502 2.19156L134.435 2.13661L134.302 1.98911L134.215 1.87053L133.808 1.56108L133.432 1.41936L133.276 1.39333L133.625 1.37309L133.845 1.35863L134.349 1.33838L134.869 1.31814L135.962 1.295M144.063 1.36152L144.321 1.37309L144.769 1.40201L145.333 1.45117L145.414 1.45985L145.356 1.48877L145.096 1.64205L144.908 1.76642L144.451 2.04695L144.24 2.13661L144.153 2.13083L143.985 2.08744L143.895 2.01225L143.699 1.83004L143.566 1.68544L143.164 1.36441L143.054 1.32103M61.4147 0.759954L61.8254 0.783091L62.5542 0.832257L62.9042 0.858286L63.4971 0.916129L64.2085 1.02025L65.0906 1.18221L66.7276 1.53505L67.2771 1.65941L67.0457 1.61024L66.2764 1.45117L65.8368 1.36152L64.9258 1.18221L64.4196 1.08677L64.2085 1.05206L63.8181 0.988432L63.6561 0.968187L63.3611 0.936374L63.2397 0.93059L62.8319 0.939266L62.6959 0.98554L62.453 1.10701L62.3431 1.20823L61.9093 1.53505L61.6692 1.63338L61.5622 1.6247L61.3569 1.56397L61.2585 1.47142L61.059 1.24872L60.9491 1.0752L60.602 0.722356M48.4667 0.762846L48.3741 0.832257L48.2064 0.98554L48.1572 1.0752L47.8275 1.47142L47.5672 1.61892L47.437 1.63338L47.1825 1.62181L47.0726 1.5524L46.876 1.37309L46.8152 1.2198L46.4566 0.90456L46.2831 0.855394H46.2918L46.7111 0.829365L47.6221 0.783091L48.51 0.742601M57.1373 0.638484L58.1871 0.652945L59.4307 0.68765L59.2745 0.777306L59.1473 0.93059L58.8002 1.14461L58.6151 1.19667L58.4966 1.2198L58.2392 1.26029L58.0801 1.27765L57.7417 1.30657L57.5335 1.31814L57.0968 1.33838L56.8365 1.34416L56.287 1.35573L55.9688 1.35863L55.295 1.36441H54.9103L53.8287 1.36152L53.2126 1.35284L52.9552 1.34706L52.4694 1.3326L52.2669 1.32103L51.8938 1.29789L51.7463 1.28054L51.4716 1.24583L51.3646 1.22559L51.1766 1.17642L51.1072 1.1475L50.8989 1.02025L50.8642 0.93059L50.6878 0.710787L50.6386 0.678974L51.6914 0.655837L53.8894 0.632699L54.9884 0.624023M127.17 137.853L127.352 137.717L127.737 137.416L127.951 137.234L128.394 136.852L128.622 136.644L129.984 135.432L130.389 135.091L130.398 135.085L130.169 135.285L128.648 136.644L128.417 136.852L127.968 137.234L127.749 137.416L127.361 137.717L127.176 137.853L126.89 138.044L126.624 138.162L126.887 138.044M71.7136 103.321L72.6333 103.254L73.0411 103.22L73.8191 103.147L74.1228 103.113L74.4091 103.081L74.5219 103.066L74.733 103.035L74.8053 103.023L75.3288 102.956H75.6411L75.7828 102.98L76.3266 103.13L76.5897 103.303L77.0843 103.541L77.4921 103.639L77.7726 103.665L78.0705 103.685L78.2469 103.688L78.6171 103.694L78.8369 103.691L79.2968 103.679L79.5657 103.671L80.1297 103.648L80.4536 103.633L83.1809 103.474L84.0428 103.413L84.4101 103.384L85.0984 103.327L85.3384 103.303L86.2205 103.234L86.6573 103.228L86.8163 103.249L87.1026 103.306L87.2068 103.361L87.3948 103.489L87.4699 103.578L87.6926 103.755L87.898 103.859L88.0194 103.902L88.1785 103.943L87.4497 103.902L87.2444 103.891L86.6659 103.867L86.3536 103.853L85.5901 103.83L85.1881 103.818L84.2655 103.795L83.7883 103.784L82.7413 103.76L82.2063 103.749L81.0696 103.729L80.4912 103.72L79.2939 103.703L75.6324 103.665L66.8114 103.601L70.282 103.41L71.7136 103.321Z" fill="#42816C"/>
<path d="M93.9805 159.624L94.7556 159.829L94.6081 159.814L94.3825 159.788L93.9805 159.676L93.781 159.609L93.3818 159.404L93.1765 159.288L92.7195 158.97L93.5351 159.47M131.682 133.27L131.659 133.557L131.454 134.066L130.942 134.656L130.852 134.719L130.552 134.959L130.39 135.092L129.985 135.434L128.622 136.646L128.394 136.854L127.952 137.236L127.737 137.418L127.353 137.718L127.171 137.854L126.887 138.045L126.624 138.164H126.529L126.268 138.32L125.901 138.693L125.849 138.765L125.571 139.032L125.409 139.182L124.952 139.567L124.709 139.769L124.137 140.223L123.208 140.926L122.89 141.16L122.263 141.632L121.953 141.863L121.392 142.288L121.126 142.491L120.698 142.826L120.276 143.17L120.192 143.242L119.932 143.451L119.79 143.561L119.449 143.818L118.326 144.622L118.234 144.686L117.979 144.868L117.841 144.969L117.499 145.218L117.32 145.351L116.912 145.655L116.698 145.814L116.235 146.161L115.758 146.519L114.7 147.323L113.074 148.576L112.534 148.992L111.478 149.805L110.963 150.198L110.032 150.901L109.812 151.066L109.416 151.364L109.225 151.505L108.895 151.751L108.739 151.864L108.493 152.043L108.227 152.228L108.1 152.315L107.695 152.622L107.475 152.792L106.937 153.235L105.133 154.782L104.569 155.285L103.553 156.153L103.059 156.567L102.159 157.272L101.723 157.602L100.916 158.154L100.52 158.412L99.7706 158.825L99.4033 159.019L98.6889 159.311L98.3332 159.441L97.6217 159.626L97.2631 159.707L96.5921 159.794L96.7656 159.751L97.6796 159.464L98.1018 159.219L98.7612 158.814L99.276 158.475L99.5594 158.282L100.763 157.44L101.405 156.963L102.706 155.985L103.316 155.502L103.918 155.025L104.196 154.797L104.731 154.348L104.965 154.143L106.275 153.027L106.668 152.7L106.827 152.573L107.119 152.338L107.212 152.269L107.4 152.124L107.576 151.991L107.683 151.907L108.169 151.534L108.473 151.297L109.118 150.8L109.474 150.522L110.202 149.955L110.573 149.666L111.677 148.813L112.386 148.281L112.701 148.049L113.297 147.615L113.528 147.456L113.745 147.306L113.829 147.248L113.988 147.147L114.043 147.115L114.425 146.866L114.729 146.644L114.891 146.516L115.556 145.964L115.833 145.698L116.331 145.25L116.724 144.917L116.935 144.749L117.803 144.078L118.167 143.832L119.871 142.644L121.1 141.756L121.713 141.299L122.925 140.394L123.472 139.971L124.004 139.558L124.247 139.367L124.712 138.994L124.915 138.826L126.245 137.73L126.682 137.371L126.873 137.212L127.237 136.914L127.373 136.802L128.299 135.998L128.62 135.708L128.764 135.573L129.042 135.309L129.152 135.199L129.849 134.638L130.069 134.508L130.164 134.468L130.34 134.404H130.404L130.572 134.346L130.702 134.254L130.774 134.187L131.072 133.869L131.217 133.667L131.491 133.247L131.587 133.048L131.656 132.868M121.681 127.816L121.947 127.894L122.092 127.937L122.454 128.065L122.647 128.134L123.09 128.307L123.318 128.397L123.827 128.608L124.348 128.825L125.516 129.346L127.335 130.202L127.547 130.303L127.145 130.118L125.944 129.566L125.363 129.305L124.221 128.802L123.715 128.588L123.223 128.383L123 128.293L122.575 128.125L122.393 128.056L122.049 127.932L121.916 127.888L121.67 127.816M70.3142 116.869L70.1378 117.919V118.153L70.1696 118.428L70.1002 118.145L70.0886 117.974V117.624L70.1175 117.45L70.1985 117.1L70.2679 116.924L70.4299 116.574L70.5253 116.427M72.9807 114.868L72.6742 114.934L72.1912 115.079L71.9685 115.151L71.6185 115.319L71.4566 115.406L71.4103 115.44L71.4363 115.414L71.795 115.186L72.0321 115.099L72.5585 114.94L72.9287 114.868L73.322 114.795L73.4117 114.781M77.7499 113.335L77.8627 113.404L78.0825 113.587L78.1634 113.734L78.3919 113.954L78.6522 114.035L78.872 114.043L79.1121 114.049L79.2625 114.043L79.5835 114.029L79.731 114.017L79.6818 114.023L79.248 114.067L78.4469 114.148L78.0564 114.188L77.3392 114.263L76.9921 114.301L76.3588 114.373L76.0493 114.408L75.4882 114.474L75.2019 114.509L75.4275 114.472L75.5981 114.44L76.2084 114.312L76.4137 114.249L76.7637 114.113L76.8591 114.038L77.0095 113.879L77.0268 113.783L77.209 113.433L77.4028 113.312L77.5156 113.306M84.8934 113.387L84.8645 113.393L84.9166 113.381M85.226 113.286L85.1335 113.318L85.255 113.268M85.3359 113.069L85.3649 113.144V113.182L85.2839 113.251L85.2636 113.263L85.3012 113.234L85.362 113.17L85.3591 113.135L85.333 113.066M185.311 83.6905L184.739 84.7982L183.897 86.3484L183.602 86.869L182.876 88.0461L182.506 88.6361L181.765 89.7524L181.586 90.0156L181.256 90.487L181.1 90.7097L180.828 91.0713L180.704 91.2361L180.513 91.4588L180.342 91.6005H180.314L180.23 91.6641L180.183 91.7046L180.076 91.8348L179.726 92.3959L179.698 92.4508L179.576 92.6243L179.507 92.7198L179.304 92.9685L179.194 93.0986L178.925 93.411L178.784 93.573L178.457 93.9345L178.118 94.3075L177.309 95.1636L175.981 96.5171L175.521 96.9741L174.645 97.8707L174.22 98.3103L173.477 99.0998L173.3 99.2878L172.994 99.6233L172.846 99.7881L172.597 100.066L172.485 100.199L172.308 100.41L172.14 100.638L172.002 100.858L171.66 101.2L171.576 101.272L171.417 101.37L171.212 101.434H171.093L170.908 101.518L170.784 101.717V101.755L170.665 101.92L170.587 102.012L170.339 102.264L170.2 102.394L169.856 102.698L169.266 103.181L168.849 103.505L167.872 104.285L167.637 104.476L167.198 104.832L166.654 105.283L165.954 105.876L164.358 106.978L163.956 107.241L163.16 107.715L162.767 107.944L162.018 108.337L161.651 108.52L160.991 108.806L160.679 108.936L160.153 109.095L159.91 109.159L159.808 109.162L159.886 109.127L159.991 109.031L160.181 108.812L160.228 108.664L160.511 108.256L160.789 108.086H160.93L161.266 107.99L161.601 107.837L161.813 107.727L162.258 107.481L162.51 107.331L163.027 107.018L163.302 106.842L164.424 106.102L164.951 105.723L165.462 105.344L165.691 105.165L166.125 104.815L166.301 104.656L167.204 103.904L167.817 103.435L168.1 103.241L168.638 102.883L168.846 102.77L169.04 102.669L169.118 102.637L169.254 102.591H169.297L169.451 102.51L169.587 102.385L169.665 102.293L170.003 101.856L170.168 101.578L170.668 100.864L170.819 100.696L170.882 100.647L170.995 100.566H171.033L171.169 100.482L171.334 100.349L171.449 100.248L171.704 100.025L171.86 99.8836L172.187 99.5799L172.375 99.4064L173.179 98.6429L173.641 98.2004L174.59 97.2778L175.082 96.7948L176.068 95.8201L176.536 95.3516L177.445 94.4348L177.832 94.0357L178.208 93.6453L178.373 93.4746L178.682 93.1449L178.81 93.0061L179.044 92.7487L179.125 92.6533L179.267 92.4826L179.298 92.4335L179.547 92.0806L179.819 91.7104L179.993 91.4733L180.366 90.9729L180.574 90.6953L181.005 90.1226L181.23 89.8305L181.945 88.8472L182.448 88.1213L182.691 87.7511L183.171 87.0136L183.382 86.6723L183.781 86.0158L183.929 85.7468L184.365 84.9775L184.64 84.5148L184.759 84.3239L184.984 83.974L185.068 83.8583L185.216 83.6645L185.25 83.6442L185.375 83.5054L185.473 83.3579M155.091 108.207L155.285 108.314L155.352 108.418L155.456 108.661V108.826L155.632 109.095L155.551 109.089L154.736 108.988L154.293 108.927L153.564 108.803L153.677 108.814L153.772 108.812L154.085 108.783L154.183 108.728L154.357 108.589L154.438 108.476L154.762 108.216L154.99 108.172M158.874 108.748L159.065 108.806L159.123 108.841L159.178 108.884L159.137 108.855L159.065 108.814L158.857 108.754L158.808 108.742M158.195 108.679L158.059 108.673L157.772 108.67L157.263 108.751L157.15 108.777L156.989 108.846L156.994 108.841L157.136 108.774L157.24 108.748L157.74 108.664H158.059M133.62 104.254L134.048 104.361L134.924 104.58L135.396 104.699L137.357 105.182L138.412 105.436L140.558 105.954L141.643 106.214L143.806 106.726L144.836 106.969L145.854 107.206L146.34 107.319L146.797 107.423L146.331 107.319L143.309 106.619L142.513 106.431L141.012 106.073L140.278 105.896L138.895 105.564L138.219 105.399L136.952 105.089L136.333 104.936L135.179 104.65L134.618 104.508L133.574 104.242L133.351 104.184M75.9683 102.654L76.2402 102.735L76.3501 102.813L76.5641 102.998L76.6798 103.131L77.0471 103.461L77.3565 103.603L77.5879 103.646L77.6458 103.655L77.4925 103.64L77.0847 103.542L76.5901 103.305L76.3269 103.131L75.7832 102.981L75.6415 102.958H75.3292L74.8057 103.024L74.7334 103.036L74.5223 103.068L74.4095 103.082L74.1231 103.114L73.8195 103.149L73.0415 103.221L72.6337 103.256L72.2172 103.285L72.2577 103.276L72.5556 103.204L72.599 103.166L72.8535 103.048L73.1282 102.961L73.3018 102.92L74.0942 102.758L74.5396 102.706L75.4072 102.628L75.8208 102.625M85.0207 103.157L86.1371 103.221L86.2151 103.236L85.3388 103.305L85.0988 103.328L84.4105 103.386L84.0431 103.415L83.1813 103.476L82.8632 103.496V103.458L83.0454 103.302L83.3259 103.227L83.5284 103.201L83.9622 103.163L84.2167 103.155L84.743 103.149M125.667 101.587V101.575L125.687 101.633M6.88106 81.1107L7.0864 81.1888H7.06615M6.31709 80.7203L6.53979 80.8967L6.76537 81.0587L6.86949 81.1079L6.7538 81.0616L6.32288 80.7521L6.26503 80.6972L6.14067 80.5265L6.07704 80.4311L6.07126 80.4253M1.0563 62.4189L1.11415 62.5403L1.19802 62.6213L1.40336 62.8006L1.56243 62.925L1.88924 63.2229L2.03384 63.4138L2.07144 63.5121L2.12639 63.7146V63.8331L2.10325 64.079L2.06566 64.2265L2.00781 64.9119L2.06855 65.3544L2.14085 65.4961L2.21026 65.6639L2.26521 65.8345L2.29703 65.9444L2.43585 66.4563L2.51683 66.7889L2.68747 67.5061L2.77712 67.911L2.95643 68.7498L3.0432 69.1865L3.37579 70.6788L3.65922 71.8038L3.8154 72.3881L4.13932 73.5536L4.30417 74.106L4.63098 75.1703L4.78426 75.6186L5.19494 76.9027L5.41475 77.6604L5.48994 77.9699L5.6172 78.531L5.64033 78.7161L5.65769 78.8809L5.6519 78.933L5.64033 79.0226L5.62009 79.0342L5.5044 79.2193V79.3205L5.46102 79.2309L5.29328 78.8578L4.94044 77.9872L4.76402 77.5361L4.41118 76.5614L4.06123 75.5752L3.46834 73.5883L3.3382 73.114L3.12996 72.2521L2.9304 71.156L2.85232 70.5111L2.65565 69.2067L2.55443 68.5675L2.3433 67.4107L2.29414 67.1388L2.19291 66.6559L2.14374 66.4274L2.0512 66.0427L2.00781 65.8663L1.92973 65.606L1.8285 65.3833L1.75909 65.2908L1.69836 64.9408L1.74463 64.3479L1.80247 64.1194L1.75909 63.7319L1.46699 63.2721L1.32527 63.1535L1.14596 62.9048L1.07366 62.7775L1.03317 62.5375L1.03027 62.4218L1.04763 62.3871M189.554 73.516L189.239 74.4762L189.071 74.9736L188.672 76.0495L188.466 76.5961L188.001 77.7501L187.764 78.3343L187.613 78.6842L188.293 77.0242L188.707 75.9223L189.103 74.8464L189.268 74.3663L189.571 73.4553M1.46988 62.0284L1.37733 62.0834L1.11993 62.2598L1.09968 62.2858L1.13439 62.2193L1.44963 61.9966L1.50748 61.9735M1.86899 59.3706L1.89213 59.5643L1.92683 59.9635V60.1717L1.88345 61.0104L1.83718 61.1868L1.86032 60.9641L1.88345 60.2035V59.8738L1.86032 59.3879L1.85742 59.3156M1.98468 46.7695L1.91237 47.5128L1.93262 47.2062L1.96443 46.8418L2.03674 46.3241M2.8957 42.2086L2.72217 42.9288L2.39247 44.3372L2.26811 44.9822L2.05698 46.1795L2.07723 46.0378L2.13796 45.6242L2.3086 44.7335L2.39825 44.2794L2.61805 43.3163L2.85232 42.3359L3.14153 41.3236M177.135 17.5214L177.332 17.9176L177.375 18.0738L177.491 18.337L177.554 18.4613L177.705 18.658L178.309 19.0079L178.506 19.0542L178.908 19.3203L179.35 19.8351L179.44 20.0144L179.787 20.5263L180.38 21.2667L180.609 21.5212L181.115 22.1401L181.375 22.4698L181.927 23.216L182.208 23.6064L182.792 24.4567L183.084 24.8905L183.683 25.816L184.279 26.756L185.441 28.7486L187.006 31.6957L187.168 32.0197L187.443 32.5952L187.576 32.8757L187.807 33.3732L188.024 33.859L188.348 34.6775L188.495 35.0766L188.718 35.8373L189.004 37.0838L189.036 37.2428L189.14 37.694L189.195 37.9341L189.337 38.4951L189.814 40.2651L189.895 40.5428L190.08 41.2687L190.173 41.6505L190.37 42.5007L190.468 42.9346L190.65 43.8109L190.887 45.0371L190.986 45.5838L190.751 44.4067L190.647 43.9844L190.601 43.8196L190.514 43.5275L190.479 43.4465L190.323 43.0098L190.17 42.5441L190.08 42.2491L189.887 41.6215L189.782 41.2716L189.571 40.5514L189.464 40.1813L188.698 37.72L188.122 36.0947L187.807 35.2907L187.156 33.6971L186.806 32.9133L186.083 31.3573L185.696 30.5996L184.906 29.0928L184.49 28.364L183.637 26.915L183.188 26.218L182.28 24.8385L181.806 24.1791L180.843 22.8776L180.342 22.2587L179.776 21.5241L179.443 21.0556L179.31 20.8531L179.073 20.4685L178.998 20.3239L178.882 20.0693V20.0086L178.734 19.6442L178.515 19.4389L178.376 19.3897L177.763 19.0889L177.436 18.8431L177.32 18.7043L177.124 18.4179L177.08 18.2704L177.031 17.9697L177.071 17.8222L177.089 17.5098L177.071 17.4288M3.71996 39.3281L3.78069 39.1314L3.82697 38.9926M6.0944 32.7398L6.24479 32.3522L6.59763 31.5424M15.8409 16.593L15.5603 17.0095L15.4852 17.183L15.3753 17.4982L15.4042 17.5995L15.3579 18.1229L15.1902 18.5047L15.06 18.6782L14.7737 19.0079L14.6117 19.1178L14.2849 19.2971H14.1316L13.8569 19.462L13.7412 19.7049V19.8582L13.5879 20.3672L13.3623 20.694L13.2177 20.7982L12.9921 21.0006L12.8099 21.2002L12.7058 21.3274L12.2489 21.9059L11.977 22.2847L11.4072 23.1003L11.0949 23.5717L10.4586 24.5522L10.1318 25.0785L8.80433 27.265L8.21144 28.3322L7.6359 29.382L7.39007 29.865L6.92155 30.7963L6.90709 30.8281L7.1963 30.1658L7.67639 29.0957L8.6655 27.1001L8.91423 26.6171L9.41457 25.7061L10.1607 24.4336L10.3748 24.0865L10.7652 23.4358L10.9503 23.1234L11.2597 22.5884L11.4015 22.3426L11.5952 21.9839L11.7167 21.7063V21.6774L11.7659 21.5761L11.7977 21.5183L11.8989 21.3679L12.3356 20.8444L12.5063 20.6651L12.8678 20.185L13.2813 19.5256L13.3739 19.3434L13.7036 19.0311L14.256 18.7708L14.4324 18.7447L14.7216 18.6059L14.9414 18.337L15.0166 17.6371L15.0195 17.6168L15.0687 17.5243L15.1034 17.4722L15.2075 17.3305L15.3261 17.1772L15.6934 16.7492L15.8901 16.5236M171.652 12.2722L172.38 12.8419L173.734 13.9959L174.058 14.2793L174.665 14.8346L174.957 15.1064L175.492 15.627L175.747 15.8815L175.958 16.1042L175.941 16.0956L175.475 15.9336L175.255 15.9596L174.628 15.8497L174.22 15.6184L174.041 15.4448L173.705 15.0602L173.581 14.8288L173.375 14.3487L173.341 14.0913L173.26 13.7298L173.176 13.5678L173.112 13.5216L172.962 13.4521L172.855 13.4435L172.612 13.4406L172.447 13.4608L172.033 13.484L171.851 13.4521L171.793 13.4059L171.701 13.2931L171.681 13.1976L171.652 12.9778V12.8217L171.481 12.1883L171.365 12.0466M22.7126 10.4038L22.5796 10.5918L22.3453 10.9736L22.2874 11.1558L21.9809 11.6301L21.6772 11.7487L21.4603 11.7198L21.1479 11.7169L20.9918 11.7689L20.9339 11.8268L20.8269 11.9685L20.7864 12.0813L20.7141 12.33L20.6823 12.5006L20.5724 12.9373L20.477 13.1369L20.4076 13.2005L20.2543 13.3075L20.1444 13.3336L19.9072 13.3683H19.7482L19.2478 13.5158L18.8285 13.7471L18.5913 13.9149L18.1025 14.2764L17.848 14.4904L17.6022 14.7073L17.9782 14.3256L18.2385 14.0653L18.7041 13.617L18.9239 13.4117L19.2565 13.1224L19.3288 13.0617L19.4387 12.9836L19.5428 12.9345H19.5659L19.7106 12.8419L19.7944 12.7841L20.0374 12.5932L20.1675 12.4891L20.4741 12.223L20.9773 11.7718L21.2954 11.4768L22.1399 10.7972L22.5882 10.4472L22.8832 10.2303M170.315 11.2194L170.362 11.2541L170.521 11.3814L170.61 11.4537L170.842 11.6359L170.917 11.6966L170.498 11.4479L170.246 11.2686L170.206 11.2194L169.98 10.9852L169.821 10.8434M45.4014 0.856896L45.2336 0.955229L45.0746 1.06513L45.0167 1.13454L44.9126 1.28493L44.8895 1.3717L44.7767 1.64066L44.6639 1.7737L44.5858 1.81708L44.4152 1.89228L44.3052 1.90963L44.0652 1.93566L43.9177 1.92988L43.2438 1.96748L42.6712 2.04556L42.3357 2.10919L41.63 2.2509L41.2425 2.34345L40.4414 2.53723L40.0162 2.65002L38.2607 3.15036L37.3699 3.44246L35.597 4.0556L34.8017 4.37662L33.5436 4.85672L32.7541 5.13147L32.4099 5.23848L31.7621 5.42936L31.522 5.48142L31.2935 5.53059L31.2068 5.54215L31.0506 5.55662L31.0014 5.55083L30.3767 5.64916L30.0615 5.90656L29.9371 6.13504L29.6711 6.41847L29.3616 6.6643L29.1534 6.80891L28.7022 7.10391L28.4419 7.26297L27.8982 7.58689L27.6061 7.75175L26.3972 8.40537L25.8158 8.68012L25.249 8.94041L24.9916 9.04742L24.4999 9.24119L24.2975 9.30193L23.9389 9.46678L24.1558 9.3135L25.301 8.5413L25.8766 8.15954L27.045 7.41915L27.6234 7.06052L28.7253 6.40979L29.2633 6.10034L30.2206 5.58843L30.4462 5.47274L30.8568 5.27319L31.0535 5.18064L31.3977 5.03603L31.5596 4.9724L31.8286 4.88564L32.1323 4.83358H32.2075L32.4417 4.77574L32.569 4.74103L32.8784 4.62535L33.8994 4.13368L34.0584 4.04403L34.4402 3.85604L34.6397 3.7606L35.0851 3.56972L35.5421 3.38173L36.5514 3.026L37.0547 2.85825L38.0149 2.59796L38.2433 2.54012L38.6569 2.45625L39.192 2.37527L39.5766 2.34345L40.291 2.23355L40.6351 2.17571L41.2136 2.03399L41.4796 1.96169L41.8469 1.80841L41.925 1.77081L42.0234 1.69561L42.0841 1.58571V1.54233L42.1622 1.47581L42.2142 1.44978L42.3878 1.42086L42.4861 1.40929L42.7435 1.41797L43.2062 1.47292L43.4116 1.50473L43.7442 1.53076L43.9032 1.53944L44.1549 1.51052L44.2734 1.49027L44.4614 1.40929L44.6899 1.21841L44.8056 1.07959L45.1873 0.90317L45.3927 0.833759L45.6212 0.816406M145.712 1.40062L145.845 1.49606L146.077 1.77949L146.195 1.94145L146.49 2.11497L146.947 2.12076L147.08 2.0687H147.387L147.763 2.21042L147.809 2.24801L148.017 2.32321L148.139 2.36081L148.463 2.42733L149.68 2.56326L150.114 2.5835L150.895 2.68762L151.068 2.71654L151.34 2.78017L151.592 2.88139L151.684 2.94502L151.898 3.03467L152.17 3.06359L152.205 3.05781L152.332 3.06938L152.402 3.07806L152.587 3.12433L153.235 3.34413L153.457 3.43668L154.079 3.58129L154.97 3.68251H155.221L155.863 3.80977L156.717 4.11633L156.945 4.23491L157.445 4.42001L158.035 4.54726H158.111L158.342 4.59932L158.472 4.63402L158.802 4.7526L158.981 4.81912L159.401 4.99265L159.617 5.08809L160.109 5.31078L160.618 5.54794L161.795 6.13793L162.403 6.44739L163.701 7.14151L163.933 7.26876L163.638 7.12994L162.964 6.82915L162.712 6.74528L162.481 6.67009L162.391 6.65273L162.235 6.63249L162.186 6.64406L161.63 6.60935L161.156 6.47631L160.904 6.36641L160.395 6.12347L160.161 5.97597L159.716 5.66941L159.554 5.50456L159.143 5.25872L158.848 5.20377L158.738 5.24716L158.461 5.26451L158.183 5.2298L158.009 5.19221L157.237 4.99843L156.824 4.84515L156.005 4.56172L155.395 4.36795L155.068 4.26962L153.709 3.87918L153.009 3.69986L151.615 3.3557L150.984 3.22266L150.371 3.09541L150.094 3.04335L149.564 2.95369L149.342 2.92477L148.295 2.71654L148.032 2.63556L147.939 2.59507L147.789 2.51698L147.768 2.48228L147.459 2.35502H147.123L146.938 2.4013L146.325 2.39262L145.998 2.18728L145.851 1.97615L145.608 1.6638L145.472 1.55101L145.4 1.54233L145.252 1.5539L145.223 1.56836L145.356 1.49027L145.472 1.42954L145.637 1.39773M133.062 1.3717L132.7 1.43532L132.547 1.53655L132.275 1.78816L132.226 1.98194L131.992 2.40419L131.76 2.48228L131.604 2.42154L131.26 2.38973L130.896 2.40997L130.667 2.436L130.176 2.49963L129.904 2.54879L129.343 2.65291L129.056 2.71654L128.113 2.90453L127.434 3.02021L127.095 3.06938L126.422 3.15904L126.118 3.19085L125.539 3.24291L125.311 3.25158L123.946 3.42222L123.853 3.44536L124.255 3.31521L124.579 3.21688L125.328 3.00575L125.716 2.89874L126.543 2.68473L127.373 2.4736L128.978 2.11787L129.354 2.03978L130.005 1.92409L130.766 1.81998L131.121 1.79395L131.734 1.69561L131.867 1.67248L132.067 1.62042L132.238 1.54233L132.33 1.44978L132.651 1.3717L132.828 1.34567M65.8372 1.36302L66.2768 1.45268L67.0461 1.61174L67.4134 1.68983L68.0583 1.83155L68.3678 1.90385L68.9173 2.03689L69.1805 2.1063L69.6635 2.24223L70.1349 2.38105L70.9967 2.6934L71.3612 2.84668L71.1442 2.77149L70.9823 2.73389L70.6902 2.67894L70.5861 2.68473L70.4067 2.71654L70.3576 2.76571L69.9498 2.9132L69.5622 2.86404L69.3048 2.76281L68.5992 2.53144L68.1277 2.40997L67.9687 2.38684L67.1502 2.23644L66.6585 2.11208L66.459 2.04556L66.0946 1.90674L65.9789 1.84022L65.7996 1.71008V1.65513L65.6434 1.36013L65.5248 1.30228M144.414 2.07448L144.228 2.14679L144.147 2.13522L144.029 2.09762L144.153 2.13233L144.24 2.13811L144.451 2.04846L144.628 1.93855M63.3615 0.937876L63.6565 0.969689L63.8185 0.989934L64.2089 1.05356L64.42 1.08827L64.9262 1.18371L65.2298 1.24444L64.9753 1.25601L64.8307 1.31385L64.5589 1.45557L64.4663 1.57704L64.2349 1.84311L64.1106 1.9212L64.0469 1.90674L63.9168 1.84601L63.83 1.75635L63.642 1.54233L63.5119 1.37459L63.188 0.98415L63.1272 0.932092H63.24M143.699 1.83155L143.722 1.85179L143.702 1.83444L143.664 1.79395M143.566 1.68694L143.572 1.69272L143.306 1.4787M61.6841 1.6291H61.687ZM61.4556 1.59439L61.363 1.57125L61.3602 1.56547M61.3457 1.5539L61.2618 1.4787L61.0594 1.25312V1.25023L61.2589 1.47292M143.164 1.36591H143.167L143.04 1.31675M125.632 101.451L125.606 101.39L125.528 101.223L125.438 101.038L125.146 100.523L124.987 100.248L124.582 99.5944L124.987 100.245L125.146 100.52L125.438 101.032L125.528 101.214L125.606 101.382L125.632 101.442L125.667 101.547V101.561M191.737 50.3153L191.68 49.4448L191.613 49.0861L191.492 48.4325L191.399 47.9033L191.347 47.614L191.231 46.9488L191.304 47.3595L191.37 47.7268L191.486 48.3631L191.616 49.0861L191.683 49.4448L191.737 50.3153Z" fill="#42816C"/>
<path d="M118.211 69.8336V69.9435L118.222 70.1141L118.245 70.1344L118.306 70.1315L118.364 70.0736L118.497 69.9146L118.595 69.7815L118.884 69.3333L119 69.0701L119.018 68.9573L119.026 68.7375L118.989 68.642L118.884 68.4627L118.786 68.3846L118.563 68.24L118.404 68.1793L118.057 68.0636L117.835 68.0144L117.357 67.9219L117.065 67.8843L116.452 67.8149L116.091 67.786L115.093 67.7252L114.564 67.7108L114.367 67.7166L114.017 67.7339L113.913 67.7541L113.751 67.7975L113.739 67.8264L113.763 67.8901L113.843 67.9277L114.055 68.0087L114.234 68.0491L114.636 68.1388L114.679 68.1446L114.532 68.1272L114.014 68.0607L112.964 67.9363L112.444 67.8785L111.472 67.7773L111.006 67.7339L110.228 67.6674L110.052 67.6529L109.751 67.6356L109.398 67.6211L109.103 67.6153L108.655 67.5748L108.453 67.5517L108.186 67.4794L108.077 67.4418L107.99 67.3406L107.97 67.2856L108.059 67.1613L108.126 67.0947L108.386 66.9501L108.536 66.8749L108.962 66.713L109.196 66.6291L109.783 66.4556L110.844 66.1866L112.256 65.8598L114.928 65.0963L115.579 64.8996L116.831 64.4831L117.447 64.272L118.624 63.8295L119.2 63.6068L120.287 63.1441L120.819 62.9098L121.696 62.4847L121.311 62.6929L120.66 63.0082L120.044 63.3089L119.798 63.4362L119.35 63.6762L119.2 63.763L118.954 63.9134L118.922 63.9481L118.916 63.9944L119.015 63.9683L119.576 63.7919L120.015 63.63L120.258 63.5287L121.276 63.0862L121.797 62.8288L122.826 62.3025L123.257 62.0509L123.674 61.8021L123.844 61.6893L124.16 61.4724L124.27 61.3799L124.996 60.868L125.215 60.7494L125.305 60.7118L125.473 60.654H125.528L125.855 60.573L126.045 60.4544L126.092 60.3792L126.144 60.0871V59.769L126.126 59.5636L126.086 59.124L126.054 58.8782L125.982 58.375L125.935 58.1147L125.739 57.0764L125.626 56.6541L125.516 56.2579L125.461 56.1104L125.351 55.853L125.302 55.7923L124.978 55.6014L124.608 55.5233L124.31 55.506L123.992 55.4915H123.798H123.388L123.145 55.4944L122.633 55.5089L122.332 55.5204L121.704 55.5436L121.343 55.5609L119.524 55.6477L118.517 55.6968L118.106 55.7171L117.343 55.7605L117.039 55.7807L116.481 55.8183L116.267 55.8357L115.88 55.8704L115.741 55.8877L115.489 55.9253L115.405 55.9456L115.154 56.0323L115.099 56.0873L115.157 56.1249L115.295 56.1451L115.408 56.1538L115.663 56.1654L115.83 56.1711L116.189 56.1798H116.406H116.857H117.112L117.644 56.174L117.933 56.1683L117.988 56.1654L117.901 56.1711L115.836 56.3534L115.33 56.4054L114.358 56.5211L113.878 56.5818L112.982 56.7149L112.545 56.7843L111.75 56.9318L110.7 57.166L110.335 57.2586L109.757 57.3887L109.67 57.4061L109.74 57.3772L109.928 57.2181L109.968 57.14L110.011 56.9838L109.968 56.9347L109.829 56.8566L109.679 56.871L109.404 56.8884L109.239 56.8913L109.291 56.8624L109.508 56.7438L110.072 56.4661L110.373 56.3215L111.079 56.0063L111.446 55.8443L112.259 55.5031L112.675 55.3295L113.563 54.9796L116.328 53.9673L117.016 53.7331L118.271 53.279L118.879 53.0534L119.986 52.6109L120.521 52.3911L121.487 51.9573L121.953 51.7404L122.786 51.3124L123.188 51.0983L123.897 50.6703L124.238 50.4534L124.831 50.0225L125.114 49.8027L125.6 49.3631L126.219 48.6834L126.407 48.4492L126.676 48.05L126.794 47.8563L126.948 47.4803L126.985 47.3588L126.913 47.6307L126.841 47.784L126.679 48.0847L126.566 48.238L126.314 48.5764L126.242 48.6863L126.135 48.8627V48.9032L126.167 48.9553L126.236 48.9466L126.413 48.9119L126.552 48.8743L127.035 48.6805L127.249 48.4752L127.315 48.2901L127.376 48.0905L127.399 47.9633L127.442 47.6885L127.457 47.5179L127.489 47.1535L127.5 46.9308L127.523 46.4594L127.535 46.1788L127.549 45.2447L127.529 44.7501L127.503 44.565L127.439 44.2266L127.393 44.1081L127.286 43.9027L127.214 43.8449L126.988 43.7408L126.766 43.6916L126.624 43.6771L126.314 43.654L126.132 43.6511H125.747L125.531 43.6598L124.602 43.7147L124.064 43.7697L122.945 43.9027L122.343 43.9953L119.853 44.4204L118.647 44.7009L117.462 44.9873L116.921 45.1434L115.88 45.4587L115.443 45.6235L114.731 45.9012L114.37 46.0545L114.245 46.1152L114.031 46.2251L113.982 46.2598L113.916 46.3234L113.936 46.3379L114.011 46.3552L114.101 46.3437L114.318 46.309L114.48 46.2743L114.835 46.1875L115.064 46.1268L115.553 45.9879L115.848 45.8983L118.159 45.2736L119.694 44.9323L120.443 44.7993L121.921 44.565L122.196 44.5361L122.069 44.5534L120.206 44.8716L119.752 44.9555L118.887 45.1377L117.713 45.4211L117.534 45.4703L117.103 45.5859L116.874 45.6496L116.36 45.7884L115.827 45.9359L114.601 46.2743L113.971 46.4478L112.661 46.8122L110.772 47.3415L110.217 47.4976L109.204 47.7666L108.713 47.8939L107.834 48.105L107.408 48.2033L106.659 48.3595L106.304 48.4289L105.685 48.5243L105.393 48.5648L104.91 48.6024L104.684 48.614L104.331 48.5938L104.172 48.5764L103.952 48.4983L103.773 48.3161L103.767 48.2959L103.825 48.2062L103.863 48.1542L104.004 48.0009L104.085 47.917L104.302 47.7088L104.418 47.5989L104.699 47.3444L104.996 47.0812L105.74 46.4478L106.13 46.1181L107.004 45.4008L107.894 44.6778L109.731 43.2607L110.168 42.931L110.954 42.3583L111.929 41.6931L112.097 41.589L112.583 41.2304L112.846 41.0308L113.485 40.5189L113.82 40.2471L114.561 39.6281L114.937 39.31L115.723 38.6304L116.513 37.9449L118.008 36.5856L118.355 36.2617L118.965 35.6775L119.694 34.9371L119.865 34.7549L120.143 34.4512L120.273 34.3095L120.475 34.0752L120.568 33.9653L120.704 33.786L120.761 33.7022L120.816 33.5951L120.802 33.6588L120.733 33.7889L120.608 34.0261L120.579 34.1013L120.542 34.217L120.562 34.2343L120.631 34.243L120.707 34.2112L120.892 34.1244L121.033 34.0492L121.453 33.6877L121.563 33.4072L121.534 33.2568L121.424 32.9473L121.288 32.7911L120.964 32.4817L120.724 32.3342L120.331 32.0797L120.004 31.857L119.819 31.7268L119.049 31.1773L118.699 30.9112L118.002 30.4225L117.626 30.2085L117.453 30.1506L117.112 30.061L116.926 30.0552L116.542 30.0638L116.305 30.0928L115.44 30.2721L115.206 30.3473L115.119 30.3849L114.966 30.4601L114.931 30.4948L114.905 30.5873L114.969 30.6307L115.038 30.6423L115.194 30.6596H115.304L115.544 30.6481L115.689 30.6307L115.868 30.6249L115.544 30.6828L115.229 30.7522L114.486 31.0009L114.095 31.1455L113.199 31.5388L112.733 31.7557L111.68 32.2995L111.134 32.5916L109.919 33.2886L109.291 33.6559L107.909 34.5062L107.197 34.9516L105.641 35.9609L103.108 37.6557L102.185 38.2833L100.479 39.4112L99.646 39.9521L98.1045 40.918L97.3497 41.3808L95.9383 42.2021L95.2471 42.5955L93.9398 43.2838L93.2978 43.6135L92.0657 44.189L91.4555 44.4638L90.2668 44.9352L89.6768 45.1608L88.5055 45.5483L86.7326 46.0516L86.3653 46.1441L85.7348 46.28L85.4341 46.3379L84.9424 46.3986L84.7139 46.4218L84.3582 46.4131L84.1962 46.3986L83.9764 46.3148L83.8839 46.2627L83.7971 46.1065L83.7711 46.0198L83.8174 45.7855L83.8579 45.6611L84.0372 45.3546L84.4479 44.8051L84.5751 44.6547L84.8817 44.1977L85.0407 43.949L85.3936 43.333L85.5758 43.0062L85.9547 42.2744L86.1455 41.8985L86.5302 41.0973L86.9091 40.2875L87.5916 38.6564L87.7507 38.2631L88.0167 37.5313L88.3262 36.5596L88.4795 36.0014L88.6646 34.9024L88.7369 34.3558L88.7629 33.2568L88.7542 32.7044L88.6183 31.588L88.2394 29.9019L88.3204 30.1709L88.4187 30.6452L88.5142 31.0934L88.5634 31.2901L88.6559 31.669L88.6993 31.8223L88.7803 32.0941L88.8121 32.1809L88.8699 32.311H88.8873L88.9364 32.2358L88.9451 32.1115L88.9393 32.016L88.922 31.8107L88.9017 31.6777L88.8584 31.3971L88.8294 31.2323L88.6819 30.5208L88.5807 30.1014L88.358 29.2309L88.2221 28.7682L87.9473 27.9034L87.7854 27.5159L87.6986 27.3973L87.5251 27.2064L87.4181 27.163L87.1867 27.1052H87.0363L86.5244 27.2209L86.3335 27.4002V27.5303L86.4492 27.7906L86.6198 27.8456L86.7384 27.7993L86.964 27.7791L87.1173 27.8282L87.1954 27.8803L87.2012 27.8861L86.938 27.8051L86.3827 27.9468L86.3393 27.9699L86.1716 28.1059L86.0761 28.1869L85.8158 28.424L85.677 28.557L85.3357 28.8868L85.1564 29.0632L84.7486 29.471L84.5346 29.685L84.069 30.1622L83.8318 30.408L83.3199 30.9373L82.7993 31.4781L81.6743 32.6697L81.1046 33.277L79.9506 34.5206L79.3779 35.1395L78.2934 36.334L77.767 36.9182L76.8444 37.9623L76.6275 38.211L76.2429 38.6622L75.7454 39.2579L75.1149 40.0301L73.8945 41.6758L73.2987 42.5087L72.1765 44.2208L71.6328 45.0798L70.6524 46.7948L69.3856 49.3023L69.108 49.9068L68.6366 50.9248L68.411 51.4049L68.0292 52.206L67.847 52.582L67.526 53.2067L67.3727 53.5017L67.0893 53.9934L66.8145 54.459L66.2708 55.1647L65.2759 56.2203L65.0677 56.4257L64.631 56.8103L64.3996 57.0041L63.853 57.4003L63.5551 57.6028L62.8089 58.0568L62.6065 58.1754L62.1466 58.4299L61.9066 58.5629L61.3686 58.8493L61.091 58.9968L60.4605 59.3178L60.1337 59.4855L59.4049 59.8471L59.026 60.035L58.1815 60.4457L57.7448 60.6597L56.7788 61.1225L56.2785 61.3625L55.1766 61.886L54.6097 62.155L53.3632 62.7421L52.7212 63.0429L51.3185 63.7023L49.025 64.7752L47.7207 65.3855L45.1929 66.5539L43.9406 67.1294L41.5113 68.2371L40.3081 68.7809L37.9655 69.8307L36.8029 70.3455L34.5354 71.3404L32.2854 72.3237L27.9645 74.1516L21.6597 76.7227L20.9337 77.0119L19.5947 77.544L18.944 77.8014L17.7437 78.2757L17.1595 78.5071L16.0894 78.9265L15.5717 79.1289L14.626 79.4962L14.1662 79.6755L13.339 79.9937L12.937 80.1469L12.2197 80.4188L11.8727 80.549L11.2538 80.7745L10.9588 80.8844L10.4353 81.0695L10.1837 81.1563L9.74986 81.3038L9.54163 81.3732L9.1859 81.4831L8.84752 81.5814L8.38189 81.6856L8.17944 81.7232L7.9365 81.7145L7.76297 81.5959L7.71959 81.4831L7.52581 81.3067L7.18165 81.1881H7.08621L6.87219 81.11L6.76518 81.058L6.5396 80.896L6.3169 80.7196L5.9149 80.2337L5.73558 79.985L5.53314 79.5078L5.50132 79.3979L5.50421 79.2186L5.6199 79.0335L5.64014 79.0219L5.65171 78.9323L5.6575 78.8802L5.64014 78.7153L5.61701 78.5302L5.48975 77.9692L5.41456 77.6597L5.19476 76.902L4.78407 75.6179L4.63079 75.1696L4.30398 74.1053L4.13913 73.5529L3.81521 72.3873L3.65903 71.8031L3.37561 70.6781L3.04301 69.1858L2.95625 68.749L2.77693 67.9103L2.68728 67.5054L2.51664 66.7882L2.43566 66.4556L2.29684 65.9437L2.26503 65.8338L2.21008 65.6631L2.14066 65.4954L2.06836 65.3537L2.00763 64.9112L2.06547 64.2257L2.10307 64.0782L2.1262 63.8324V63.7138L2.07125 63.5114L2.03366 63.4131L1.88905 63.2222L1.56224 62.9243L1.40317 62.7999L1.19783 62.6206L1.11396 62.5396L1.05612 62.4182L1.04455 62.3632L1.11974 62.2591L1.37714 62.0827L1.46969 62.0277L1.62008 61.8079L1.6866 61.6836L1.79072 61.3567L1.88326 61.0097L1.92665 60.171V59.9627L1.89194 59.5636L1.8688 59.3698L1.78782 59.0315L1.74155 58.8724L1.6143 58.6352L1.37136 58.4415L1.25856 58.4126L1.0966 58.2419L1.0619 58.1812L1.00406 58.0077L0.978028 57.9093L0.937538 57.6375L0.917293 57.49L0.885479 57.0995L0.871019 56.8884L0.850774 56.3591L0.842097 56.0757L0.824745 55.3816L0.807392 54.1322L0.801608 53.6492L0.792931 52.8394L0.790039 52.4605L0.792931 51.8387V51.5495L0.807392 51.0868L0.816068 50.8757L0.847882 50.5459L0.865234 50.3984L0.911509 50.1758L0.94043 50.0745L1.00984 49.9299L1.3193 49.6581L1.42052 49.6002L1.57959 49.4556L1.65189 49.3746L1.75601 49.1664L1.79939 49.0507L1.85434 48.7615L1.88326 48.2178V47.7984L1.98449 46.7688L2.04812 46.2251L2.26792 44.9815L2.39228 44.3365L2.72198 42.9281L2.89551 42.2079L3.31776 40.6809L3.53756 39.9087L4.0379 38.3122L4.2982 37.5111L4.86505 35.8944L5.15427 35.0875L5.77318 33.4968L6.74494 31.1918L6.92136 30.7956L7.38988 29.8643L7.63572 29.3813L8.21125 28.3315L8.80414 27.2643L10.1316 25.0778L10.4584 24.5514L11.0947 23.571L11.4071 23.0996L11.9768 22.284L12.2487 21.9051L12.7056 21.3267L12.8097 21.1995L12.9919 20.9999L13.2175 20.7975L13.3621 20.6933L13.5877 20.3665L13.741 19.8575V19.7042L13.8567 19.4613L14.1314 19.2964H14.2847L14.6115 19.1171L14.7735 19.0072L15.0598 18.6775L15.19 18.504L15.3577 18.1222L15.404 17.5987L15.3751 17.4975L15.485 17.1823L15.5602 17.0088L15.8407 16.5923L15.9969 16.3725L16.4018 15.8982L16.6158 15.6581L17.0959 15.1751L17.3417 14.9351L17.8478 14.4897L18.1023 14.2757L18.5911 13.9142L18.8283 13.7464L19.2476 13.5151L19.748 13.3676H19.907L20.1442 13.3328L20.2541 13.3068L20.4074 13.1998L20.4768 13.1362L20.5722 12.9366L20.6821 12.4999L20.7139 12.3293L20.7862 12.0806L20.8267 11.9678L20.9337 11.826L20.9916 11.7682L21.1478 11.7161L21.4601 11.719L21.677 11.748L21.9807 11.6294L22.2873 11.1551L22.3451 10.9729L22.5794 10.5911L22.7124 10.4031L23.0595 10.0503L23.2446 9.87964L23.6581 9.59911L24.2973 9.30122L24.4997 9.24048L24.9914 9.04671L25.2488 8.9397L25.8157 8.67941L26.397 8.40465L27.6059 7.75103L27.898 7.58618L28.4417 7.26226L28.702 7.10319L29.1532 6.8082L29.3614 6.66359L29.6709 6.41776L29.9369 6.13433L30.0613 5.90585L30.3765 5.64845L31.0013 5.55012L31.0504 5.5559L31.2066 5.54144L31.2934 5.52987L31.5218 5.48071L31.7619 5.42865L32.4097 5.23777L32.7539 5.13076L33.5434 4.85601L34.8015 4.37591L35.5969 4.05488L37.3697 3.44175L38.2605 3.14965L40.016 2.64931L40.4412 2.53651L41.2423 2.34274L41.6298 2.25019L42.3355 2.10848L42.671 2.04485L43.2436 1.96676L43.9175 1.92917L44.065 1.93495L44.3051 1.90892L44.415 1.89157L44.5856 1.81637L44.6637 1.77299L44.7765 1.63995L44.8893 1.37098L44.9124 1.28422L45.0165 1.13383L45.0744 1.06442L45.2334 0.954516L45.4012 0.856183L45.8263 0.778095L46.0374 0.763635L46.4337 0.861967L46.5204 0.896673L46.6679 1.00368L46.8154 1.22059L46.8762 1.37388L47.0728 1.55319L47.1827 1.6226L47.4372 1.63417L47.5674 1.61971L47.8277 1.47221L48.1574 1.07599L48.2065 0.986329L48.3743 0.833046L48.4668 0.763635L48.7069 0.653734L48.9585 0.552509L49.5572 0.474421L49.8551 0.459961L50.3843 0.564077L50.5029 0.601675L50.688 0.711576L50.8644 0.931379L50.8991 1.02103L51.1074 1.14829L51.1768 1.17721L51.3648 1.22638L51.4718 1.24662L51.7465 1.28133L51.894 1.29868L52.2671 1.32182L52.4695 1.33339L52.9554 1.34785L53.2128 1.35363L53.8288 1.36231L54.9105 1.3652H55.2952L55.969 1.35941L56.2872 1.35652L56.8367 1.34495L57.097 1.33917L57.5337 1.31892L57.7419 1.30736L58.0803 1.27843L58.2394 1.26108L58.4968 1.22059L58.6153 1.19746L58.8004 1.1454L59.1475 0.931379L59.2747 0.778095L59.5813 0.601675L59.7404 0.532264L60.0787 0.517803L60.2465 0.532264L60.5588 0.679763L60.9493 1.07599L61.0592 1.25241L61.2616 1.47799L61.3629 1.57054L61.574 1.6226L61.6839 1.62838L61.9355 1.51559L62.4011 1.15697L62.5313 1.0355L62.7193 0.893781L62.8089 0.83883L62.9535 0.830154L63.0258 0.844615L63.1878 0.983437L63.5117 1.37388L63.6419 1.54162L63.8298 1.75564L63.9166 1.84529L64.0468 1.90603L64.1104 1.92049L64.2347 1.8424L64.4661 1.57632L64.5587 1.45485L64.8305 1.31314L64.9751 1.2553L65.273 1.24084L65.4147 1.24951L65.6432 1.35941L65.7994 1.65441V1.70936L65.9787 1.83951L66.0944 1.90603L66.4588 2.04485L66.6583 2.11137L67.15 2.23573L67.9685 2.38612L68.1276 2.40926L68.599 2.53073L69.3046 2.7621L69.562 2.86332L69.9496 2.91249L70.3574 2.76499L70.4065 2.71583L70.5859 2.68401L70.69 2.67823L70.9821 2.73318L71.144 2.77078L71.5518 2.91249L72.2922 3.22484L72.5178 3.32896L72.9487 3.50538L73.157 3.58925L73.5214 3.71361L73.692 3.76856L73.9494 3.8293L74.1692 3.83508L74.1923 3.82062L74.2849 3.8264L74.3398 3.83508L74.4989 3.88136L74.6724 3.93341L75.1844 4.14743L75.462 4.26601L76.1445 4.59282L76.5003 4.76635L77.3014 5.17703L78.1228 5.60218L79.8899 6.59418L80.3266 6.8429L81.1653 7.34324L82.3192 8.06917L82.487 8.17907L82.8977 8.4625L83.1146 8.61578L83.6149 8.97441L83.8723 9.16239L84.4392 9.58464L84.7313 9.80155L85.3473 10.2701L85.9749 10.7473L87.2937 11.7827L89.2257 13.3386L89.8504 13.8505L91.0448 14.8107L91.6348 15.2793L92.7483 16.144L93.292 16.5634L94.3042 17.3211L94.7959 17.6826L95.6867 18.316L96.1147 18.6168L96.8638 19.1142L97.2195 19.3456L97.8124 19.6927L98.0872 19.8459L98.5007 20.031L98.8998 20.1149L98.9316 20.1091L99.0763 20.0079L99.1601 19.9472L99.406 19.7447L99.539 19.6319L99.8745 19.3398L100.051 19.1836L100.462 18.8106L100.676 18.6168L101.147 18.1772L101.39 17.9487L101.913 17.4541L103.608 15.8114L104.288 15.1433L105.595 13.9113L106.237 13.3155L107.443 12.2512L108.03 11.7451L109.092 10.889L109.346 10.6894L109.823 10.3337L110.483 9.87386L110.894 9.59911L111.796 9.03514L112.256 8.75171L113.23 8.18196L114.214 7.61221L116.218 6.5508L116.71 6.29918L117.647 5.84222L118.104 5.62242L118.945 5.24644L119.35 5.06713L120.053 4.79238L120.906 4.51763L121.299 4.42218L122.112 4.14165L122.3 4.07224L122.63 3.93052L122.997 3.73964L123.087 3.6818L123.382 3.569L123.544 3.51695L123.946 3.42151L125.311 3.25087L125.539 3.24219L126.118 3.19014L126.421 3.15832L127.095 3.06867L127.434 3.0195L128.113 2.90381L129.056 2.71583L129.342 2.6522L129.903 2.54808L130.175 2.49892L130.667 2.43529L130.895 2.40926L131.26 2.38901L131.604 2.42083L131.76 2.48156L131.992 2.40348L132.226 1.98122L132.275 1.78745L132.547 1.53583L132.7 1.43461L133.096 1.3652L133.299 1.35363L133.707 1.47221L134.216 1.87132L134.302 1.9899L134.435 2.1374L134.502 2.19235L134.632 2.2097L134.699 2.20103L134.878 2.08245L135.263 1.74118L135.419 1.59657L135.728 1.39701L135.899 1.30736L136.388 1.20324L136.529 1.18299L136.882 1.15118L137.073 1.13672L137.539 1.11937L137.787 1.11069L138.389 1.10201L139.474 1.09623H139.876L140.552 1.09912H140.873L141.4 1.11069L141.648 1.11648L142.05 1.13961L142.238 1.15118L142.536 1.18589L142.817 1.22638L143.167 1.36809L143.572 1.69201L143.702 1.83372L143.896 2.01304L143.988 2.08534L144.147 2.13451L144.228 2.14608L144.413 2.07377L144.784 1.83951L144.937 1.7325L145.154 1.60525L145.252 1.55319L145.4 1.54162L145.472 1.5503L145.608 1.66309L145.851 1.97544L145.998 2.18657L146.325 2.39191L146.938 2.40058L147.123 2.35431H147.459L147.768 2.48156L147.788 2.51627L147.939 2.59436L148.031 2.63485L148.295 2.71583L149.342 2.92406L149.564 2.95298L150.093 3.04264L150.371 3.0947L150.984 3.22195L151.615 3.35499L153.009 3.69915L153.709 3.87846L155.068 4.2689L155.395 4.36723L156.005 4.56101L156.823 4.84444L157.237 4.99772L158.009 5.19149L158.183 5.22909L158.46 5.2638L158.738 5.24644L158.848 5.20306L159.143 5.25801L159.554 5.50384L159.716 5.6687L160.161 5.97526L160.395 6.12276L160.904 6.3657L161.156 6.4756L161.63 6.60864L162.185 6.64334L162.235 6.63178L162.391 6.65202L162.48 6.66937L162.712 6.74457L162.963 6.82844L163.637 7.12922L163.996 7.29697L164.829 7.725L165.254 7.9477L166.153 8.45382L166.605 8.71122L167.487 9.24048L167.918 9.50656L168.693 10.0156L169.06 10.2614L169.641 10.6981L169.772 10.7993L169.98 10.9844L170.205 11.2187L170.246 11.2679L170.497 11.4472L171.001 11.7451L171.209 11.8521L171.481 12.1876L171.651 12.8209V12.9771L171.68 13.1969L171.701 13.2924L171.793 13.4052L171.851 13.4514L172.033 13.4832L172.447 13.4601L172.612 13.4399L172.855 13.4428L172.962 13.4514L173.112 13.5208L173.176 13.5671L173.259 13.7291L173.34 14.0906L173.375 14.348L173.58 14.8281L173.705 15.0595L174.04 15.4441L174.22 15.6176L174.627 15.849L175.255 15.9589L175.475 15.9329L175.94 16.0948L176.169 16.2047L176.574 16.5547L176.756 16.7427L176.999 17.1794L177.045 17.2893L177.089 17.5091L177.071 17.8214L177.031 17.9689L177.08 18.2697L177.123 18.4172L177.32 18.7035L177.436 18.8424L177.763 19.0882L178.376 19.389L178.514 19.4381L178.734 19.6435L178.882 20.0079V20.0686L178.997 20.3231L179.073 20.4677L179.31 20.8524L179.443 21.0549L179.775 21.5234L180.342 22.258L180.843 22.8769L181.806 24.1784L182.28 24.8378L183.188 26.2173L183.636 26.9143L184.49 28.3633L184.906 29.0921L185.696 30.5989L186.083 31.3566L186.806 32.9126L187.156 33.6964L187.807 35.2899L188.122 36.0939L188.698 37.7193L189.464 40.1805L189.571 40.5507L189.782 41.2709L189.886 41.6208L190.08 42.2484L190.17 42.5434L190.323 43.009L190.479 43.4458L190.514 43.5267L190.601 43.8188L190.647 43.9837L190.751 44.4059L191.049 45.9041L191.139 46.4218L191.347 47.6133L191.399 47.9025L191.491 48.4318L191.613 49.0854L191.679 49.444L191.737 50.3146L191.746 50.5257L191.74 50.9277L191.7 51.4396L191.668 51.645L191.651 51.9776V52.1366L191.703 52.3998L191.737 52.5271L191.865 52.7584L192.154 53.1026L192.31 53.2588L192.541 53.7533L192.645 54.0165L192.752 54.5978L192.79 54.8842L192.752 55.3874L192.735 55.4973L192.663 55.6795L192.509 55.8617L192.391 55.934L192.229 56.1972L192.16 56.3447L192.105 56.712L192.093 56.9029L192.148 57.3135L192.362 57.9209L192.518 58.2217L192.695 58.8608L192.758 59.179V59.7979L192.735 60.0987L192.562 60.625L192.113 61.2324L191.966 61.3539L191.772 61.5447L191.691 61.6373L191.622 61.8253L191.601 61.9265L191.645 62.181L191.818 62.7045L191.885 62.8809L191.969 63.1701L192.003 63.306L192.024 63.5287L191.841 64.0435L191.752 64.1534L191.59 64.5554L191.448 65.2235L191.439 65.3392L191.379 65.7383L191.341 65.961L191.231 66.5337L191.17 66.8373L191.023 67.5372L190.945 67.8988L190.774 68.6738L190.595 69.4605L190.21 71.0541L190.115 71.4387L189.933 72.1531L189.675 73.0901L189.571 73.4545L189.267 74.3656L189.103 74.8457L188.706 75.9215L188.293 77.0234L187.347 79.3371L187.113 79.8953L186.659 80.9307L186.439 81.4253L186.046 82.2669L185.95 82.4606L185.779 82.799L185.699 82.9581L185.557 83.2155L185.487 83.3341L185.375 83.5047L185.25 83.6435L185.216 83.6638L185.068 83.8576L184.984 83.9732L184.759 84.3232L184.64 84.5141L184.365 84.9768L183.929 85.7461L183.781 86.0151L183.382 86.6716L183.171 87.0129L182.691 87.7504L182.448 88.1206L181.945 88.8465L181.23 89.8298L181.005 90.1219L180.574 90.6946L180.365 90.9722L179.992 91.4725L179.819 91.7097L179.547 92.0799L179.298 92.4327L179.266 92.4819L179.125 92.6525L179.044 92.748L178.809 93.0054L178.682 93.1442L178.373 93.4739L178.208 93.6445L177.832 94.035L177.444 94.4341L176.536 95.3509L176.068 95.8194L175.081 96.7941L174.59 97.2771L173.641 98.1996L173.178 98.6421L172.374 99.4057L172.186 99.5792L171.86 99.8829L171.703 100.025L171.449 100.247L171.333 100.349L171.168 100.482L171.033 100.565H170.995L170.882 100.646L170.818 100.696L170.668 100.863L170.168 101.578L170.003 101.855L169.665 102.292L169.586 102.385L169.451 102.509L169.297 102.59H169.254L169.118 102.636L169.04 102.668L168.846 102.769L168.638 102.882L168.1 103.241L167.816 103.434L167.203 103.903L166.301 104.655L166.125 104.814L165.691 105.164L165.462 105.343L164.95 105.722L164.424 106.101L163.302 106.841L163.027 107.018L162.509 107.33L162.258 107.481L161.812 107.726L161.601 107.836L161.266 107.99L160.93 108.085H160.789L160.511 108.256L160.228 108.663L160.181 108.811L159.99 109.031L159.886 109.126L159.652 109.227L159.536 109.259L159.348 109.216L159.215 108.953V108.912L159.123 108.84L159.065 108.805L158.874 108.747L158.058 108.663H157.74L157.24 108.747L157.136 108.773L156.994 108.84L156.902 108.953V109.031L156.69 109.158L156.179 109.242H155.959L155.652 109.129L155.455 108.825V108.66L155.351 108.418L155.285 108.313L155.091 108.206L154.99 108.172L154.761 108.215L154.437 108.475L154.356 108.588L154.183 108.727L154.085 108.782L153.772 108.811L153.677 108.814L153.443 108.794L153.315 108.782L152.997 108.736L152.829 108.71L152.413 108.634L151.664 108.496L151.482 108.461L150.996 108.363L150.733 108.308L150.099 108.169L149.764 108.097L149.003 107.926L148.607 107.836L147.739 107.64L147.294 107.538L146.339 107.319L145.854 107.206L144.836 106.969L143.806 106.726L141.643 106.214L140.558 105.953L138.412 105.436L137.357 105.181L135.396 104.698L134.924 104.58L134.048 104.36L133.62 104.253L132.848 104.056L132.475 103.961L131.827 103.79L131.017 103.573L130.485 103.426L129.565 103.165L129.128 103.041L128.388 102.821L128.038 102.717L127.457 102.532L127.185 102.442L126.748 102.286L126.546 102.211L126.239 102.078L126.1 102.011L125.904 101.896L125.82 101.838L125.721 101.731L125.667 101.575V101.546L125.632 101.442L125.606 101.381L125.528 101.213L125.438 101.031L125.146 100.519L124.987 100.244L124.582 99.5937L123.897 98.5351L123.535 97.9943L122.693 96.8837L122.251 96.3255L121.259 95.186L120.741 94.6105L119.602 93.4421L119.012 92.855L117.731 91.6663L117.074 91.0705L115.657 89.8645L114.934 89.263L113.392 88.0483L112.606 87.4409L110.94 86.2233L108.314 84.3955L107.614 83.927L106.373 83.0998L105.777 82.7036L104.736 82.021L104.276 81.7232L105.563 82.5503L106.35 83.068L107.944 84.1352L108.75 84.6905L110.356 85.804L111.116 86.3477L112.603 87.4236L113.253 87.9152L113.89 88.4011L114.176 88.6267L114.726 89.0634L114.966 89.263L115.515 89.7199L115.764 89.9224L116.241 90.307L116.449 90.4719L116.84 90.7784L116.999 90.8999L117.294 91.1226L117.401 91.1949L117.586 91.3222L117.632 91.3453L117.693 91.3655L117.676 91.3337L117.603 91.2441L117.514 91.1515L117.294 90.9404L117.126 90.7842L116.308 90.0612L115.677 89.529L115.327 89.2427L114.604 88.6585L114.211 88.3519L113.41 87.7243L112.987 87.4033L111.246 86.0874L110.335 85.4193L108.499 84.0889L107.596 83.4526L105.812 82.2119L104.991 81.6624L104.187 81.1274L103.814 80.8844L103.082 80.413L102.752 80.2077L102.116 79.8172L101.838 79.6553L101.315 79.3545L101.101 79.2446L100.707 79.0508L100.569 78.9988L100.323 78.9236L100.265 78.9351L100.06 79.0884L99.9265 79.2967L99.8658 79.4413L99.7501 79.7536L99.6981 79.9416L99.6026 80.3263L99.565 80.5374L99.4407 81.4108L99.4291 81.8302L99.432 82.2409L99.4493 82.4259L99.4956 82.7788L99.5361 82.9234L99.646 83.1692L99.7096 83.1634L99.7414 83.068L99.8022 82.8135L99.8311 82.5879L99.8947 82.0644L99.9323 81.6942L100.019 80.922L100.086 80.4564L100.117 80.2626L100.138 80.1527L100.115 80.3031L100.086 80.5056L100.034 80.9857L99.9757 81.7839L99.9497 82.2177L99.967 83.0449L99.9873 83.4526L100.103 84.2509L100.172 84.65L100.404 85.4482L100.534 85.8531L100.89 86.6832L101.086 87.1083L101.584 88.002L101.853 88.4589L102.506 89.4452L102.856 89.9542L103.681 91.0647L105.121 92.9013L105.338 93.1673L105.717 93.6474L105.896 93.8788L106.211 94.2924L106.359 94.489L106.607 94.8419L106.726 95.0096L106.92 95.3075L107.096 95.5938L107.293 96.0219L107.38 96.5106L107.362 96.6755L107.29 96.904L107.244 97.0052L107.044 97.1325L106.923 97.1845L106.506 97.251L106.385 97.2626L106.084 97.2857L105.54 97.3175L105.072 97.3436L103.973 97.3031L103.4 97.2684L102.13 97.118L101.477 97.0283L100.083 96.7825L99.3741 96.6466L97.9049 96.314L96.4242 95.9582L93.4482 95.0443L92.7165 94.8043L91.3138 94.2808L89.3442 93.4537L88.5952 93.1124L86.9495 92.4212L86.1137 92.0741L84.3553 91.3973L83.4732 91.0647L81.6917 90.4314L80.8067 90.1248L79.0887 89.5637L78.2442 89.2948L76.6767 88.8349L75.9218 88.618L74.5915 88.2854L74.2762 88.2102L73.7094 88.0916L73.4346 88.0367L72.9574 87.9586L72.7318 87.9268L72.353 87.8921L71.9105 87.8979L71.7716 87.9152L71.52 88.028L71.3928 88.1003L71.144 88.3577L71.0168 88.5081L70.7334 88.9506L70.233 89.8645L70.1029 90.1219L69.8628 90.6165L69.7471 90.8565L69.6719 91.0243L69.6893 90.9693L69.6835 90.9288L69.6517 90.8681L69.6083 90.8652L69.5042 90.8825L69.4232 90.9144L69.1311 91.0995L68.9807 91.2701L68.9258 91.3713L68.7696 91.8225L68.7783 92.0654L68.8506 92.5426L68.9721 92.7364L69.108 92.9186L69.1947 92.988L69.3856 93.1066L69.5013 93.1384L69.9322 93.2454L70.0682 93.2628L70.2822 93.2772L70.3111 93.2483L70.3169 93.1615L70.2446 93.0777L70.0479 92.881L69.8773 92.7393L69.5302 92.4154L69.3914 92.2303L69.3856 92.2129L69.4348 92.2737L69.5302 92.3807L69.8368 92.6612L70.0074 92.8087L70.4355 93.1558L70.6611 93.3322L71.1759 93.7168L71.7051 94.1044L72.8678 94.8795L73.1541 95.0646L73.7065 95.403L74.4729 95.831L74.5828 95.8888L74.9298 96.0624L75.1236 96.1607L75.624 96.4036L75.89 96.5367L76.5205 96.8403L76.8473 96.9994L77.5848 97.3523L77.9637 97.5345L78.7822 97.9249L79.1986 98.1245L80.0778 98.5409L82.834 99.8424L83.4269 100.12L84.4854 100.623L84.9974 100.869L85.8939 101.306L86.3248 101.517L87.0681 101.893L87.421 102.072L88.0139 102.387L88.2944 102.538L88.7427 102.795L88.948 102.917L89.2575 103.116L89.3934 103.212L89.5669 103.362L89.6826 103.53L89.6942 103.628L89.671 103.776L89.6508 103.842L89.5409 103.932L89.4715 103.969L89.2604 104.013L88.8005 104.036H88.5402L88.0254 103.909L87.9039 103.868L87.7044 103.77L87.4904 103.602L87.4383 103.539L87.1722 103.432L87.0161 103.379L86.5909 103.298L86.1369 103.22L85.0205 103.157L84.7428 103.148L84.2165 103.154L83.962 103.163L83.5282 103.2L83.3257 103.226L83.0452 103.301L82.863 103.458V103.501L82.6605 103.576L82.5275 103.611L82.085 103.666L81.8363 103.692L81.1913 103.727L80.0345 103.747H79.7192L79.1842 103.744L78.9326 103.741L78.5103 103.727L78.3136 103.721L77.9868 103.698L77.8364 103.683L77.5877 103.646L77.3563 103.602L77.0469 103.46L76.6796 103.131L76.5639 102.998L76.3499 102.813L76.24 102.735L75.9681 102.654L75.8206 102.625L75.407 102.628L74.5394 102.706L74.094 102.758L73.3016 102.92L73.128 102.96L72.8533 103.047L72.5988 103.165L72.5554 103.203L72.2575 103.275L72.0811 103.313L71.5692 103.379L71.2915 103.411L70.6292 103.463L69.5447 103.518L67.1587 103.591L67.2107 103.57L67.4855 103.481L67.6793 103.446L68.5469 103.287L67.7227 103.07L67.0112 103.003L66.6207 103.087L66.4935 103.191L66.3489 103.394L66.2679 103.588L66.2332 103.709L66.1204 104.241L66.1002 104.533L66.0857 105.118L66.1175 105.363L66.158 105.595L66.1898 105.684L66.2592 105.846L66.3055 105.896L66.3691 105.919L66.4009 105.881L66.4675 105.777L66.5022 105.682L66.5658 105.468L66.5947 105.329L66.6468 105.034L66.667 104.86L66.6815 104.773L66.5571 105.87L66.5311 106.098L66.4906 106.497L66.4733 106.688L66.4472 107.015L66.427 107.327L66.4357 107.773L66.4385 107.819L66.3952 107.671L66.3691 107.498L66.2159 106.494L65.996 107.316L65.8919 108.056L65.9035 108.536L65.9527 108.689L66.025 108.872L66.0828 108.941L66.213 109.068L66.2997 109.112L66.4935 109.187L66.6179 109.207L66.8839 109.239H67.0488L67.9685 109.233L67.2455 108.869L67.1327 108.768L67.1674 108.782L67.3987 108.875L68.0726 109.1L68.4341 109.216L69.3046 109.465L70.7334 109.832L71.7225 110.072L73.7007 110.566L74.1576 110.682L74.9327 110.882L75.1092 110.931L75.4128 111.012L75.7772 111.113L76.1764 111.226L77.1799 111.451L77.4286 111.503L77.9058 111.593L78.5248 111.686L78.8255 111.723L79.4994 111.822L79.8407 111.871L80.5637 111.989L81.2925 112.111L82.7155 112.383L83.0538 112.449L83.6583 112.576L83.6409 112.602L83.6265 112.678L83.6583 112.75L83.7422 112.912L83.8174 113.033L84.0025 113.302L84.0979 113.386L84.2656 113.508L84.1876 113.522L83.9735 113.554L83.4443 113.626L83.1609 113.661L82.4841 113.742L81.2867 113.872L80.9773 113.904L80.448 113.956L80.1964 113.979L79.7799 114.014L79.5833 114.028L79.2623 114.043L79.1119 114.049L78.8718 114.043L78.652 114.034L78.3917 113.953L78.1632 113.733L78.0823 113.586L77.8625 113.404L77.7497 113.334L77.5154 113.305L77.4026 113.311L77.2088 113.433L77.0266 113.782L77.0093 113.878L76.8589 114.037L76.7635 114.112L76.4135 114.248L76.2082 114.312L75.5979 114.439L75.4273 114.471L75.0253 114.537L74.3312 114.641L74.042 114.682L73.5532 114.757L73.3218 114.795L72.9285 114.867L72.5583 114.939L72.0319 115.098L71.7948 115.185L71.4361 115.414L70.9329 115.891L70.7825 116.059L70.5396 116.403L70.4297 116.573L70.2677 116.923L70.2591 116.949L70.2677 116.834L70.2735 116.553L70.2533 116.481L70.2041 116.38L70.1549 116.385L70.0421 116.432L69.9583 116.501L69.75 116.756L69.6459 116.97L69.6141 117.091L69.536 117.623L69.5649 117.918L69.6719 118.511L69.7905 118.789L70.0682 119.321L70.2677 119.523L70.6987 119.928L70.8548 120.044L70.9965 120.142L71.0515 120.171L71.144 120.215H71.1701L71.2106 120.2L71.2077 120.171L71.1874 120.099L71.1527 120.041L71.066 119.911L70.9965 119.824L70.8375 119.636L70.7276 119.52L70.3921 119.107L70.2504 118.844L70.2128 118.696L70.1578 118.384L70.181 118.485L70.233 118.653L70.395 118.98L70.4846 119.142L70.7276 119.451L71.1788 119.891L71.4998 120.157L72.0984 120.53L72.2546 120.614L72.5959 120.75L72.7752 120.813L73.183 120.917L73.3999 120.964L73.906 121.039L74.175 121.076L74.8142 121.131L75.1525 121.157L75.9508 121.201L77.3679 121.262L78.4525 121.299L80.4075 121.386L81.3504 121.432L83.022 121.528L83.1233 121.533L83.0249 121.528L82.137 121.496L81.6425 121.49L80.6331 121.478L80.1154 121.481L76.3557 121.504L79.537 121.678L81.3706 121.773L82.2093 121.808L83.0162 121.843L83.3517 121.854L83.9649 121.872L84.1644 121.875L84.8643 121.878L85.1333 121.869L85.1767 121.854L85.1998 121.817L85.1275 121.788L84.9251 121.724L84.7428 121.678L84.4912 121.635L84.3148 121.614L85.2143 121.681L85.8737 121.736L86.9843 121.852L87.5048 121.912L88.3378 122.04L88.7195 122.103L88.9711 122.167L88.815 122.149L88.6443 122.155L88.6125 122.184L88.5749 122.256L88.601 122.326L88.6762 122.485L88.7485 122.601L88.9538 122.878L89.0608 122.962L89.2401 123.069L88.6386 123.237L87.9589 123.344L86.5851 123.691L85.9026 123.882L84.6069 124.359L83.9822 124.608L82.8861 125.166L82.6316 125.308L82.1804 125.6L81.602 126.039L81.4169 126.204L81.1132 126.485L80.9715 126.621L80.7459 126.866L80.5435 127.107L80.3815 127.497L80.3468 127.3L80.315 127.231L80.2485 127.115L80.2022 127.095L80.1039 127.072L80.0431 127.095L79.7886 127.39L79.6816 127.72V127.902L79.7886 128.417L79.9448 128.677L80.0431 128.717L80.234 128.796L80.2976 128.827L80.4047 128.879V128.561L80.4972 128.891L80.7083 129.539L81.1537 130.852L82.8716 131.034L83.3431 131.083L84.3032 131.075L84.5259 131.066L84.9077 131.025L85.3357 130.927L85.5411 130.849L86.105 130.727L86.9062 130.644H86.9611L87.1636 130.626L87.2792 130.612L87.5858 130.571L87.7536 130.548L88.1498 130.487L88.358 130.456L88.8323 130.378L89.3211 130.297L90.4664 130.088L92.3087 129.738L92.8408 129.634L93.7692 129.458L94.2175 129.374L95.0446 129.235L95.8602 129.108L97.5348 128.934L97.9859 128.897L98.9953 128.833L99.5274 128.801L100.765 128.749L101.092 128.735L101.801 128.709L102.168 128.697L102.96 128.674L103.371 128.66L104.259 128.634L105.711 128.596L106.923 128.561L109.361 128.472L109.962 128.446L111.125 128.394L111.698 128.368L112.782 128.31L113.311 128.281L114.286 128.22L114.757 128.191L115.587 128.13L115.984 128.101L116.64 128.041L117.398 127.957L117.866 127.89L118.723 127.798L119.136 127.757L119.871 127.72L120.224 127.705L120.831 127.72L121.592 127.801L121.67 127.815L121.915 127.887L122.048 127.931L122.393 128.055L122.575 128.125L123 128.292L123.223 128.382L123.714 128.587L124.22 128.801L125.363 129.305L125.944 129.565L127.144 130.117L127.737 130.392L128.865 130.933L129.406 131.196L130.334 131.667L130.546 131.777L130.913 131.974L131.083 132.069L131.355 132.229L131.48 132.301L131.639 132.414L131.74 132.523V132.659L131.587 133.047L131.491 133.247L131.217 133.666L131.072 133.868L130.774 134.186L130.702 134.253L130.572 134.346L130.404 134.403H130.34L130.164 134.467L130.068 134.507L129.849 134.638L129.152 135.199L129.042 135.309L128.764 135.572L128.619 135.708L128.298 135.997L127.373 136.801L127.237 136.914L126.873 137.212L126.682 137.371L126.245 137.729L124.915 138.825L124.712 138.993L124.246 139.366L124.004 139.557L123.471 139.971L122.925 140.393L121.713 141.298L121.1 141.755L119.871 142.643L118.167 143.832L117.803 144.078L116.935 144.749L116.724 144.916L116.331 145.249L115.833 145.697L115.556 145.963L114.89 146.516L114.728 146.643L114.425 146.866L114.043 147.114L113.988 147.146L113.829 147.247L113.745 147.305L113.528 147.456L113.297 147.615L112.701 148.048L112.386 148.28L111.677 148.812L110.572 149.665L110.202 149.954L109.473 150.521L109.118 150.799L108.473 151.296L108.169 151.533L107.683 151.907L107.576 151.99L107.4 152.124L107.212 152.268L107.119 152.338L106.827 152.572L106.668 152.699L106.275 153.026L104.965 154.142L104.73 154.348L104.195 154.796L103.918 155.024L103.316 155.502L102.706 155.984L101.404 156.962L100.762 157.439L99.5592 158.281L99.2758 158.475L98.761 158.813L98.1016 159.218L97.6794 159.464L96.7654 159.75L96.3027 159.863L95.3599 159.883L94.8913 159.863L93.9803 159.623L93.5349 159.47L92.7193 158.969L92.5805 158.868L92.1988 158.576L91.9934 158.414L91.5047 158.021L91.2473 157.812L90.6804 157.347L90.3912 157.107L89.7809 156.595L89.162 156.077L87.93 155.013L87.6321 154.755L87.0768 154.264L86.3335 153.598L86.2844 153.552L86.0472 153.347L85.9055 153.228L85.5064 152.887L85.2866 152.702L84.74 152.245L84.4507 152.005L83.7827 151.447L83.4356 151.155L82.6663 150.515L82.273 150.186L81.4227 149.48L78.6694 147.201L76.9312 145.764L73.3883 142.808L72.486 142.053L70.6264 140.488L69.6835 139.696L67.7169 138.033L66.7162 137.186L64.6136 135.398L63.5406 134.484L61.2645 132.544L60.1048 131.552L57.6291 129.432L56.9957 128.888L55.6856 127.766L53.6524 126.019L53.2446 125.669L52.3192 124.877L51.842 124.469L50.8037 123.587L50.2715 123.136L49.1552 122.187L48.5883 121.71L47.4257 120.726L46.2601 119.743L43.9464 117.8L43.3796 117.325L42.2979 116.423L40.7824 115.159L40.178 114.659L39.0645 113.728L38.5208 113.273L37.5288 112.435L37.0458 112.027L36.1695 111.275L35.7443 110.911L34.9808 110.24L34.6106 109.913L33.9512 109.317L33.636 109.028L33.0749 108.501L32.8088 108.247L32.3461 107.781L32.1263 107.559L31.7532 107.154L31.5768 106.957L31.2905 106.601L31.1574 106.431L30.9492 106.124L30.8538 105.974L30.7236 105.708L30.6658 105.577L30.6021 105.346L30.5559 105.118L30.6484 104.745L31.0273 104.259L31.0591 104.23L31.2124 104.123L31.302 104.062L31.5652 103.894L31.7069 103.802L32.0627 103.579L32.2507 103.46L32.6903 103.191L33.1443 102.914L34.2462 102.249L34.8189 101.904L36.0741 101.155L36.7103 100.777L38.0176 100.007L38.6654 99.6255L39.9177 98.8995L40.525 98.5467L41.6154 97.9249L41.8728 97.7774L42.3384 97.5142L42.9515 97.1758L43.0614 97.1151L43.3333 96.9647L43.4779 96.8866L43.8076 96.7015L44.1518 96.5077L44.9674 96.0537L47.579 94.5758L48.1342 94.2577L49.3836 93.5549L50.0257 93.1963L51.4052 92.4269L52.8108 91.6461L55.8071 90.0062L56.5532 89.5984L58.034 88.7973L58.7657 88.4011L60.1771 87.6434L60.8712 87.2703L62.164 86.5848L63.9195 85.6622L64.4372 85.3962L65.4726 84.8438L65.9816 84.569L66.9186 84.0542L67.364 83.8084L68.0986 83.389L68.2635 83.2936L68.5353 83.1287L68.8477 82.9321L69.5592 82.4606L71.1759 81.4947L71.9972 81.0175L73.6486 80.1383L74.0506 79.93L74.8199 79.5541L75.1959 79.3719L75.8871 79.0624L76.2197 78.9149L76.7982 78.6893L77.5125 78.4579L77.7497 78.3972L78.3686 78.2728L78.6925 78.2121L79.4184 78.0993L79.7857 78.0473L80.5261 77.9576L81.5615 77.8622L82.1226 77.8246L83.0885 77.7552L83.5484 77.7233L84.3524 77.6568L84.74 77.6221L85.4341 77.5527L85.7724 77.5151L86.4087 77.4312L87.0392 77.3445L88.3464 77.1015L88.6935 77.0321L89.4628 76.8702L90.7816 76.578L91.2357 76.4768L92.0802 76.2975L92.4909 76.2108L93.2689 76.0575L94.0324 75.9129L95.4582 75.6902L96.1697 75.5889L97.6331 75.4328L100.071 75.2477L100.271 75.2361L100.826 75.1985L101.124 75.1754L101.815 75.1262L103.976 74.9613L104.652 74.9064L106.052 74.7994L106.379 74.7734L106.949 74.73L107.591 74.6808L108.56 74.6114L110.59 74.3742L111.073 74.3135L111.926 74.1805L112.941 73.9838L113.219 73.9202L113.849 73.8103L114.616 73.7235L114.853 73.7177L115.431 73.5182L115.729 73.3967L116.336 73.0294L116.632 72.8327L117.152 72.3729L117.702 71.6672L117.757 71.5573L117.866 71.271L117.921 71.1177L118.017 70.7764L118.199 69.7439L118.292 68.6073L118.234 69.475M89.9082 122.696L89.8966 122.719L89.9024 122.682M85.3618 113.169L85.301 113.233L85.2576 113.265L85.1709 113.299L85.3589 113.146M78.7156 103.206L78.2847 103.226L78.1256 103.27L77.8538 103.374L77.8017 103.458L77.7873 103.544L77.8422 103.576L77.9868 103.64L78.1141 103.663L78.4091 103.7L78.6086 103.709L79.0396 103.724L79.3027 103.718L80.0692 103.692L80.3931 103.666L80.4683 103.646L80.5579 103.599L80.5232 103.57L80.3989 103.501L80.26 103.458L79.4647 103.27L78.9441 103.206M71.4564 87.3397L71.2973 87.412L70.9908 87.5971L70.8895 87.7359L70.7218 88.0396L70.7247 88.2218L70.7305 88.4705L70.7391 88.5428L70.7594 88.6585L70.7796 88.6672L70.8288 88.6527L70.8693 88.5978L70.9618 88.4589L71.0284 88.3461L71.4188 87.9875L71.7745 87.84H71.9452L72.217 87.8227L72.3298 87.7937L72.353 87.7677L72.379 87.7099L72.3616 87.6694L72.3067 87.5797L72.2488 87.5219L71.7977 87.3194M104.109 81.6162L104.132 81.6306L104.091 81.6046M100.398 79.5598L100.291 79.5685L100.305 79.5541M123.656 61.3915L123.604 61.4233L124.281 60.9952M125.441 58.3055L125.49 58.6352L125.447 58.3402L125.441 58.3027M108.632 57.4003L108.603 57.3714V57.3251L108.612 57.3193M125.027 56.6021L124.981 56.5182L124.79 56.336L124.683 56.255L124.394 56.1509L124.238 56.1075L123.824 56.0584L123.602 56.041L123.038 56.0294L122.26 56.0265L124.779 55.9369M127.043 47.1072L127.026 47.1997L127.049 47.0407M126.988 44.6547L126.971 44.5968L126.858 44.4175L126.716 44.3192L126.968 44.3134M117.276 30.6741L117.569 30.7782L118.153 31.0327L118.477 31.2381L118.809 31.4579L118.85 31.4868L118.494 31.2757L118.106 31.0645L117.355 30.7666L117.175 30.7059L116.837 30.6249L116.582 30.596L116.689 30.5931M88.0746 29.3668L88.089 29.416L88.0428 29.2743M87.9444 28.9938L88.0023 29.1557L87.9676 29.0574L87.9155 28.9388M87.5048 28.1753L87.5309 28.2187L87.4788 28.1493M99.0792 20.0744L98.709 20.2653L98.6077 20.4273L98.654 20.5025L98.7813 20.6384L98.8622 20.6615L99.0416 20.6847L99.1312 20.6586L99.3134 20.5834L99.3886 20.5111L99.5274 20.3492L99.5621 20.2422L99.4812 20.0484L99.2585 20.0281L99.0792 20.0744Z" fill="#42816C"/>
<path d="M80.0428 128.717L79.9445 128.676L79.7883 128.416L79.6813 127.901V127.719L79.7883 127.389L80.0428 127.094L80.1035 127.071L80.2019 127.094L80.2481 127.114L80.3147 127.23L80.3465 127.3L80.3812 127.508L80.4043 127.933V128.199V128.615V128.699V128.818V128.884V128.879L80.2973 128.827L80.2337 128.795M88.7481 122.6L88.6758 122.484L88.6006 122.325L88.5746 122.256L88.6122 122.183L88.644 122.154L88.8146 122.149L89.2369 122.195L89.3757 122.215L89.5868 122.273L89.6823 122.305L89.8124 122.386L89.8674 122.429L89.9166 122.533L89.8963 122.718L89.8442 122.86L89.6823 123.025L89.5926 123.089L89.3873 123.103L89.2832 123.094L89.0605 122.961L88.9535 122.877M79.5367 121.677L76.3553 121.504L80.1151 121.481L80.6328 121.478L81.6422 121.489L82.1367 121.495L83.0246 121.527L83.444 121.547L84.1091 121.593L84.2566 121.605L84.4909 121.634L84.7425 121.677L84.9247 121.723L85.1272 121.787L85.1995 121.816L85.1763 121.854L85.133 121.868L84.864 121.877L84.1641 121.874L83.9645 121.871L83.3514 121.854L83.0159 121.842L82.209 121.807L81.3703 121.773M70.2674 119.523L70.0678 119.32L69.7902 118.788L69.6716 118.51L69.5646 117.917L69.5357 117.622L69.6138 117.09L69.6456 116.969L69.7497 116.755L69.9579 116.5L70.0418 116.431L70.1546 116.385L70.2038 116.379L70.2529 116.48L70.2732 116.552L70.2674 116.833L70.2067 117.489L70.1777 117.764L70.1575 118.189V118.383L70.2124 118.695L70.25 118.843L70.3918 119.106L70.7272 119.52L70.8371 119.635L70.9962 119.823L71.0656 119.91L71.1524 120.04L71.1871 120.098L71.2073 120.17L71.2102 120.199L71.1697 120.214H71.1437L71.0512 120.17L70.9962 120.141L70.8545 120.043L70.6983 119.927M83.817 113.033L83.7418 112.911L83.658 112.749L83.6262 112.677L83.6406 112.602L83.6609 112.573L83.7852 112.57L84.1091 112.625L84.2856 112.662L84.5777 112.729L84.7136 112.761L84.9334 112.819L85.1358 112.874L85.3412 112.969L85.4135 113.015L85.3961 113.114L85.1677 113.302L85.0086 113.403L84.7425 113.516L84.6153 113.556L84.3955 113.545L84.2885 113.524L84.0976 113.385L84.0021 113.302M65.9523 108.689L65.9032 108.535L65.8916 108.055L65.9957 107.315L66.2155 106.493L66.3688 107.497L66.3948 107.671L66.4816 107.968L66.5279 108.11L66.6609 108.347L67.2451 108.868L67.9682 109.232L67.0485 109.238H66.8836L66.6175 109.206L66.4932 109.186L66.2994 109.111L66.2126 109.067L66.0825 108.94L66.0246 108.871M66.3052 105.895L66.2589 105.846L66.1895 105.684L66.1577 105.594L66.1172 105.363L66.0854 105.117L66.0998 104.533L66.1201 104.241L66.2329 103.708L66.2676 103.587L66.3486 103.393L66.4932 103.191L66.6204 103.087L67.0109 103.003L67.7223 103.069L68.5466 103.286L67.6789 103.445L67.4852 103.48L67.2104 103.57L67.0889 103.619L66.9299 103.784L66.8605 103.882L66.7708 104.186L66.6667 104.859L66.6464 105.033L66.5944 105.328L66.5655 105.467L66.5018 105.681L66.4671 105.776L66.4006 105.88L66.3688 105.918M77.8014 103.457L77.8535 103.373L78.1253 103.269L78.2844 103.225L78.7153 103.205H78.9438L79.4644 103.269L80.2597 103.457L80.3985 103.5L80.5229 103.57L80.5576 103.598L80.4679 103.645L80.3928 103.665L80.0688 103.691L79.3024 103.717L79.0392 103.723L78.6083 103.708L78.4088 103.7L78.1137 103.662L77.9865 103.639L77.8419 103.575L77.7869 103.544M69.501 93.1376L69.3853 93.1058L69.1944 92.9872L69.1077 92.9178L68.9717 92.7356L68.8503 92.5418L68.7779 92.0646L68.7693 91.8217L68.9254 91.3705L68.9804 91.2693L69.1308 91.0987L69.4229 90.9136L69.5039 90.8818L69.608 90.8644L69.6514 90.8673L69.6832 90.928L69.689 90.9685L69.6456 91.1189L69.5039 91.4602L69.4345 91.6106L69.3622 91.8448L69.339 91.9518L69.3651 92.1398L69.3911 92.2295L69.5299 92.4146L69.877 92.7385L70.0476 92.8802L70.2443 93.0769L70.3166 93.1608L70.3108 93.2475L70.2819 93.2764L70.0678 93.262L69.9319 93.2446M114.965 89.2622L114.725 89.0626L114.176 88.6259L113.889 88.4003L113.253 87.9144L112.602 87.4228L111.116 86.3469L110.355 85.8032L108.75 84.6897L107.943 84.1344L106.35 83.0672L105.563 82.5495L104.108 81.6154L103.758 81.3927L103.11 80.9907L102.795 80.7969L102.225 80.4585L101.951 80.2965L101.476 80.0305L101.254 79.909L100.892 79.7268L100.727 79.6487L100.493 79.5648L100.305 79.5533L100.279 79.5793L100.218 79.7817L100.187 79.9032L100.117 80.2618L100.085 80.4556L100.019 80.9212L99.932 81.6934L99.8944 82.0636L99.8308 82.5871L99.8019 82.8127L99.7411 83.0672L99.7093 83.1626L99.6457 83.1684L99.5358 82.9226L99.4953 82.778L99.449 82.4252L99.4317 82.2401L99.4288 81.8294L99.4403 81.41L99.5647 80.5366L99.6023 80.3255L99.6977 79.9408L99.7498 79.7528L99.8655 79.4405L99.9262 79.2959L100.059 79.0876L100.265 78.9343L100.322 78.9228L100.568 78.998L100.707 79.05L101.1 79.2438L101.314 79.3537L101.838 79.6545L102.116 79.8164L102.752 80.2069L103.082 80.4122L103.813 80.8836L104.186 81.1266L104.99 81.6616L105.812 82.2111L107.596 83.4519L108.499 84.0881L110.335 85.4185L111.246 86.0866L112.987 87.4025L113.409 87.7235L114.21 88.3511L114.604 88.6577L115.327 89.2419L115.677 89.5282L116.307 90.0604L117.126 90.7834L117.293 90.9396L117.513 91.1507L117.603 91.2433L117.675 91.3329L117.693 91.3647L117.632 91.3445L117.586 91.3214L117.4 91.1941L117.293 91.1218L116.998 90.8991L116.839 90.7776L116.449 90.4711L116.241 90.3062L115.764 89.9216L115.515 89.7191M70.7244 88.221L70.7215 88.0388L70.8892 87.7351L70.9904 87.5963L71.297 87.4112L71.4561 87.3389L71.7973 87.3186L72.2485 87.5211L72.3063 87.5789L72.3613 87.6686L72.3787 87.7091L72.3526 87.7669L72.3295 87.793L72.2167 87.8219L71.9448 87.8392H71.7742L71.4185 87.9867L71.028 88.3454L70.9615 88.4581L70.869 88.597L70.8285 88.6519L70.7793 88.6664L70.7591 88.6577L70.7388 88.542L70.7301 88.4697M118.233 69.4742L118.291 68.6065L115.879 68.3173L115.509 68.2739L114.91 68.1814L114.636 68.138L114.234 68.0484L114.054 68.0079L113.843 67.9269L113.762 67.8893L113.739 67.8257L113.751 67.7967L113.913 67.7533L114.017 67.7331L114.367 67.7158L114.563 67.71L115.093 67.7244L116.09 67.7852L116.452 67.8141L117.065 67.8835L117.357 67.9211L117.834 68.0136L118.057 68.0628L118.404 68.1785L118.563 68.2392L118.786 68.3838L118.884 68.4619L118.988 68.6412L119.026 68.7367L119.017 68.9565L119 69.0693L118.884 69.3325L118.595 69.7807L118.497 69.9138L118.364 70.0728L118.306 70.1307L118.245 70.1336L118.222 70.1133L118.21 69.9427V69.8328M120.66 63.0074L121.311 62.6921L122.725 61.9286L123.06 61.7406L123.656 61.3907L124.362 60.9453L125.695 60.0285L125.496 58.6778L125.441 58.3047L125.279 57.5181L125.238 57.333L125.154 57.0091L125.039 56.6331L124.778 55.9361L119.836 56.1125L119.156 56.1385L117.933 56.1675L117.643 56.1732L117.111 56.179H116.857H116.406H116.189L115.83 56.1704L115.662 56.1646L115.408 56.153L115.295 56.1443L115.156 56.1241L115.098 56.0865L115.153 56.0315L115.405 55.9448L115.489 55.9245L115.74 55.8869L115.879 55.8696L116.267 55.8349L116.481 55.8175L117.039 55.7799L117.343 55.7597L118.106 55.7163L118.517 55.696L119.523 55.6469L121.342 55.5601L121.704 55.5428L122.332 55.5196L122.632 55.5081L123.144 55.4936L123.387 55.4907H123.798H123.992L124.31 55.5052L124.608 55.5225L124.978 55.6006L125.302 55.7915L125.351 55.8522L125.461 56.1096L125.516 56.2571L125.626 56.6533L125.739 57.0756L125.935 58.1139L125.981 58.3742L126.054 58.8774L126.086 59.1232L126.126 59.5628L126.143 59.7682V60.0863L126.091 60.3784L126.045 60.4536L125.854 60.5722L125.527 60.6532H125.472L125.305 60.711L125.215 60.7486L124.995 60.8672L124.269 61.3791L124.159 61.4716L123.844 61.6885L123.674 61.8013L123.257 62.0501L122.826 62.3017L121.797 62.828L121.276 63.0854L120.258 63.5279L120.015 63.6292L119.575 63.7911L119.014 63.9675L118.916 63.9936L118.922 63.9473L118.954 63.9126L119.199 63.7622L119.35 63.6754L119.798 63.4354L120.044 63.3081M108.603 57.2867V57.1797L108.73 57.0091L109.036 56.8934H109.155L109.404 56.8876L109.678 56.8702L109.829 56.8558L109.968 56.9339L110.011 56.983L109.968 57.1392L109.927 57.2173L109.739 57.3764L109.337 57.5412L109.213 57.5644L109.013 57.5788H108.921L108.785 57.5499L108.663 57.5065M126.566 48.2372L126.678 48.0839L126.84 47.7832L126.913 47.6299L127.005 47.2857L127.043 47.1064L127.072 46.6755L127.057 45.883L126.968 44.3126L124.616 44.3589L123.992 44.3704L122.621 44.489L121.921 44.5642L120.443 44.7985L119.694 44.9315L118.158 45.2728L115.847 45.8975L115.552 45.9871L115.064 46.126L114.835 46.1867L114.479 46.2735L114.317 46.3082L114.101 46.3429L114.011 46.3544L113.936 46.3371L113.915 46.3226L113.982 46.259L114.031 46.2243L114.245 46.1144L114.37 46.0537L114.731 45.9004L115.443 45.6227L115.879 45.4579L116.92 45.1426L117.461 44.9865L118.647 44.7001L119.853 44.4196L122.343 43.9945L122.945 43.9019L124.064 43.7689L124.602 43.7139L125.53 43.659L125.747 43.6503H126.132L126.314 43.6532L126.623 43.6763L126.765 43.6908L126.988 43.74L127.213 43.8441L127.286 43.9019L127.393 44.1073L127.439 44.2258L127.503 44.5642L127.529 44.7493L127.549 45.2439L127.535 46.178L127.523 46.4586L127.5 46.93L127.488 47.1527L127.456 47.5171L127.442 47.6877L127.399 47.9625L127.375 48.0897L127.315 48.2893L127.248 48.4744L127.034 48.6797L126.551 48.8735L126.412 48.9111L126.236 48.9458L126.167 48.9545L126.135 48.9024V48.8619L126.242 48.6855L126.314 48.5756M120.732 33.7881L120.802 33.658L120.851 33.4382L120.857 33.3312L120.744 33.0998L120.66 32.9783L120.339 32.666L120.243 32.5792L120.003 32.3797L119.57 32.0297L119.364 31.8677L118.991 31.5901L118.809 31.4571L118.476 31.2373L118.152 31.0319L117.568 30.7774L117.276 30.6733L116.689 30.5923L115.688 30.6299L115.544 30.6473L115.304 30.6588H115.194L115.038 30.6415L114.968 30.6299L114.905 30.5865L114.931 30.494L114.965 30.4593L115.119 30.3841L115.205 30.3465L115.44 30.2713L116.304 30.092L116.542 30.0631L116.926 30.0544L117.111 30.0602L117.453 30.1498L117.626 30.2077L118.002 30.4217L118.699 30.9104L119.049 31.1765L119.818 31.726L120.003 31.8562L120.33 32.0789L120.724 32.3334L120.964 32.4809L121.288 32.7903L121.423 32.9465L121.533 33.256L121.562 33.4064L121.452 33.6869L121.033 34.0484L120.891 34.1236L120.706 34.2104L120.631 34.2422L120.562 34.2335L120.541 34.2162L120.579 34.1005L120.608 34.0253M88.4184 30.6444L88.3201 30.1701L88.0743 29.366L87.9441 28.993L87.6549 28.4261L87.5045 28.1745L87.1951 27.8795L87.117 27.8274L86.9637 27.7783L86.7381 27.7985L86.6195 27.8448L86.4489 27.7898L86.3332 27.5295V27.3994L86.5241 27.2201L87.036 27.1044H87.1864L87.4177 27.1622L87.5248 27.2056L87.6983 27.3965L87.785 27.5151L87.947 27.9026L88.2218 28.7674L88.3577 29.2301L88.5804 30.1006L88.6816 30.52L88.8291 31.2315L88.858 31.3963L88.9014 31.6769L88.9217 31.8099L88.939 32.0152L88.9448 32.1107L88.9361 32.235L88.8869 32.3102H88.8696L88.8118 32.1801L88.7799 32.0933L88.699 31.8215L88.6556 31.6682L88.563 31.2893L88.5139 31.0926M98.6537 20.5017L98.6074 20.4265L98.7086 20.2645L99.0788 20.0736L99.2581 20.0273L99.4808 20.0476L99.5618 20.2414L99.5271 20.3484L99.3883 20.5103L99.3131 20.5826L99.1309 20.6578L99.0412 20.6839L98.8619 20.6607L98.7809 20.6376L98.6537 20.5017Z" fill="#42816C"/>
</svg>
